<?xml version="1.0" encoding="UTF-8" standalone="no"?>
<!-- Created with Inkscape (http://www.inkscape.org/) -->

<svg
   width="700mm"
   height="400mm"
   viewBox="0 0 700 400"
   version="1.1"
   id="svg1"
   inkscape:version="1.3 (0e150ed6c4, 2023-07-21)"
   sodipodi:docname="NYNA_ALLv2.svg"
   xmlns:inkscape="http://www.inkscape.org/namespaces/inkscape"
   xmlns:sodipodi="http://sodipodi.sourceforge.net/DTD/sodipodi-0.dtd"
   xmlns="http://www.w3.org/2000/svg"
   xmlns:svg="http://www.w3.org/2000/svg">
  <sodipodi:namedview
     id="namedview1"
     pagecolor="#ffffff"
     bordercolor="#000000"
     borderopacity="0.25"
     inkscape:showpageshadow="2"
     inkscape:pageopacity="0.0"
     inkscape:pagecheckerboard="0"
     inkscape:deskcolor="#d1d1d1"
     inkscape:document-units="mm"
     inkscape:zoom="0.36569515"
     inkscape:cx="1728.2154"
     inkscape:cy="909.22727"
     inkscape:window-width="1920"
     inkscape:window-height="1017"
     inkscape:window-x="-8"
     inkscape:window-y="-8"
     inkscape:window-maximized="1"
     inkscape:current-layer="layer1" />
  <defs
     id="defs1" />
  <g
     inkscape:label="Calque 1"
     inkscape:groupmode="layer"
     id="layer1">
    <path
       id="path4-1-1"
       style="fill:none;fill-opacity:0.149038;stroke:#ff0000;stroke-width:0.2;stroke-linecap:round;stroke-linejoin:round;stroke-dasharray:none;stroke-opacity:1"
       d="m 613.99715,188.78018 c 0,-0.055 -0.0447,-0.0997 -0.0997,-0.0997 h -3.00033 -9.89965 v -2.90008 c 0,-0.055 -0.0453,-0.0997 -0.10026,-0.0997 h -6.00015 c -0.055,0 -0.0997,0.0447 -0.0997,0.0997 v 2.90008 h -5.80016 v -2.90008 c 0,-0.055 -0.0447,-0.0997 -0.0997,-0.0997 h -6.00015 c -0.055,0 -0.10025,0.0447 -0.10025,0.0997 v 2.90008 h -5.79965 v -2.90008 c 0,-0.055 -0.0453,-0.0997 -0.10025,-0.0997 h -5.99964 c -0.055,0 -0.10025,0.0447 -0.10025,0.0997 v 2.90008 h -5.80016 v -2.90008 c 0,-0.055 -0.0447,-0.0997 -0.0997,-0.0997 h -6.00015 c -0.055,0 -0.0997,0.0447 -0.0997,0.0997 v 2.90008 h -5.80016 v -2.90008 c 0,-0.055 -0.0452,-0.0997 -0.10026,-0.0997 h -5.99963 c -0.055,0 -0.10025,0.0447 -0.10025,0.0997 v 2.90008 h -5.80017 v -2.90008 c 0,-0.055 -0.0447,-0.0997 -0.0997,-0.0997 h -6.00015 c -0.055,0 -0.0997,0.0447 -0.0997,0.0997 v 2.90008 h -5.80016 v -2.90008 c 0,-0.055 -0.0442,-0.0997 -0.0992,-0.0997 h -6.00015 c -0.055,0 -0.10025,0.0447 -0.10025,0.0997 v 2.90008 h -5.79965 v -2.90008 c 0,-0.055 -0.0453,-0.0997 -0.10025,-0.0997 h -6.00015 c -0.055,0 -0.0997,0.0447 -0.0997,0.0997 v 2.90008 h -5.80016 v -2.90008 c 0,-0.055 -0.0447,-0.0997 -0.0997,-0.0997 h -6.00015 c -0.055,0 -0.0997,0.0447 -0.0997,0.0997 v 2.90008 h -5.80016 v -2.90008 c 0,-0.055 -0.0453,-0.0997 -0.10026,-0.0997 h -5.99963 c -0.055,0 -0.10025,0.0447 -0.10025,0.0997 v 2.90008 h -5.80016 v -2.90008 c 0,-0.055 -0.0447,-0.0997 -0.0997,-0.0997 h -6.00015 c -0.055,0 -0.0997,0.0447 -0.0997,0.0997 v 2.90008 h -5.80016 v -2.90008 c 0,-0.055 -0.0453,-0.0997 -0.10025,-0.0997 h -5.99963 c -0.055,0 -0.10026,0.0447 -0.10026,0.0997 v 2.90008 h -5.79964 v -2.90008 c 0,-0.055 -0.0453,-0.0997 -0.10025,-0.0997 H 450.898 c -0.055,0 -0.0997,0.0447 -0.0997,0.0997 v 2.90008 h -5.80016 v -2.90008 c 0,-0.055 -0.0447,-0.0997 -0.0997,-0.0997 h -6.00015 c -0.055,0 -0.10025,0.0447 -0.10025,0.0997 v 2.90008 h -5.79965 v -2.90008 c 0,-0.055 -0.0452,-0.0997 -0.10025,-0.0997 h -5.99963 c -0.055,0 -0.10026,0.0447 -0.10026,0.0997 v 2.90008 h -9.90017 -2.99981 c -0.055,0 -0.10026,0.0447 -0.10026,0.0997 v 10.00042 c 0,0.055 0.0453,0.0997 0.10026,0.0997 h 2.90008 v 5.80017 h -2.90008 c -0.055,0 -0.10026,0.0447 -0.10026,0.0997 v 6.00015 c 0,0.055 0.0453,0.10026 0.10026,0.10026 h 2.90008 v 5.79964 h -2.90008 c -0.055,0 -0.10026,0.0453 -0.10026,0.10025 v 5.99964 c 0,0.055 0.0453,0.10025 0.10026,0.10025 h 2.90008 v 5.80016 h -2.90008 c -0.055,0 -0.10026,0.0447 -0.10026,0.0997 v 6.00015 c 0,0.055 0.0453,0.0997 0.10026,0.0997 h 2.90008 v 5.80017 h -2.90008 c -0.055,0 -0.10026,0.0453 -0.10026,0.10025 v 5.99963 c 0,0.055 0.0453,0.10026 0.10026,0.10026 h 2.90008 v 5.79964 h -2.90008 c -0.055,0 -0.10026,0.0453 -0.10026,0.10025 v 9.99991 c 0,0.055 0.0453,0.10025 0.10026,0.10025 h 2.99981 9.90017 v 2.90008 c 0,0.055 0.0453,0.0997 0.10026,0.0997 h 5.99963 c 0.055,0 0.10025,-0.0447 0.10025,-0.0997 v -2.90008 h 5.79965 v 2.90008 c 0,0.055 0.0453,0.0997 0.10025,0.0997 h 6.00015 c 0.055,0 0.0997,-0.0447 0.0997,-0.0997 v -2.90008 h 5.80016 v 2.90008 c 0,0.055 0.0447,0.0997 0.0997,0.0997 h 6.00016 c 0.055,0 0.10025,-0.0447 0.10025,-0.0997 v -2.90008 h 5.79964 v 2.90008 c 0,0.055 0.0453,0.0997 0.10026,0.0997 h 5.99963 c 0.055,0 0.10025,-0.0447 0.10025,-0.0997 v -2.90008 h 5.80016 v 2.90008 c 0,0.055 0.0447,0.0997 0.0997,0.0997 h 6.00015 c 0.055,0 0.0997,-0.0447 0.0997,-0.0997 v -2.90008 h 5.80016 v 2.90008 c 0,0.055 0.0453,0.0997 0.10025,0.0997 h 5.99963 c 0.055,0 0.10026,-0.0447 0.10026,-0.0997 v -2.90008 h 5.80016 v 2.90008 c 0,0.055 0.0447,0.0997 0.0997,0.0997 h 6.00015 c 0.055,0 0.0997,-0.0447 0.0997,-0.0997 v -2.90008 h 5.80016 v 2.90008 c 0,0.055 0.0447,0.0997 0.0997,0.0997 h 6.00015 c 0.055,0 0.10025,-0.0447 0.10025,-0.0997 v -2.90008 h 5.79965 v 2.90008 c 0,0.055 0.0453,0.0997 0.10025,0.0997 h 6.00015 c 0.055,0 0.0992,-0.0447 0.0992,-0.0997 v -2.90008 h 5.80016 v 2.90008 c 0,0.055 0.0447,0.0997 0.0997,0.0997 h 6.00015 c 0.055,0 0.0997,-0.0447 0.0997,-0.0997 v -2.90008 h 5.80017 v 2.90008 c 0,0.055 0.0453,0.0997 0.10025,0.0997 h 5.99963 c 0.055,0 0.10026,-0.0447 0.10026,-0.0997 v -2.90008 h 5.80016 v 2.90008 c 0,0.055 0.0447,0.0997 0.0997,0.0997 h 6.00015 c 0.055,0 0.0997,-0.0447 0.0997,-0.0997 v -2.90008 h 5.80016 v 2.90008 c 0,0.055 0.0453,0.0997 0.10025,0.0997 h 5.99964 c 0.055,0 0.10025,-0.0447 0.10025,-0.0997 v -2.90008 h 5.79965 v 2.90008 c 0,0.055 0.0453,0.0997 0.10025,0.0997 h 6.00015 c 0.055,0 0.0997,-0.0447 0.0997,-0.0997 v -2.90008 h 5.80016 v 2.90008 c 0,0.055 0.0447,0.0997 0.0997,0.0997 h 6.00015 c 0.055,0 0.10026,-0.0447 0.10026,-0.0997 v -2.90008 h 9.89965 3.00033 c 0.055,0 0.0997,-0.0453 0.0997,-0.10025 v -9.99991 c 0,-0.055 -0.0447,-0.10025 -0.0997,-0.10025 h -2.90008 v -5.79964 h 2.90008 c 0.055,0 0.0997,-0.0453 0.0997,-0.10026 v -5.99963 c 0,-0.055 -0.0447,-0.10025 -0.0997,-0.10025 h -2.90008 v -5.80017 h 2.90008 c 0.055,0 0.0997,-0.0447 0.0997,-0.0997 v -6.00015 c 0,-0.055 -0.0447,-0.0997 -0.0997,-0.0997 h -2.90008 v -5.80016 h 2.90008 c 0.055,0 0.0997,-0.0453 0.0997,-0.10025 v -5.99964 c 0,-0.055 -0.0447,-0.10025 -0.0997,-0.10025 h -2.90008 v -5.79964 h 2.90008 c 0.055,0 0.0997,-0.0453 0.0997,-0.10026 v -6.00015 c 0,-0.055 -0.0447,-0.0997 -0.0997,-0.0997 h -2.90008 v -5.80017 h 2.90008 c 0.055,0 0.0997,-0.0447 0.0997,-0.0997 z m -8.50025,37.00032 a 1,1 0 0 1 -0.99995,0.99994 1,1 0 0 1 -0.99993,-0.99994 1,1 0 0 1 0.99993,-0.99994 1,1 0 0 1 0.99995,0.99994 z m -3.49953,-5.99963 v 11.99978 h -22.00021 v -11.99978 z m -23.50038,6.00015 a 1,1 0 0 1 -0.99994,0.99994 1,1 0 0 1 -0.99994,-0.99994 1,1 0 0 1 0.99994,-1.00046 1,1 0 0 1 0.99994,1.00046 z m -126.05845,22.94899 a 1,1 0 0 1 -0.99994,0.99993 1,1 0 0 1 -0.99994,-0.99993 1,1 0 0 1 0.99994,-1.00046 1,1 0 0 1 0.99994,1.00046 z m -3.50005,-5.99964 v 11.99979 H 426.9388 v -11.99979 z m -23.49986,6.00015 a 1,1 0 0 1 -0.99994,0.99994 1,1 0 0 1 -0.99993,-0.99994 1,1 0 0 1 0.99993,-1.00045 1,1 0 0 1 0.99994,1.00045 z" />
    <path
       id="path7"
       style="fill:none;fill-opacity:0.149038;stroke:#ff0000;stroke-width:0.2;stroke-linecap:round;stroke-linejoin:round;stroke-dasharray:none;stroke-opacity:1"
       d="m 616.2614,357.52809 c 0,0.055 0.0452,0.0997 0.10025,0.0997 h 2.90009 v 5.8999 c 0,0.055 0.0447,0.10025 0.0997,0.10025 h 9.90017 v 2.90008 c 0,0.055 0.0447,0.0997 0.0997,0.0997 h 6.00015 c 0.055,0 0.0997,-0.0447 0.0997,-0.0997 v -2.90008 h 5.80016 v 2.90008 c 0,0.055 0.0453,0.0997 0.10025,0.0997 h 5.99964 c 0.055,0 0.10024,-0.0447 0.10024,-0.0997 v -2.90008 h 5.80016 v 2.90008 c 0,0.055 0.0447,0.0997 0.0997,0.0997 h 6.00015 c 0.055,0 0.0997,-0.0447 0.0997,-0.0997 v -2.90008 h 5.80016 v 2.90008 c 0,0.055 0.0447,0.0997 0.0997,0.0997 h 6.00015 c 0.055,0 0.10026,-0.0447 0.10026,-0.0997 v -2.90008 h 5.79964 v 2.90008 c 0,0.055 0.0452,0.0997 0.10025,0.0997 h 6.00015 c 0.055,0 0.0997,-0.0447 0.0997,-0.0997 v -2.90008 h 9.90018 c 0.055,0 0.0997,-0.0453 0.0997,-0.10025 v -5.8999 h 2.90008 c 0.055,0 0.10025,-0.0447 0.10025,-0.0997 v -6.00015 c 0,-0.055 -0.0453,-0.0997 -0.10025,-0.0997 h -2.90008 v -5.80016 h 2.90008 c 0.055,0 0.10025,-0.0453 0.10025,-0.10025 v -5.99964 c 0,-0.055 -0.0453,-0.10025 -0.10025,-0.10025 h -2.90008 v -5.80016 h 2.90008 c 0.055,0 0.10025,-0.0447 0.10025,-0.0997 v -6.00015 c 0,-0.055 -0.0453,-0.0997 -0.10025,-0.0997 h -2.90008 v -5.80016 h 2.90008 c 0.055,0 0.10025,-0.0447 0.10025,-0.0997 v -6.00015 c 0,-0.055 -0.0453,-0.10026 -0.10025,-0.10026 h -2.90008 v -5.79964 h 2.90008 c 0.055,0 0.10025,-0.0453 0.10025,-0.10025 v -6.00016 c 0,-0.055 -0.0453,-0.0997 -0.10025,-0.0997 h -2.90008 v -5.80016 h 2.90008 c 0.055,0 0.10025,-0.0447 0.10025,-0.0997 v -6.00015 c 0,-0.055 -0.0453,-0.10025 -0.10025,-0.10025 h -2.90008 v -5.79965 h 2.90008 c 0.055,0 0.10025,-0.0453 0.10025,-0.10025 v -5.99963 c 0,-0.055 -0.0453,-0.10026 -0.10025,-0.10026 h -2.90008 V 273.628 h 2.90008 c 0.055,0 0.10025,-0.0447 0.10025,-0.0997 v -6.00016 c 0,-0.055 -0.0453,-0.0997 -0.10025,-0.0997 h -2.90008 v -5.80016 h 2.90008 c 0.055,0 0.10025,-0.0453 0.10025,-0.10026 v -5.99963 c 0,-0.055 -0.0453,-0.10025 -0.10025,-0.10025 h -2.90008 v -5.79965 h 2.90008 c 0.055,0 0.10025,-0.0453 0.10025,-0.10025 v -6.00015 c 0,-0.055 -0.0453,-0.0997 -0.10025,-0.0997 h -2.90008 v -5.80016 h 2.90008 c 0.055,0 0.10025,-0.0447 0.10025,-0.0997 v -6.00015 c 0,-0.055 -0.0453,-0.10026 -0.10025,-0.10026 h -2.90008 v -5.79964 h 2.90008 c 0.055,0 0.10025,-0.0453 0.10025,-0.10026 v -6.00015 c 0,-0.055 -0.0453,-0.0997 -0.10025,-0.0997 h -2.90008 v -5.80016 h 2.90008 c 0.055,0 0.10025,-0.0447 0.10025,-0.0997 v -6.00015 c 0,-0.055 -0.0453,-0.0997 -0.10025,-0.0997 h -2.90008 v -5.80016 h 2.90008 c 0.055,0 0.10025,-0.0453 0.10025,-0.10025 v -5.99963 c 0,-0.055 -0.0453,-0.10026 -0.10025,-0.10026 h -2.90008 v -5.8999 c 0,-0.055 -0.0447,-0.10025 -0.0997,-0.10025 h -9.90018 v -2.89956 c 0,-0.055 -0.0447,-0.10025 -0.0997,-0.10025 h -6.00015 c -0.055,0 -0.10025,0.0452 -0.10025,0.10025 v 2.89956 h -5.79964 v -2.89956 c 0,-0.055 -0.0453,-0.10025 -0.10026,-0.10025 h -6.00015 c -0.055,0 -0.0997,0.0452 -0.0997,0.10025 v 2.89956 h -5.80016 v -2.89956 c 0,-0.055 -0.0447,-0.10025 -0.0997,-0.10025 h -6.00015 c -0.055,0 -0.0997,0.0452 -0.0997,0.10025 v 2.89956 h -5.80016 v -2.89956 c 0,-0.055 -0.0453,-0.10025 -0.10024,-0.10025 h -5.99964 c -0.055,0 -0.10025,0.0452 -0.10025,0.10025 v 2.89956 h -5.80016 v -2.89956 c 0,-0.055 -0.0447,-0.10025 -0.0997,-0.10025 h -6.00015 c -0.055,0 -0.0997,0.0452 -0.0997,0.10025 v 2.89956 h -9.90017 c -0.055,0 -0.0997,0.0453 -0.0997,0.10025 v 5.8999 h -2.90009 c -0.055,0 -0.10025,0.0453 -0.10025,0.10026 v 5.99963 c 0,0.055 0.0452,0.10025 0.10025,0.10025 h 2.90009 v 5.80016 h -2.90009 c -0.055,0 -0.10025,0.0447 -0.10025,0.0997 v 6.00015 c 0,0.055 0.0452,0.0997 0.10025,0.0997 h 2.90009 v 5.80016 h -2.90009 c -0.055,0 -0.10025,0.0447 -0.10025,0.0997 v 6.00015 c 0,0.055 0.0452,0.10026 0.10025,0.10026 h 2.90009 v 5.79964 h -2.90009 c -0.055,0 -0.10025,0.0453 -0.10025,0.10026 v 6.00015 c 0,0.055 0.0452,0.0997 0.10025,0.0997 h 2.90009 v 5.80016 h -2.90009 c -0.055,0 -0.10025,0.0447 -0.10025,0.0997 v 5.99987 c 0,0.055 0.0452,0.10025 0.10025,0.10025 h 2.90009 v 5.79965 h -2.90009 c -0.055,0 -0.10025,0.0453 -0.10025,0.10025 v 5.99963 c 0,0.055 0.0452,0.10026 0.10025,0.10026 h 2.90009 v 5.80016 h -2.90009 c -0.055,0 -0.10025,0.0447 -0.10025,0.0997 v 6.00016 c 0,0.055 0.0452,0.0997 0.10025,0.0997 h 2.90009 v 5.80016 h -2.90009 c -0.055,0 -0.10025,0.0453 -0.10025,0.10026 v 5.99963 c 0,0.055 0.0452,0.10025 0.10025,0.10025 h 2.90009 v 5.79965 h -2.90009 c -0.055,0 -0.10025,0.0453 -0.10025,0.10025 v 6.00015 c 0,0.055 0.0452,0.0997 0.10025,0.0997 h 2.90009 v 5.80016 h -2.90009 c -0.055,0 -0.10025,0.0447 -0.10025,0.0997 v 6.00016 c 0,0.055 0.0452,0.10025 0.10025,0.10025 h 2.90009 v 5.79964 h -2.90009 c -0.055,0 -0.10025,0.0453 -0.10025,0.10026 v 6.00015 c 0,0.055 0.0452,0.0997 0.10025,0.0997 h 2.90009 v 5.80016 h -2.90009 c -0.055,0 -0.10025,0.0447 -0.10025,0.0997 v 6.00015 c 0,0.055 0.0452,0.0997 0.10025,0.0997 h 2.90009 v 5.80016 h -2.90009 c -0.055,0 -0.10025,0.0453 -0.10025,0.10025 v 5.99964 c 0,0.055 0.0452,0.10025 0.10025,0.10025 h 2.90009 v 5.80016 h -2.90009 c -0.055,0 -0.10025,0.0447 -0.10025,0.0997 z m 5.00021,-66.00011 v -30.00024 h 2.99982 v 30.00024 z" />
    <path
       id="path4-1"
       style="fill:none;fill-opacity:0.149038;stroke:#ff0000;stroke-width:0.2;stroke-linecap:round;stroke-linejoin:round;stroke-dasharray:none;stroke-opacity:1"
       d="m 412.20998,188.78018 c 0,-0.055 -0.0447,-0.0997 -0.0997,-0.0997 h -3.00034 -9.89965 v -2.90008 c 0,-0.055 -0.0453,-0.0997 -0.10025,-0.0997 h -6.00015 c -0.055,0 -0.0997,0.0447 -0.0997,0.0997 v 2.90008 h -5.80016 v -2.90008 c 0,-0.055 -0.0447,-0.0997 -0.0997,-0.0997 h -6.00015 c -0.055,0 -0.10025,0.0447 -0.10025,0.0997 v 2.90008 h -5.79965 v -2.90008 c 0,-0.055 -0.0453,-0.0997 -0.10025,-0.0997 h -5.99963 c -0.055,0 -0.10025,0.0447 -0.10025,0.0997 v 2.90008 h -5.80017 v -2.90008 c 0,-0.055 -0.0447,-0.0997 -0.0997,-0.0997 h -6.00015 c -0.055,0 -0.0997,0.0447 -0.0997,0.0997 v 2.90008 h -5.80016 v -2.90008 c 0,-0.055 -0.0452,-0.0997 -0.10025,-0.0997 h -5.99964 c -0.055,0 -0.10025,0.0447 -0.10025,0.0997 v 2.90008 h -5.80016 v -2.90008 c 0,-0.055 -0.0447,-0.0997 -0.0997,-0.0997 h -6.00015 c -0.055,0 -0.0997,0.0447 -0.0997,0.0997 v 2.90008 h -5.80017 v -2.90008 c 0,-0.055 -0.0447,-0.0997 -0.0997,-0.0997 h -6.00015 c -0.055,0 -0.10025,0.0447 -0.10025,0.0997 v 2.90008 h -5.79965 v -2.90008 c 0,-0.055 -0.0453,-0.0997 -0.10025,-0.0997 h -6.00015 c -0.055,0 -0.0997,0.0447 -0.0997,0.0997 v 2.90008 h -5.80016 v -2.90008 c 0,-0.055 -0.0447,-0.0997 -0.0997,-0.0997 h -6.00015 c -0.055,0 -0.0997,0.0447 -0.0997,0.0997 v 2.90008 h -5.80017 v -2.90008 c 0,-0.055 -0.0453,-0.0997 -0.10025,-0.0997 h -5.99963 c -0.055,0 -0.10025,0.0447 -0.10025,0.0997 v 2.90008 h -5.80017 v -2.90008 c 0,-0.055 -0.0447,-0.0997 -0.0997,-0.0997 h -6.00015 c -0.055,0 -0.0997,0.0447 -0.0997,0.0997 v 2.90008 h -5.80016 v -2.90008 c 0,-0.055 -0.0453,-0.0997 -0.10025,-0.0997 h -5.99964 c -0.055,0 -0.10025,0.0447 -0.10025,0.0997 v 2.90008 h -5.79965 v -2.90008 c 0,-0.055 -0.0453,-0.0997 -0.10025,-0.0997 h -6.00015 c -0.055,0 -0.0997,0.0447 -0.0997,0.0997 v 2.90008 h -5.80017 v -2.90008 c 0,-0.055 -0.0447,-0.0997 -0.0997,-0.0997 h -6.00015 c -0.055,0 -0.10026,0.0447 -0.10026,0.0997 v 2.90008 h -5.79964 v -2.90008 c 0,-0.055 -0.0452,-0.0997 -0.10025,-0.0997 h -5.99964 c -0.055,0 -0.10025,0.0447 -0.10025,0.0997 v 2.90008 h -9.90017 -2.99982 c -0.055,0 -0.10025,0.0447 -0.10025,0.0997 v 10.00042 c 0,0.055 0.0453,0.0997 0.10025,0.0997 h 2.90008 v 5.80017 h -2.90008 c -0.055,0 -0.10025,0.0447 -0.10025,0.0997 v 6.00015 c 0,0.055 0.0453,0.10026 0.10025,0.10026 h 2.90008 v 5.79964 h -2.90008 c -0.055,0 -0.10025,0.0453 -0.10025,0.10025 v 5.99964 c 0,0.055 0.0453,0.10025 0.10025,0.10025 h 2.90008 v 5.80016 h -2.90008 c -0.055,0 -0.10025,0.0447 -0.10025,0.0997 v 6.00015 c 0,0.055 0.0453,0.0997 0.10025,0.0997 h 2.90008 v 5.80017 h -2.90008 c -0.055,0 -0.10025,0.0453 -0.10025,0.10025 v 5.99963 c 0,0.055 0.0453,0.10026 0.10025,0.10026 h 2.90008 v 5.79964 h -2.90008 c -0.055,0 -0.10025,0.0453 -0.10025,0.10025 v 9.99991 c 0,0.055 0.0453,0.10025 0.10025,0.10025 h 2.99982 9.90017 v 2.90008 c 0,0.055 0.0453,0.0997 0.10025,0.0997 h 5.99964 c 0.055,0 0.10025,-0.0447 0.10025,-0.0997 v -2.90008 h 5.79964 v 2.90008 c 0,0.055 0.0453,0.0997 0.10026,0.0997 h 6.00015 c 0.055,0 0.0997,-0.0447 0.0997,-0.0997 v -2.90008 h 5.80017 v 2.90008 c 0,0.055 0.0447,0.0997 0.0997,0.0997 h 6.00015 c 0.055,0 0.10025,-0.0447 0.10025,-0.0997 v -2.90008 h 5.79965 v 2.90008 c 0,0.055 0.0453,0.0997 0.10025,0.0997 h 5.99964 c 0.055,0 0.10025,-0.0447 0.10025,-0.0997 v -2.90008 h 5.80016 v 2.90008 c 0,0.055 0.0447,0.0997 0.0997,0.0997 h 6.00015 c 0.055,0 0.0997,-0.0447 0.0997,-0.0997 v -2.90008 h 5.80017 v 2.90008 c 0,0.055 0.0453,0.0997 0.10025,0.0997 h 5.99963 c 0.055,0 0.10025,-0.0447 0.10025,-0.0997 v -2.90008 h 5.80017 v 2.90008 c 0,0.055 0.0447,0.0997 0.0997,0.0997 h 6.00015 c 0.055,0 0.0997,-0.0447 0.0997,-0.0997 v -2.90008 h 5.80016 v 2.90008 c 0,0.055 0.0447,0.0997 0.0997,0.0997 h 6.00015 c 0.055,0 0.10025,-0.0447 0.10025,-0.0997 v -2.90008 h 5.79965 v 2.90008 c 0,0.055 0.0453,0.0997 0.10025,0.0997 h 6.00015 c 0.055,0 0.0997,-0.0447 0.0997,-0.0997 v -2.90008 h 5.80017 v 2.90008 c 0,0.055 0.0447,0.0997 0.0997,0.0997 h 6.00015 c 0.055,0 0.0997,-0.0447 0.0997,-0.0997 v -2.90008 h 5.80016 v 2.90008 c 0,0.055 0.0453,0.0997 0.10025,0.0997 h 5.99964 c 0.055,0 0.10025,-0.0447 0.10025,-0.0997 v -2.90008 h 5.80016 v 2.90008 c 0,0.055 0.0447,0.0997 0.0997,0.0997 h 6.00015 c 0.055,0 0.0997,-0.0447 0.0997,-0.0997 v -2.90008 h 5.80017 v 2.90008 c 0,0.055 0.0453,0.0997 0.10025,0.0997 h 5.99963 c 0.055,0 0.10025,-0.0447 0.10025,-0.0997 v -2.90008 h 5.79965 v 2.90008 c 0,0.055 0.0453,0.0997 0.10025,0.0997 h 6.00015 c 0.055,0 0.0997,-0.0447 0.0997,-0.0997 v -2.90008 h 5.80016 v 2.90008 c 0,0.055 0.0447,0.0997 0.0997,0.0997 h 6.00015 c 0.055,0 0.10025,-0.0447 0.10025,-0.0997 v -2.90008 h 9.89965 3.00034 c 0.055,0 0.0997,-0.0453 0.0997,-0.10025 v -9.99991 c 0,-0.055 -0.0447,-0.10025 -0.0997,-0.10025 h -2.90008 v -5.79964 h 2.90008 c 0.055,0 0.0997,-0.0453 0.0997,-0.10026 v -5.99963 c 0,-0.055 -0.0447,-0.10025 -0.0997,-0.10025 h -2.90008 v -5.80017 h 2.90008 c 0.055,0 0.0997,-0.0447 0.0997,-0.0997 v -6.00015 c 0,-0.055 -0.0447,-0.0997 -0.0997,-0.0997 h -2.90008 v -5.80016 h 2.90008 c 0.055,0 0.0997,-0.0453 0.0997,-0.10025 v -5.99964 c 0,-0.055 -0.0447,-0.10025 -0.0997,-0.10025 h -2.90008 v -5.79964 h 2.90008 c 0.055,0 0.0997,-0.0453 0.0997,-0.10026 v -6.00015 c 0,-0.055 -0.0447,-0.0997 -0.0997,-0.0997 h -2.90008 v -5.80017 h 2.90008 c 0.055,0 0.0997,-0.0447 0.0997,-0.0997 z m -161.55861,59.94983 a 1,1 0 0 1 -0.99994,0.99993 1,1 0 0 1 -0.99994,-0.99993 1,1 0 0 1 0.99994,-1.00046 1,1 0 0 1 0.99994,1.00046 z m -3.50005,-5.99964 v 11.99979 h -21.99969 v -11.99979 z m -23.49985,6.00015 a 1,1 0 0 1 -0.99994,0.99994 1,1 0 0 1 -0.99994,-0.99994 1,1 0 0 1 0.99994,-1.00045 1,1 0 0 1 0.99994,1.00045 z" />
    <path
       id="path6"
       style="fill:none;fill-opacity:0.149038;stroke:#ff0000;stroke-width:0.2;stroke-linecap:round;stroke-linejoin:round;stroke-dasharray:none;stroke-opacity:1"
       d="m 696.46138,13.540745 c 0,-0.055 -0.0452,-0.09974 -0.10025,-0.09974 h -2.90009 V 7.5411115 c 0,-0.055 -0.0447,-0.100253 -0.0997,-0.100253 h -9.90017 v -2.900081 c 0,-0.055 -0.0447,-0.09973 -0.0997,-0.09973 h -6.00015 c -0.055,0 -0.0997,0.04473 -0.0997,0.09973 v 2.900081 h -5.80016 v -2.900081 c 0,-0.055 -0.0453,-0.09973 -0.10025,-0.09973 h -5.99964 c -0.055,0 -0.10025,0.04473 -0.10025,0.09973 v 2.900081 h -5.80016 v -2.900081 c 0,-0.055 -0.0447,-0.09973 -0.0997,-0.09973 h -6.00015 c -0.055,0 -0.0997,0.04473 -0.0997,0.09973 v 2.900081 h -5.80016 v -2.900081 c 0,-0.055 -0.0447,-0.09973 -0.0997,-0.09973 h -6.00015 c -0.055,0 -0.10026,0.04473 -0.10026,0.09973 v 2.900081 h -5.79964 v -2.900081 c 0,-0.055 -0.0452,-0.09973 -0.10025,-0.09973 h -6.00015 c -0.055,0 -0.0997,0.04473 -0.0997,0.09973 v 2.900081 h -9.90018 c -0.055,0 -0.0997,0.04525 -0.0997,0.100253 v 5.8998975 h -2.90008 c -0.055,0 -0.10025,0.04474 -0.10025,0.09974 V 19.5409 c 0,0.055 0.0453,0.100252 0.10025,0.100252 h 2.90008 v 5.799646 h -2.90008 c -0.055,0 -0.10025,0.04525 -0.10025,0.100252 v 5.999633 c 0,0.055 0.0453,0.100253 0.10025,0.100253 h 2.90008 v 5.800162 h -2.90008 c -0.055,0 -0.10025,0.04474 -0.10025,0.09974 v 6.000151 c 0,0.055 0.0453,0.09974 0.10025,0.09974 h 2.90008 v 5.800162 h -2.90008 c -0.055,0 -0.10025,0.04525 -0.10025,0.100252 v 5.999634 c 0,0.055 0.0453,0.100253 0.10025,0.100253 h 2.90008 v 5.799645 h -2.90008 c -0.055,0 -0.10025,0.04525 -0.10025,0.100253 v 6.00015 c 0,0.055 0.0453,0.09974 0.10025,0.09974 h 2.90008 v 5.800162 h -2.90008 c -0.055,0 -0.10025,0.04474 -0.10025,0.09974 v 6.000151 c 0,0.055 0.0453,0.100252 0.10025,0.100252 h 2.90008 v 5.799646 h -2.90008 c -0.055,0 -0.10025,0.04525 -0.10025,0.100253 v 5.999628 c 0,0.055 0.0453,0.100259 0.10025,0.100259 h 2.90008 v 5.800161 h -2.90008 c -0.055,0 -0.10025,0.0447 -0.10025,0.0997 v 6.00015 c 0,0.055 0.0453,0.0997 0.10025,0.0997 h 2.90008 v 5.80016 h -2.90008 c -0.055,0 -0.10025,0.0453 -0.10025,0.10026 v 5.99963 c 0,0.055 0.0453,0.10025 0.10025,0.10025 h 2.90008 v 5.80016 h -2.90008 c -0.055,0 -0.10025,0.0447 -0.10025,0.0997 v 6.00015 c 0,0.055 0.0453,0.0997 0.10025,0.0997 h 2.90008 v 5.80016 h -2.90008 c -0.055,0 -0.10025,0.0447 -0.10025,0.0997 v 6.00015 c 0,0.055 0.0453,0.10026 0.10025,0.10026 h 2.90008 v 5.79964 h -2.90008 c -0.055,0 -0.10025,0.0453 -0.10025,0.10026 v 6.00015 c 0,0.055 0.0453,0.0997 0.10025,0.0997 h 2.90008 v 5.80016 h -2.90008 c -0.055,0 -0.10025,0.0447 -0.10025,0.0997 v 6.00038 c 0,0.055 0.0453,0.10025 0.10025,0.10025 h 2.90008 v 5.79965 h -2.90008 c -0.055,0 -0.10025,0.0452 -0.10025,0.10025 v 5.99963 c 0,0.055 0.0453,0.10026 0.10025,0.10026 h 2.90008 v 5.89989 c 0,0.055 0.0447,0.10026 0.0997,0.10026 h 9.90018 v 2.89956 c 0,0.055 0.0447,0.10025 0.0997,0.10025 h 6.00015 c 0.055,0 0.10025,-0.0453 0.10025,-0.10025 v -2.89956 h 5.79964 v 2.89956 c 0,0.055 0.0453,0.10025 0.10026,0.10025 h 6.00015 c 0.055,0 0.0997,-0.0453 0.0997,-0.10025 v -2.89956 h 5.80016 v 2.89956 c 0,0.055 0.0447,0.10025 0.0997,0.10025 h 6.00015 c 0.055,0 0.0997,-0.0453 0.0997,-0.10025 v -2.89956 h 5.80016 v 2.89956 c 0,0.055 0.0453,0.10025 0.10025,0.10025 h 5.99964 c 0.055,0 0.10025,-0.0453 0.10025,-0.10025 v -2.89956 h 5.80016 v 2.89956 c 0,0.055 0.0447,0.10025 0.0997,0.10025 h 6.00015 c 0.055,0 0.0997,-0.0453 0.0997,-0.10025 v -2.89956 h 9.90017 c 0.055,0 0.0997,-0.0453 0.0997,-0.10026 v -5.89989 h 2.90009 c 0.055,0 0.10025,-0.0453 0.10025,-0.10026 v -5.99963 c 0,-0.055 -0.0452,-0.10025 -0.10025,-0.10025 h -2.90009 v -5.79965 h 2.90009 c 0.055,0 0.10025,-0.0453 0.10025,-0.10025 v -6.00015 c 0,-0.055 -0.0452,-0.0997 -0.10025,-0.0997 h -2.90009 v -5.80016 h 2.90009 c 0.055,0 0.10025,-0.0447 0.10025,-0.0997 v -6.00015 c 0,-0.055 -0.0452,-0.10026 -0.10025,-0.10026 h -2.90009 v -5.79964 h 2.90009 c 0.055,0 0.10025,-0.0453 0.10025,-0.10026 v -6.00015 c 0,-0.055 -0.0452,-0.0997 -0.10025,-0.0997 h -2.90009 v -5.80016 h 2.90009 c 0.055,0 0.10025,-0.0447 0.10025,-0.0997 v -6.00015 c 0,-0.055 -0.0452,-0.0997 -0.10025,-0.0997 h -2.90009 v -5.80016 h 2.90009 c 0.055,0 0.10025,-0.0453 0.10025,-0.10025 v -5.99963 c 0,-0.055 -0.0452,-0.10026 -0.10025,-0.10026 h -2.90009 v -5.80016 h 2.90009 c 0.055,0 0.10025,-0.0447 0.10025,-0.0997 V 97.541 c 0,-0.055 -0.0452,-0.0997 -0.10025,-0.0997 h -2.90009 v -5.80041 h 2.90009 c 0.055,0 0.10025,-0.0453 0.10025,-0.10026 V 85.541 c 0,-0.055 -0.0452,-0.100252 -0.10025,-0.100252 h -2.90009 v -5.799646 h 2.90009 c 0.055,0 0.10025,-0.04525 0.10025,-0.100253 v -6.00015 c 0,-0.055 -0.0452,-0.09974 -0.10025,-0.09974 h -2.90009 v -5.800158 h 2.90009 c 0.055,0 0.10025,-0.04474 0.10025,-0.09974 V 61.54091 c 0,-0.055 -0.0452,-0.100252 -0.10025,-0.100252 h -2.90009 v -5.799646 h 2.90009 c 0.055,0 0.10025,-0.04525 0.10025,-0.100252 v -5.999629 c 0,-0.055 -0.0452,-0.100252 -0.10025,-0.100252 h -2.90009 v -5.800163 h 2.90009 c 0.055,0 0.10025,-0.04474 0.10025,-0.09974 v -6.000151 c 0,-0.055 -0.0452,-0.09974 -0.10025,-0.09974 h -2.90009 v -5.800162 h 2.90009 c 0.055,0 0.10025,-0.04525 0.10025,-0.100253 v -5.999633 c 0,-0.055 -0.0452,-0.100253 -0.10025,-0.100253 h -2.90009 v -5.799646 h 2.90009 c 0.055,0 0.10025,-0.04525 0.10025,-0.100252 z M 671.3611,54.540827 V 134.54111 H 641.36138 V 54.540827 Z" />
    <path
       d="m 211.80294,7.5408915 v 5.9999995 c 0,0.055 0.045,0.1 0.1,0.1 h 2.9 c 0.1,0 0,-0.1 0,0 v 5.800001 c 0,0.1 0.1,0 0,0 h -2.9 c -0.055,0 -0.1,0.045 -0.1,0.1 v 6 c 0,0.055 0.045,0.1 0.1,0.1 h 2.9 c 0.1,0 0,-0.1 0,0 v 5.8 c 0,0.1 0.1,0 0,0 h -2.9 c -0.055,0 -0.1,0.045 -0.1,0.1 v 6 c 0,0.055 0.045,0.1 0.1,0.1 h 2.9 c 0.1,0 0,-0.1 0,0 v 5.8 c 0,0.1 0.1,0 0,0 h -2.9 c -0.055,0 -0.1,0.045 -0.1,0.1 v 6 c 0,0.055 0.045,0.1 0.1,0.1 h 2.9 c 0.1,0 0,-0.1 0,0 v 5.8 c 0,0.1 0.1,0 0,0 h -2.9 c -0.055,0 -0.1,0.045 -0.1,0.1 v 6 c 0,0.055 0.045,0.1 0.1,0.1 h 2.9 c 0.1,0 0,-0.1 0,0 v 5.8 c 0,0.1 0.1,0 0,0 h -2.9 c -0.055,0 -0.1,0.045 -0.1,0.1 v 6 c 0,0.055 0.045,0.1 0.1,0.1 h 2.9 c 0.1,0 0,-0.1 0,0 v 5.8 c 0,0.1 0.1,0 0,0 h -2.9 c -0.055,0 -0.1,0.045 -0.1,0.1 v 6 c 0,0.055 0.045,0.1 0.1,0.1 h 2.9 c 0.1,0 0,-0.1 0,0 v 5.8 c 0,0.1 0.1,0 0,0 h -2.9 c -0.055,0 -0.1,0.045 -0.1,0.1 v 6 c 0,0.055 0.045,0.1 0.1,0.1 h 2.9 c 0.1,0 0,-0.1 0,0 v 5.799998 c 0,0.1 0.1,0 0,0 h -2.9 c -0.055,0 -0.1,0.045 -0.1,0.1 v 6 c 0,0.055 0.045,0.1 0.1,0.1 h 2.9 c 0.1,0 0,-0.1 0,0 v 5.8 c 0,0.1 0.1,0 0,0 h -2.9 c -0.055,0 -0.1,0.045 -0.1,0.1 v 6 c 0,0.055 0.045,0.1 0.1,0.1 h 2.9 c 0.1,0 0,-0.1 0,0 v 5.8 c 0,0.1 0.1,0 0,0 h -2.9 c -0.055,0 -0.1,0.045 -0.1,0.1 v 6 c 0,0.055 0.045,0.1 0.1,0.1 h 2.9 c 0.1,0 0,-0.1 0,0 v 5.8 c 0,0.1 0.1,0 0,0 h -2.9 c -0.055,0 -0.1,0.045 -0.1,0.1 v 6 c 0,0.055 0.045,0.1 0.1,0.1 h 2.9 c 0.1,0 0,-0.1 0,0 v 5.8 c 0,0.1 0.1,0 0,0 h -2.9 c -0.055,0 -0.1,0.045 -0.1,0.1 v 6 c 0,0.055 0.045,0.1 0.1,0.1 h 2.9 c 0.1,0 0,-0.1 0,0 v 5.8 c 0,0.1 0.1,0 0,0 h -2.9 c -0.055,0 -0.1,0.045 -0.1,0.1 v 6 c 0,0.055 0.045,0.1 0.1,0.1 h 2.9 c 0.1,0 0,-0.1 0,0 v 5.8 c 0,0.1 0.1,0 0,0 h -2.9 c -0.055,0 -0.1,0.045 -0.1,0.1 v 6 3 c 0,0.055 0.045,0.1 0.1,0.1 h 3 10 c 0.055,0 0.1,-0.045 0.1,-0.1 v -2.9 c 0,-0.1 -0.1,0 0,0 h 5.8 c 0.1,0 0,-0.1 0,0 v 2.9 c 0,0.055 0.045,0.1 0.1,0.1 h 6 c 0.055,0 0.1,-0.045 0.1,-0.1 v -2.9 c 0,-0.1 -0.1,0 0,0 h 5.8 c 0.1,0 0,-0.1 0,0 v 2.9 c 0,0.055 0.045,0.1 0.1,0.1 h 6 c 0.055,0 0.1,-0.045 0.1,-0.1 v -2.9 c 0,-0.1 -0.1,0 0,0 h 5.8 c 0.1,0 0,-0.1 0,0 v 2.9 c 0,0.055 0.045,0.1 0.1,0.1 h 6 c 0.055,0 0.1,-0.045 0.1,-0.1 v -2.9 c 0,-0.1 -0.1,0 0,0 h 5.8 c 0.1,0 0,-0.1 0,0 v 2.9 c 0,0.055 0.045,0.1 0.1,0.1 h 6 c 0.055,0 0.1,-0.045 0.1,-0.1 v -2.9 c 0,-0.1 -0.1,0 0,0 h 5.8 c 0.1,0 0,-0.1 0,0 v 2.9 c 0,0.055 0.045,0.1 0.1,0.1 h 6 c 0.055,0 0.1,-0.045 0.1,-0.1 v -2.9 c 0,-0.1 -0.1,0 0,0 h 5.8 c 0.1,0 0,-0.1 0,0 v 2.9 c 0,0.055 0.045,0.1 0.1,0.1 h 6 c 0.055,0 0.1,-0.045 0.1,-0.1 v -2.9 c 0,-0.1 -0.1,0 0,0 h 5.8 c 0.1,0 0,-0.1 0,0 v 2.9 c 0,0.055 0.045,0.1 0.1,0.1 h 6 c 0.055,0 0.1,-0.045 0.1,-0.1 v -2.9 c 0,-0.1 -0.1,0 0,0 h 5.8 c 0.1,0 0,-0.1 0,0 v 2.9 c 0,0.055 0.045,0.1 0.1,0.1 h 6 c 0.055,0 0.1,-0.045 0.1,-0.1 v -2.9 c 0,-0.1 -0.1,0 0,0 h 5.8 c 0.1,0 0,-0.1 0,0 v 2.9 c 0,0.055 0.045,0.1 0.1,0.1 h 6 c 0.055,0 0.1,-0.045 0.1,-0.1 v -2.9 c 0,-0.1 -0.1,0 0,0 h 5.8 c 0.1,0 0,-0.1 0,0 v 2.9 c 0,0.055 0.045,0.1 0.1,0.1 h 6 c 0.055,0 0.1,-0.045 0.1,-0.1 v -2.9 c 0,-0.1 -0.1,0 0,0 h 5.8 c 0.1,0 0,-0.1 0,0 v 2.9 c 0,0.055 0.045,0.1 0.1,0.1 h 6 c 0.055,0 0.1,-0.045 0.1,-0.1 v -2.9 c 0,-0.1 -0.1,0 0,0 h 5.8 c 0.1,0 0,-0.1 0,0 v 2.9 c 0,0.055 0.045,0.1 0.1,0.1 h 6 c 0.055,0 0.1,-0.045 0.1,-0.1 v -2.9 c 0,-0.1 -0.1,0 0,0 h 5.8 c 0.1,0 0,-0.1 0,0 v 2.9 c 0,0.055 0.045,0.1 0.1,0.1 h 6 c 0.055,0 0.1,-0.045 0.1,-0.1 v -2.9 c 0,-0.1 -0.1,0 0,0 h 5.8 c 0.1,0 0,-0.1 0,0 v 2.9 c 0,0.055 0.045,0.1 0.1,0.1 h 6 c 0.055,0 0.1,-0.045 0.1,-0.1 v -2.9 c 0,-0.1 -0.1,0 0,0 h 5.8 c 0.1,0 0,-0.1 0,0 v 2.9 c 0,0.055 0.045,0.1 0.1,0.1 h 10 3 c 0.055,0 0.1,-0.045 0.1,-0.1 v -3 -6 c 0,-0.055 -0.045,-0.1 -0.1,-0.1 h -2.9 c -0.1,0 0,0.1 0,0 v -5.8 c 0,-0.1 -0.1,0 0,0 h 2.9 c 0.055,0 0.1,-0.045 0.1,-0.1 v -6 c 0,-0.055 -0.045,-0.1 -0.1,-0.1 h -2.9 c -0.1,0 0,0.1 0,0 v -5.8 c 0,-0.1 -0.1,0 0,0 h 2.9 c 0.055,0 0.1,-0.045 0.1,-0.1 v -6 c 0,-0.055 -0.045,-0.1 -0.1,-0.1 h -2.9 c -0.1,0 0,0.1 0,0 v -5.8 c 0,-0.1 -0.1,0 0,0 h 2.9 c 0.055,0 0.1,-0.045 0.1,-0.1 v -6 c 0,-0.055 -0.045,-0.1 -0.1,-0.1 h -2.9 c -0.1,0 0,0.1 0,0 v -5.8 c 0,-0.1 -0.1,0 0,0 h 2.9 c 0.055,0 0.1,-0.045 0.1,-0.1 v -6 c 0,-0.055 -0.045,-0.1 -0.1,-0.1 h -2.9 c -0.1,0 0,0.1 0,0 v -5.8 c 0,-0.1 -0.1,0 0,0 h 2.9 c 0.055,0 0.1,-0.045 0.1,-0.1 v -6 c 0,-0.055 -0.045,-0.1 -0.1,-0.1 h -2.9 c -0.1,0 0,0.1 0,0 v -5.8 c 0,-0.1 -0.1,0 0,0 h 2.9 c 0.055,0 0.1,-0.045 0.1,-0.1 v -6 c 0,-0.055 -0.045,-0.1 -0.1,-0.1 h -2.9 c -0.1,0 0,0.1 0,0 v -5.799998 c 0,-0.1 -0.1,0 0,0 h 2.9 c 0.055,0 0.1,-0.045 0.1,-0.1 v -6 c 0,-0.055 -0.045,-0.1 -0.1,-0.1 h -2.9 c -0.1,0 0,0.1 0,0 v -5.8 c 0,-0.1 -0.1,0 0,0 h 2.9 c 0.055,0 0.1,-0.045 0.1,-0.1 v -6 c 0,-0.055 -0.045,-0.1 -0.1,-0.1 h -2.9 c -0.1,0 0,0.1 0,0 v -5.8 c 0,-0.1 -0.1,0 0,0 h 2.9 c 0.055,0 0.1,-0.045 0.1,-0.1 v -6 c 0,-0.055 -0.045,-0.1 -0.1,-0.1 h -2.9 c -0.1,0 0,0.1 0,0 v -5.8 c 0,-0.1 -0.1,0 0,0 h 2.9 c 0.055,0 0.1,-0.045 0.1,-0.1 v -6 c 0,-0.055 -0.045,-0.1 -0.1,-0.1 h -2.9 c -0.1,0 0,0.1 0,0 v -5.8 c 0,-0.1 -0.1,0 0,0 h 2.9 c 0.055,0 0.1,-0.045 0.1,-0.1 v -6 c 0,-0.055 -0.045,-0.1 -0.1,-0.1 h -2.9 c -0.1,0 0,0.1 0,0 v -5.8 c 0,-0.1 -0.1,0 0,0 h 2.9 c 0.055,0 0.1,-0.045 0.1,-0.1 v -6 c 0,-0.055 -0.045,-0.1 -0.1,-0.1 h -2.9 c -0.1,0 0,0.1 0,0 v -5.8 c 0,-0.1 -0.1,0 0,0 h 2.9 c 0.055,0 0.1,-0.045 0.1,-0.1 v -6 c 0,-0.055 -0.045,-0.1 -0.1,-0.1 h -2.9 c -0.1,0 0,0.1 0,0 v -5.800001 c 0,-0.1 -0.1,0 0,0 h 2.9 c 0.055,0 0.1,-0.045 0.1,-0.1 v -5.9999995 -3 c 0,-0.055 -0.045,-0.1 -0.1,-0.1 h -3 -10 c -0.055,0 -0.1,0.045 -0.1,0.1 v 2.9 c 0,0.1 0.1,0 0,0 h -5.8 c -0.1,0 0,0.1 0,0 v -2.9 c 0,-0.055 -0.045,-0.1 -0.1,-0.1 h -6 c -0.055,0 -0.1,0.045 -0.1,0.1 v 2.9 c 0,0.1 0.1,0 0,0 h -5.8 c -0.1,0 0,0.1 0,0 v -2.9 c 0,-0.055 -0.045,-0.1 -0.1,-0.1 h -6 c -0.055,0 -0.1,0.045 -0.1,0.1 v 2.9 c 0,0.1 0.1,0 0,0 h -5.8 c -0.1,0 0,0.1 0,0 v -2.9 c 0,-0.055 -0.045,-0.1 -0.1,-0.1 h -6 c -0.055,0 -0.1,0.045 -0.1,0.1 v 2.9 c 0,0.1 0.1,0 0,0 h -5.8 c -0.1,0 0,0.1 0,0 v -2.9 c 0,-0.055 -0.045,-0.1 -0.1,-0.1 h -6 c -0.055,0 -0.1,0.045 -0.1,0.1 v 2.9 c 0,0.1 0.1,0 0,0 h -5.8 c -0.1,0 0,0.1 0,0 v -2.9 c 0,-0.055 -0.045,-0.1 -0.1,-0.1 h -6 c -0.055,0 -0.1,0.045 -0.1,0.1 v 2.9 c 0,0.1 0.1,0 0,0 h -5.8 c -0.1,0 0,0.1 0,0 v -2.9 c 0,-0.055 -0.045,-0.1 -0.1,-0.1 h -6 c -0.055,0 -0.1,0.045 -0.1,0.1 v 2.9 c 0,0.1 0.1,0 0,0 h -5.8 c -0.1,0 0,0.1 0,0 v -2.9 c 0,-0.055 -0.045,-0.1 -0.1,-0.1 h -6 c -0.055,0 -0.1,0.045 -0.1,0.1 v 2.9 c 0,0.1 0.1,0 0,0 h -5.8 c -0.1,0 0,0.1 0,0 v -2.9 c 0,-0.055 -0.045,-0.1 -0.1,-0.1 h -6 c -0.055,0 -0.1,0.045 -0.1,0.1 v 2.9 c 0,0.1 0.1,0 0,0 h -5.8 c -0.1,0 0,0.1 0,0 v -2.9 c 0,-0.055 -0.045,-0.1 -0.1,-0.1 h -6 c -0.055,0 -0.1,0.045 -0.1,0.1 v 2.9 c 0,0.1 0.1,0 0,0 h -5.8 c -0.1,0 0,0.1 0,0 v -2.9 c 0,-0.055 -0.045,-0.1 -0.1,-0.1 h -6 c -0.055,0 -0.1,0.045 -0.1,0.1 v 2.9 c 0,0.1 0.1,0 0,0 h -5.8 c -0.1,0 0,0.1 0,0 v -2.9 c 0,-0.055 -0.045,-0.1 -0.1,-0.1 h -6 c -0.055,0 -0.1,0.045 -0.1,0.1 v 2.9 c 0,0.1 0.1,0 0,0 h -5.8 c -0.1,0 0,0.1 0,0 v -2.9 c 0,-0.055 -0.045,-0.1 -0.1,-0.1 h -6 c -0.055,0 -0.1,0.045 -0.1,0.1 v 2.9 c 0,0.1 0.1,0 0,0 h -5.8 c -0.1,0 0,0.1 0,0 v -2.9 c 0,-0.055 -0.045,-0.1 -0.1,-0.1 h -6 c -0.055,0 -0.1,0.045 -0.1,0.1 v 2.9 c 0,0.1 0.1,0 0,0 h -5.8 c -0.1,0 0,0.1 0,0 v -2.9 c 0,-0.055 -0.045,-0.1 -0.1,-0.1 h -6 c -0.055,0 -0.1,0.045 -0.1,0.1 v 2.9 c 0,0.1 0.1,0 0,0 h -5.8 c -0.1,0 0,0.1 0,0 v -2.9 c 0,-0.055 -0.045,-0.1 -0.1,-0.1 h -10 -3 c -0.055,0 -0.1,0.045 -0.1,0.1 v 3"
       stroke="#000000"
       stroke-width="0.2"
       id="path2"
       style="fill:none;fill-opacity:0.149038;stroke:#ff0000;stroke-width:0.2;stroke-linecap:round;stroke-linejoin:round;stroke-dasharray:none;stroke-opacity:1" />
    <path
       id="path5"
       style="fill:none;fill-opacity:0.149038;stroke:#ff0000;stroke-width:0.2;stroke-linecap:round;stroke-linejoin:round;stroke-dasharray:none;stroke-opacity:1"
       d="m 614.46276,4.9030295 c 0,-0.055 -0.0448,-0.100252 -0.0997,-0.100252 h -2.99982 -10.00042 c -0.055,0 -0.0997,0.04525 -0.0997,0.100252 v 2.899564 h -5.80016 v -2.899564 c 0,-0.055 -0.0447,-0.100252 -0.0997,-0.100252 h -6.00016 c -0.055,0 -0.10025,0.04525 -0.10025,0.100252 v 2.899564 h -5.79964 v -2.899564 c -6e-5,-0.055 -0.0452,-0.100252 -0.10026,-0.100252 h -5.99963 c -0.055,0 -0.10025,0.04525 -0.10025,0.100252 v 2.899564 h -5.80016 v -2.899564 c 0,-0.055 -0.0447,-0.100252 -0.0997,-0.100252 h -6.00015 c -0.055,0 -0.0997,0.04525 -0.0997,0.100252 v 2.899564 h -5.80016 v -2.899564 c -7e-5,-0.055 -0.0452,-0.100252 -0.10025,-0.100252 h -5.99964 c -0.055,0 -0.10025,0.04525 -0.10025,0.100252 v 2.899564 h -5.79964 v -2.899564 c 0,-0.055 -0.0453,-0.100252 -0.10026,-0.100252 h -6.00015 c -0.055,0 -0.0997,0.04525 -0.0997,0.100252 v 2.899564 h -5.80016 v -2.899564 c -4e-5,-0.055 -0.0447,-0.100252 -0.0997,-0.100252 h -6.00015 c -0.055,0 -0.10025,0.04525 -0.10025,0.100252 v 2.899564 h -5.79965 v -2.899564 c 0,-0.055 -0.0453,-0.100252 -0.10025,-0.100252 h -5.99964 c -0.055,0 -0.10025,0.04525 -0.10025,0.100252 v 2.899564 h -5.80016 v -2.899564 c 0,-0.055 -0.0447,-0.100252 -0.0997,-0.100252 h -6.00015 c -0.055,0 -0.0997,0.04525 -0.0997,0.100252 v 2.899564 h -5.80016 v -2.899564 c -7e-5,-0.055 -0.0453,-0.100252 -0.10026,-0.100252 h -5.99967 c -0.055,0 -0.10025,0.04525 -0.10025,0.100252 v 2.899564 h -5.80017 v -2.899564 c 0,-0.055 -0.0447,-0.100252 -0.0997,-0.100252 h -6.00015 c -0.055,0 -0.0997,0.04525 -0.0997,0.100252 v 2.899564 h -5.80016 v -2.899564 c 0,-0.055 -0.0447,-0.100252 -0.0997,-0.100252 h -6.00015 c -0.055,0 -0.10025,0.04525 -0.10025,0.100252 v 2.899564 h -5.79964 v -2.899564 c -9e-5,-0.055 -0.0452,-0.100252 -0.10026,-0.100252 h -6.00015 c -0.055,0 -0.0997,0.04525 -0.0997,0.100252 v 2.899564 h -5.80017 v -2.899564 c -4e-5,-0.055 -0.0447,-0.100252 -0.0997,-0.100252 h -6.00016 c -0.055,0 -0.10025,0.04525 -0.10025,0.100252 v 2.899564 h -5.79965 v -2.899564 c 0,-0.055 -0.0453,-0.100252 -0.10025,-0.100252 h -5.99964 c -0.055,0 -0.10025,0.04525 -0.10025,0.100252 v 2.899564 h -5.80016 v -2.899564 c 0,-0.055 -0.0447,-0.100252 -0.0997,-0.100252 h -9.9999 -3.00034 c -0.055,0 -0.0997,0.04525 -0.0997,0.100252 v 2.999817 6.0001495 c 0,0.055 0.0447,0.09974 0.0997,0.09974 h 2.90009 v 5.800163 h -2.90009 c -0.055,0 -0.0997,0.04473 -0.0997,0.09973 v 6.00015 c 0,0.055 0.0447,0.100252 0.0997,0.100252 h 2.90009 v 5.799646 h -2.90009 c -0.055,0 -0.0997,0.04526 -0.0997,0.100252 v 5.999634 c 0,0.055 0.0447,0.100253 0.0997,0.100253 h 2.90009 v 5.800163 h -2.90009 c -0.055,0 -0.0997,0.04474 -0.0997,0.09974 v 6.000151 c 0,0.055 0.0447,0.09974 0.0997,0.09974 h 2.90009 v 5.800162 h -2.90009 c -0.055,0 -0.0997,0.04525 -0.0997,0.100253 v 5.999632 c 0,0.055 0.0447,0.100254 0.0997,0.100254 h 2.90009 v 5.799646 h -2.90009 c -0.055,0 -0.0997,0.04525 -0.0997,0.100252 v 6.000151 c 0,0.055 0.0447,0.09974 0.0997,0.09974 h 2.90009 v 5.800162 h -2.90009 c -0.055,0 -0.0997,0.04474 -0.0997,0.09973 v 6.000149 c 0,0.055 0.0447,0.100259 0.0997,0.100259 h 2.90009 v 5.799641 h -2.90009 c -0.055,0 -0.0997,0.0452 -0.0997,0.100259 v 6.00015 c 0,0.055 0.0447,0.0997 0.0997,0.0997 h 2.90009 v 5.80016 h -2.90009 c -0.055,0 -0.0997,0.0442 -0.0997,0.0992 v 6.00015 c 0,0.055 0.0447,0.0997 0.0997,0.0997 h 2.90009 v 5.80016 h -2.90009 c -0.055,0 -0.0997,0.0452 -0.0997,0.10025 v 5.99964 c 0,0.055 0.0447,0.10025 0.0997,0.10025 h 2.90009 v 5.80016 h -2.90009 c -0.055,0 -0.0997,0.0447 -0.0997,0.0997 v 6.00015 c 0,0.055 0.0447,0.0997 0.0997,0.0997 h 2.90009 v 5.80017 h -2.90009 c -0.055,0 -0.0997,0.0447 -0.0997,0.0997 v 6.00015 c 0,0.055 0.0447,0.10026 0.0997,0.10026 h 2.90009 v 5.79964 h -2.90009 c -0.055,0 -0.0997,0.0453 -0.0997,0.10025 v 6.00015 c 0,0.055 0.0447,0.0997 0.0997,0.0997 h 2.90009 v 5.80016 h -2.90009 c -0.055,0 -0.0997,0.0447 -0.0997,0.0997 v 6.00015 c 0,0.055 0.0447,0.10025 0.0997,0.10025 h 2.90009 v 5.79965 h -2.90009 c -0.055,0 -0.0997,0.0453 -0.0997,0.10025 v 5.99963 3.00034 c 0,0.055 0.0447,0.0997 0.0997,0.0997 h 3.00034 9.9999 c 0.055,0 0.0997,-0.0447 0.0997,-0.0997 v -2.90008 h 5.80016 v 2.90008 c 0,0.055 0.0453,0.0997 0.10025,0.0997 h 5.99964 c 0.055,0 0.10025,-0.0447 0.10025,-0.0997 v -2.90008 h 5.79965 v 2.90008 c 0,0.055 0.0453,0.0997 0.10025,0.0997 h 6.00015 c 0.055,0 0.0997,-0.0447 0.0997,-0.0997 v -2.90008 h 5.80017 v 2.90008 c 0,0.055 0.0447,0.0997 0.0997,0.0997 h 6.00015 c 0.055,0 0.10026,-0.0447 0.10026,-0.0997 v -2.90008 h 5.79964 v 2.90008 c 0,0.055 0.0453,0.0997 0.10025,0.0997 h 6.00014 c 0.055,0 0.0997,-0.0447 0.0997,-0.0997 v -2.90008 h 5.80016 v 2.90008 c 0,0.055 0.0447,0.0997 0.0997,0.0997 h 6.00015 c 0.055,0 0.0997,-0.0447 0.0997,-0.0997 v -2.90008 h 5.80017 v 2.90008 c 0,0.055 0.0453,0.0997 0.10025,0.0997 h 5.99963 c 0.055,0 0.10026,-0.0447 0.10026,-0.0997 v -2.90008 h 5.80016 v 2.90008 c 0,0.055 0.0447,0.0997 0.0997,0.0997 h 6.00015 c 0.055,0 0.0997,-0.0447 0.0997,-0.0997 v -2.90008 h 5.80016 v 2.90008 c 0,0.055 0.0453,0.0997 0.10025,0.0997 h 5.99964 c 0.055,0 0.10025,-0.0447 0.10025,-0.0997 v -2.90008 h 5.79965 v 2.90008 c 0,0.055 0.0453,0.0997 0.10025,0.0997 h 6.00015 c 0.055,0 0.0997,-0.0447 0.0997,-0.0997 v -2.90008 h 5.80016 v 2.90008 c 0,0.055 0.0442,0.0997 0.0992,0.0997 h 6.00015 c 0.055,0 0.10025,-0.0447 0.10025,-0.0997 v -2.90008 h 5.79965 v 2.90008 c 0,0.055 0.0453,0.0997 0.10025,0.0997 h 5.99963 c 0.055,0 0.10024,-0.0447 0.10024,-0.0997 v -2.90008 h 5.80018 v 2.90008 c 0,0.055 0.0447,0.0997 0.0997,0.0997 h 6.00015 c 0.055,0 0.0997,-0.0447 0.0997,-0.0997 v -2.90008 h 5.80016 v 2.90008 c 0,0.055 0.0452,0.0997 0.10025,0.0997 h 5.99963 c 0.055,0 0.10025,-0.0447 0.10025,-0.0997 v -2.90008 h 5.79965 v 2.90008 c 0,0.055 0.0452,0.0997 0.10026,0.0997 h 6.00015 c 0.055,0 0.0997,-0.0447 0.0997,-0.0997 v -2.90008 h 5.80016 v 2.90008 c 0,0.055 0.0447,0.0997 0.0997,0.0997 h 10.00095 2.99981 c 0.055,0 0.0997,-0.0447 0.0997,-0.0997 v -3.00034 -5.99963 c 0,-0.055 -0.0448,-0.10025 -0.0997,-0.10025 h -2.90008 v -5.79965 h 2.90008 c 0.055,0 0.0997,-0.0453 0.0997,-0.10025 v -6.00015 c 0,-0.055 -0.0448,-0.0992 -0.0997,-0.0992 h -2.90008 v -5.80016 h 2.90008 c 0.055,0 0.0997,-0.0447 0.0997,-0.0997 v -6.00015 c 0,-0.055 -0.0448,-0.10025 -0.0997,-0.10025 h -2.90008 v -5.79965 h 2.90008 c 0.055,0 0.0997,-0.0453 0.0997,-0.10025 v -6.00015 c 0,-0.055 -0.0448,-0.0997 -0.0997,-0.0997 h -2.90008 v -5.80016 h 2.90008 c 0.055,0 0.0997,-0.0447 0.0997,-0.0997 v -6.00015 c 0,-0.055 -0.0448,-0.0997 -0.0997,-0.0997 h -2.90008 v -5.80016 h 2.90008 c 0.055,0 0.0997,-0.0452 0.0997,-0.10026 v -5.99963 c 0,-0.055 -0.0448,-0.10025 -0.0997,-0.10025 h -2.90008 v -5.80016 h 2.90008 c 0.055,0 0.0997,-0.0447 0.0997,-0.0997 v -6.00015 c 0,-0.055 -0.0448,-0.0997 -0.0997,-0.0997 h -2.90008 v -5.800158 h 2.90008 c 0.055,0 0.0997,-0.0447 0.0997,-0.0997 v -6.00017 c 0,-0.055 -0.0448,-0.10026 -0.0997,-0.10026 h -2.90008 v -5.799639 h 2.90008 c 0.055,0 0.0997,-0.0453 0.0997,-0.100261 v -6.000146 c 0,-0.055 -0.0448,-0.09973 -0.0997,-0.09973 h -2.90008 v -5.800163 h 2.90008 c 0.055,0 0.0997,-0.04474 0.0997,-0.09974 v -6.00015 c 0,-0.055 -0.0448,-0.100252 -0.0997,-0.100252 h -2.90008 v -5.799646 h 2.90008 c 0.055,0 0.0997,-0.04525 0.0997,-0.100253 v -5.999634 c 0,-0.055 -0.0448,-0.100252 -0.0997,-0.100252 h -2.90008 v -5.800162 h 2.90008 c 0.055,0 0.0997,-0.04474 0.0997,-0.09974 v -6.00015 c 0,-0.055 -0.0448,-0.09974 -0.0997,-0.09974 h -2.90008 V 38.00281 h 2.90008 c 0.055,0 0.0997,-0.04525 0.0997,-0.100253 v -5.999625 c 0,-0.05499 -0.0448,-0.100253 -0.0997,-0.100253 h -2.90008 v -5.799646 h 2.90008 c 0.055,0 0.0997,-0.04525 0.0997,-0.100252 V 19.90263 c 0,-0.055 -0.0448,-0.09973 -0.0997,-0.09973 h -2.90008 v -5.800163 h 2.90008 c 0.055,0 0.0997,-0.04474 0.0997,-0.09974 V 7.9028475 Z M 509.36271,108.80263 a 1.9,1.9 0 0 1 -1.90014,1.90014 1.9,1.9 0 0 1 -1.89963,-1.90014 1.9,1.9 0 0 1 1.89963,-1.90014 1.9,1.9 0 0 1 1.90014,1.90014 z m -5.2e-4,48.69987 a 1.9,1.9 0 0 1 -1.89962,1.90014 1.9,1.9 0 0 1 -1.90015,-1.90014 1.9,1.9 0 0 1 1.90015,-1.90014 1.9,1.9 0 0 1 1.89962,1.90014 z m -62.19982,-43.19995 a 1.9,1.9 0 0 1 -1.89962,1.90014 1.9,1.9 0 0 1 -1.90015,-1.90014 1.9,1.9 0 0 1 1.90015,-1.90014 1.9,1.9 0 0 1 1.89962,1.90014 z m 0,38.1 a 1.9,1.9 0 0 1 -1.89962,1.90014 1.9,1.9 0 0 1 -1.90015,-1.90014 1.9,1.9 0 0 1 1.90015,-1.90014 1.9,1.9 0 0 1 1.89962,1.90014 z" />
    <path
       id="path1"
       style="fill:none;stroke:#ff0000;stroke-width:0.2;stroke-dasharray:none;stroke-opacity:1"
       d="m 241.4358,293.19074 c -0.0134,1.83421 1.6859,3.39334 3.77648,3.40832 l 25.05622,0.17941 c 1.02455,0.007 1.84939,0.74446 1.84295,1.64314 -0.006,0.88794 -0.83163,1.60379 -1.84341,1.59655 l -19.4903,-0.13956 c -1.94743,-0.0139 -3.67276,1.15182 -3.91018,2.84787 -0.0185,0.13247 -0.0281,0.32651 -0.0291,0.45608 -0.0134,1.83423 1.68578,3.40937 3.77636,3.42435 l 28.29213,0.2026 c 1.04955,0.008 1.74603,0.67122 1.74037,1.46048 -0.003,0.36334 -0.1532,0.68566 -0.48717,0.99131 l -4.28567,3.90249 c -0.73629,0.63675 -1.10817,1.46808 -1.11422,2.31443 -0.006,0.84632 0.3538,1.68913 1.08092,2.33633 1.45391,1.29445 3.84839,1.3085 5.32099,0.0351 l 21.23113,-13.90586 c 0.002,-0.002 0.005,-0.002 0.008,-0.003 l 1.034,-0.0613 c 0.63319,0.13895 1.28811,0.21696 1.96009,0.22178 l 79.99801,0.57267 c 5.53984,0.0397 10.03394,-4.71614 10.07652,-10.66338 l 0.0538,-7.51459 c 0.0426,-5.94724 -4.38293,-10.76744 -9.92277,-10.80711 l -79.99771,-0.57286 c -1.09439,-0.008 -2.14522,0.17789 -3.13175,0.51659 l -0.0403,-0.005 c -0.23785,-0.0289 -0.45633,-0.0123 -0.65746,-0.12771 -6.61736,-3.79002 -17.58012,-5.0394 -29.46098,-5.12447 l -13.91145,-0.0996 c -2.0904,-0.0147 -3.81097,1.37961 -3.82443,3.21333 v 5.2e-4 c -8.7e-4,0.12985 0.007,0.33786 0.023,0.47043 0.21283,1.699 1.92056,3.0312 3.86798,3.04517 l 12.04079,0.0863 c 0.96946,0.007 1.84731,0.45611 1.84125,1.30665 l -2.5e-4,0.0274 c -0.007,0.92035 -0.95941,1.91192 -2.00839,1.90441 l -19.42261,-0.13908 c -1.94745,-0.0139 -3.67233,1.09111 -3.90973,2.78689 -0.0185,0.13248 -0.0289,0.357 -0.0298,0.48659 -0.0134,1.83421 1.68608,3.43934 3.77667,3.45431 l 19.60708,0.1404 c 1.01063,0.007 1.82555,0.60974 1.81919,1.49619 -0.006,0.89965 -0.84258,1.50141 -1.86799,1.49405 L 245.3764,289.8708 c -1.94772,-0.014 -3.6738,1.18386 -3.91092,2.8799 -0.0189,0.13244 -0.0286,0.31022 -0.0296,0.44008 z m 146.56144,-2.99118 a 1.5,1.5 0 0 1 1.51032,-1.48941 1.5,1.5 0 0 1 1.48939,1.51086 1.5,1.5 0 0 1 -1.51089,1.48884 1.5,1.5 0 0 1 -1.48887,-1.51036 z"
       inkscape:transform-center-x="70.980702"
       inkscape:transform-center-y="4.4507412" />
    <path
       id="path1-5"
       style="fill:none;stroke:#ff0000;stroke-width:0.2;stroke-dasharray:none;stroke-opacity:1"
       d="m 82.833737,285.82523 c -0.0134,1.83421 1.6859,3.39334 3.77648,3.40832 l 25.056223,0.17941 c 1.02455,0.007 1.84939,0.74446 1.84295,1.64314 -0.006,0.88794 -0.83163,1.60379 -1.84341,1.59655 l -19.490303,-0.13956 c -1.94743,-0.0139 -3.67276,1.15182 -3.91018,2.84787 -0.0185,0.13247 -0.0281,0.32651 -0.0291,0.45608 -0.0134,1.83423 1.68578,3.40937 3.77636,3.42435 l 28.292133,0.2026 c 1.04955,0.008 1.74603,0.67122 1.74037,1.46048 -0.003,0.36334 -0.1532,0.68566 -0.48717,0.99131 l -4.28567,3.90249 c -0.73629,0.63675 -1.10817,1.46808 -1.11422,2.31443 -0.006,0.84632 0.3538,1.68913 1.08092,2.33633 1.45391,1.29445 3.84839,1.3085 5.32099,0.0351 l 21.23113,-13.90586 c 0.002,-0.002 0.005,-0.002 0.008,-0.003 l 1.034,-0.0613 c 0.63319,0.13895 1.28811,0.21696 1.96009,0.22178 l 79.998,0.57267 c 5.53984,0.0397 10.03395,-4.71614 10.07653,-10.66338 l 0.0538,-7.51459 c 0.0426,-5.94724 -4.38294,-10.76744 -9.92278,-10.80711 l -79.9977,-0.57286 c -1.09439,-0.008 -2.14522,0.17789 -3.13175,0.51659 l -0.0403,-0.005 c -0.23785,-0.0289 -0.45633,-0.0123 -0.65746,-0.12771 -6.61736,-3.79002 -17.58012,-5.0394 -29.46098,-5.12447 l -13.911453,-0.0996 c -2.0904,-0.0147 -3.81097,1.37961 -3.82443,3.21333 v 5.2e-4 c -8.7e-4,0.12985 0.007,0.33786 0.023,0.47043 0.21283,1.699 1.92056,3.0312 3.86798,3.04517 l 12.040793,0.0863 c 0.96946,0.007 1.84731,0.45611 1.84125,1.30665 l -2.5e-4,0.0274 c -0.007,0.92035 -0.95941,1.91192 -2.00839,1.90441 l -19.422613,-0.13908 c -1.94745,-0.0139 -3.67232,1.09111 -3.90973,2.78689 -0.0185,0.13248 -0.0289,0.357 -0.0298,0.48659 -0.0134,1.83421 1.68608,3.43934 3.77667,3.45431 l 19.607083,0.1404 c 1.01063,0.007 1.82555,0.60974 1.81919,1.49619 -0.006,0.89965 -0.84258,1.50141 -1.86799,1.49405 l -24.937663,-0.17856 c -1.94772,-0.014 -3.6738,1.18386 -3.91092,2.8799 -0.0189,0.13244 -0.0286,0.31022 -0.0296,0.44008 z m 146.561433,-2.99118 a 1.5,1.5 0 0 1 1.51032,-1.48941 1.5,1.5 0 0 1 1.48939,1.51086 1.5,1.5 0 0 1 -1.51089,1.48884 1.5,1.5 0 0 1 -1.48887,-1.51036 z"
       inkscape:transform-center-x="70.980695"
       inkscape:transform-center-y="4.4507415" />
    <path
       id="path18"
       style="fill:none;fill-opacity:1;stroke:#ff0000;stroke-width:0.2;stroke-dasharray:none;stroke-opacity:1"
       d="m 83.091696,211.42109 a 40,40 0 0 0 -40.00014,-39.99963 40,40 0 0 0 -39.99962,39.99963 40,40 0 0 0 39.99962,40.00014 40,40 0 0 0 40.00014,-40.00014 z m -37.39978,0 a 2.5999999,2.5999999 0 0 1 -2.60036,2.60036 2.5999999,2.5999999 0 0 1 -2.59984,-2.60036 2.5999999,2.5999999 0 0 1 2.59984,-2.59984 2.5999999,2.5999999 0 0 1 2.60036,2.59984 z" />
    <path
       id="path18-3"
       style="fill:none;fill-opacity:1;stroke:#ff0000;stroke-width:0.2;stroke-dasharray:none;stroke-opacity:1"
       d="m 83.091696,295.44482 a 40,40 0 0 0 -40.00014,-39.99963 40,40 0 0 0 -39.99962,39.99963 40,40 0 0 0 39.99962,40.00014 40,40 0 0 0 40.00014,-40.00014 z m -37.39978,0 a 2.5999999,2.5999999 0 0 1 -2.60036,2.60036 2.5999999,2.5999999 0 0 1 -2.59984,-2.60036 2.5999999,2.5999999 0 0 1 2.59984,-2.59984 2.5999999,2.5999999 0 0 1 2.60036,2.59984 z" />
    <path
       id="path21"
       style="fill:none;fill-opacity:0.149038;stroke:#ff0000;stroke-width:0.2;stroke-linecap:round;stroke-linejoin:round;stroke-dasharray:none;stroke-opacity:1"
       d="m 87.291527,88.968172 c -0.055,0 -0.0997,0.0452 -0.0997,0.10025 v 7.00009 c 0,0.055 0.0447,0.0997 0.0997,0.0997 h 2.90008 v 5.800158 h -2.90008 c -0.055,0 -0.0997,0.0447 -0.0997,0.0997 v 6.00015 c 0,0.055 0.0447,0.0997 0.0997,0.0997 h 2.90008 v 5.80016 h -2.90008 c -0.055,0 -0.0997,0.0453 -0.0997,0.10026 v 5.99963 c 0,0.055 0.0447,0.10025 0.0997,0.10025 h 2.90008 v 5.80017 h -2.90008 c -0.055,0 -0.0997,0.0447 -0.0997,0.0997 v 6.00015 c 0,0.055 0.0447,0.0997 0.0997,0.0997 h 2.90008 v 5.80034 h -2.90008 c -0.055,0 -0.0997,0.0452 -0.0997,0.10025 v 5.99964 c 0,0.055 0.0447,0.10025 0.0997,0.10025 h 2.90008 v 5.79964 h -2.90008 c -0.055,0 -0.0997,0.0453 -0.0997,0.10026 v 6.00015 c 0,0.055 0.0447,0.0997 0.0997,0.0997 h 2.90008 v 5.80017 h -2.90008 c -0.055,0 -0.0997,0.0447 -0.0997,0.0997 v 7.00009 c 0,0.055 0.0447,0.10025 0.0997,0.10025 h 3.00033 113.999763 3.00034 c 0.055,0 0.0997,-0.0452 0.0997,-0.10025 v -7.00009 c 0,-0.055 -0.0447,-0.0997 -0.0997,-0.0997 h -2.90009 v -5.80017 h 2.90009 c 0.055,0 0.0997,-0.0447 0.0997,-0.0997 v -6.00015 c 0,-0.055 -0.0447,-0.10026 -0.0997,-0.10026 h -2.90009 v -5.79964 h 2.90009 c 0.055,0 0.0997,-0.0453 0.0997,-0.10025 v -5.99964 c 0,-0.055 -0.0447,-0.10025 -0.0997,-0.10025 h -2.90009 v -5.80016 h 2.90009 c 0.055,0 0.0997,-0.0447 0.0997,-0.0997 v -6.00015 c 0,-0.055 -0.0447,-0.0997 -0.0997,-0.0997 h -2.90009 v -5.80017 h 2.90009 c 0.055,0 0.0997,-0.0453 0.0997,-0.10025 v -5.99963 c 0,-0.055 -0.0447,-0.10026 -0.0997,-0.10026 h -2.90009 v -5.80016 h 2.90009 c 0.055,0 0.0997,-0.0447 0.0997,-0.0997 v -6.00015 c 0,-0.055 -0.0447,-0.0997 -0.0997,-0.0997 h -2.90009 v -5.800158 h 2.90009 c 0.055,0 0.0997,-0.0447 0.0997,-0.0997 v -7.00009 c 0,-0.055 -0.0447,-0.10025 -0.0997,-0.10025 H 204.29162 90.291857 Z m 9.07386,3.1564 c 0.0123,-0.003 0.0264,0.006 0.0264,0.0439 h 2.90008 2.900083 v 2.79983 h -5.800163 v -2.79983 c -0.0625,0 -0.0469,-0.039 -0.0264,-0.0439 z m 11.999793,0 c 0.0123,-0.003 0.0264,0.006 0.0264,0.0439 h 2.90008 2.90009 v 2.79983 h -5.80017 v -2.79983 c -0.0625,0 -0.0469,-0.039 -0.0264,-0.0439 z m 12.0003,0 c 0.0123,-0.003 0.0264,0.006 0.0264,0.0439 h 2.90009 2.89956 v 2.79983 h -5.79965 v -2.79983 c -0.0625,0 -0.0469,-0.039 -0.0264,-0.0439 z m 11.99978,0 c 0.0123,-0.003 0.0264,0.006 0.0264,0.0439 h 2.90008 2.90008 v 2.79983 h -5.80016 v -2.79983 c -0.0625,0 -0.0469,-0.039 -0.0264,-0.0439 z m 12.0003,0 c 0.0123,-0.003 0.0264,0.006 0.0264,0.0439 h 2.89956 2.90009 v 2.79983 h -5.79965 v -2.79983 c -0.0625,0 -0.0469,-0.039 -0.0264,-0.0439 z m 11.99979,0 c 0.0123,-0.003 0.0263,0.006 0.0263,0.0439 h 2.90009 2.90008 v 2.79983 h -5.80017 v -2.79983 c -0.0625,0 -0.0469,-0.039 -0.0263,-0.0439 z m 11.99978,0 c 0.0123,-0.003 0.0264,0.006 0.0264,0.0439 h 2.90008 2.90008 v 2.79983 h -5.80016 v -2.79983 c -0.0625,0 -0.0469,-0.039 -0.0264,-0.0439 z m 12.0003,0 c 0.0123,-0.003 0.0264,0.006 0.0264,0.0439 h 2.90008 2.90008 v 2.79983 h -5.80016 v -2.79983 c -0.0625,0 -0.0469,-0.039 -0.0264,-0.0439 z m 11.99979,0 c 0.0123,-0.003 0.0264,0.006 0.0264,0.0439 h 2.90008 2.90009 c 0,-0.1 0.1,0 0,0 v 2.79983 c 0.1,0 0,0.1 0,0 h -5.80017 c 0,0.1 -0.1,0 0,0 v -2.79983 c -0.0625,0 -0.0469,-0.039 -0.0264,-0.0439 z" />
    <path
       id="path11"
       style="fill:none;fill-opacity:0.149038;stroke:#ff0000;stroke-width:0.2;stroke-linecap:round;stroke-linejoin:round;stroke-dasharray:none;stroke-opacity:1"
       d="m 84.935235,2.9732382 c -0.055,0 -0.0997,0.0453 -0.0997,0.10025 V 10.07306 c 0,0.055 0.0447,0.10025 0.0997,0.10025 h 2.90008 v 5.80017 h -2.90008 c -0.055,0 -0.0997,0.0447 -0.0997,0.0997 v 6.00015 c 0,0.055 0.0447,0.0997 0.0997,0.0997 h 2.90008 v 5.80016 h -2.90008 c -0.055,0 -0.0997,0.0453 -0.0997,0.10025 v 5.99964 c 0,0.055 0.0447,0.10025 0.0997,0.10025 h 2.90008 v 5.79965 h -2.90008 c -0.055,0 -0.0997,0.0453 -0.0997,0.10025 v 6.00015 c 0,0.055 0.0447,0.0997 0.0997,0.0997 h 2.90008 v 5.80016 h -2.90008 c -0.055,0 -0.0997,0.0447 -0.0997,0.0997 v 6.00015 c 0,0.055 0.0447,0.10025 0.0997,0.10025 h 2.90008 v 5.79965 h -2.90008 c -0.055,0 -0.0997,0.0453 -0.0997,0.10025 v 5.999636 c 0,0.055 0.0447,0.10025 0.0997,0.10025 h 2.90008 v 5.80016 h -2.90008 c -0.055,0 -0.0997,0.0447 -0.0997,0.0997 v 7.000092 c 0,0.055 0.0447,0.10025 0.0997,0.10025 h 3.00033 113.999765 3.00034 c 0.055,0 0.0997,-0.0452 0.0997,-0.10025 v -7.000092 c 0,-0.055 -0.0447,-0.0997 -0.0997,-0.0997 h -2.90009 v -5.80016 h 2.90009 c 0.055,0 0.0997,-0.0453 0.0997,-0.10025 V 64.07324 c 0,-0.055 -0.0447,-0.10025 -0.0997,-0.10025 h -2.90009 v -5.79964 h 2.90009 c 0.055,0 0.0997,-0.0453 0.0997,-0.10026 v -6.00015 c 0,-0.055 -0.0447,-0.0997 -0.0997,-0.0997 h -2.90009 v -5.80016 h 2.90009 c 0.055,0 0.0997,-0.0447 0.0997,-0.0997 v -6.00015 c 0,-0.055 -0.0447,-0.10025 -0.0997,-0.10025 h -2.90009 v -5.79964 h 2.90009 c 0.055,0 0.0997,-0.0453 0.0997,-0.10025 v -5.99964 c 0,-0.055 -0.0447,-0.10025 -0.0997,-0.10025 h -2.90009 v -5.80016 h 2.90009 c 0.055,0 0.0997,-0.0447 0.0997,-0.0997 v -6.00015 c 0,-0.055 -0.0447,-0.0997 -0.0997,-0.0997 h -2.90009 v -5.80017 h 2.90009 c 0.055,0 0.0997,-0.0453 0.0997,-0.10025 V 3.0734882 c 0,-0.055 -0.0447,-0.10025 -0.0997,-0.10025 H 201.93533 87.935565 Z m 9.07386,3.1558803 c 0.0123,-0.003 0.0264,0.006 0.0264,0.0439 h 2.90008 2.900075 v 2.80034 h -5.800155 v -2.80034 c -0.0625,0 -0.0469,-0.039 -0.0264,-0.0439 z m 11.999785,0 c 0.0123,-0.003 0.0264,0.006 0.0264,0.0439 h 2.90009 2.90009 v 2.80034 h -5.80018 v -2.80034 c -0.0625,0 -0.0469,-0.039 -0.0264,-0.0439 z m 12.00031,0 c 0.0123,-0.003 0.0264,0.006 0.0264,0.0439 h 2.90009 2.89956 v 2.80034 h -5.79965 v -2.80034 c -0.0625,0 -0.0469,-0.039 -0.0264,-0.0439 z m 11.99978,0 c 0.0123,-0.003 0.0264,0.006 0.0264,0.0439 h 2.90008 2.90008 v 2.80034 h -5.80016 v -2.80034 c -0.0625,0 -0.0469,-0.039 -0.0264,-0.0439 z m 12.0003,0 c 0.0123,-0.003 0.0264,0.006 0.0264,0.0439 h 2.89956 2.90009 v 2.80034 h -5.79965 v -2.80034 c -0.0625,0 -0.0469,-0.039 -0.0264,-0.0439 z m 11.99979,0 c 0.0123,-0.003 0.0263,0.006 0.0263,0.0439 h 2.90009 2.90008 v 2.80034 h -5.80017 v -2.80034 c -0.0625,0 -0.0469,-0.039 -0.0263,-0.0439 z m 11.99978,0 c 0.0123,-0.003 0.0264,0.006 0.0264,0.0439 h 2.90008 2.90008 v 2.80034 h -5.80016 v -2.80034 c -0.0625,0 -0.0469,-0.039 -0.0264,-0.0439 z m 12.0003,0 c 0.0123,-0.003 0.0264,0.006 0.0264,0.0439 h 2.90008 2.90008 v 2.80034 h -5.80016 v -2.80034 c -0.0625,0 -0.0469,-0.039 -0.0264,-0.0439 z m 11.99979,0 c 0.0123,-0.003 0.0264,0.006 0.0264,0.0439 h 2.90008 2.90009 v 2.80034 h -5.80017 v -2.80034 c -0.0625,0 -0.0469,-0.039 -0.0264,-0.0439 z M 109.47948,20.5763 h 5.00021 v 5.00021 h -5.00021 z m 65.91174,0 h 5.00021 v 5.00021 h -5.00021 z m -66.47037,22.42912 h 72.0292 v 24.6817 h -72.0292 z" />
    <path
       id="path28"
       style="fill:none;fill-opacity:0.149038;stroke:#ff0000;stroke-width:0.2;stroke-linecap:round;stroke-linejoin:round;stroke-dasharray:none;stroke-opacity:1"
       d="m 3.3497111,79.944504 c 0,0.055 0.0453,0.10025 0.10025,0.10025 h 6.8998399 v 2.90008 c 0,0.055 0.0447,0.0997 0.0997,0.0997 h 6.00015 c 0.055,0 0.10025,-0.0447 0.10025,-0.0997 v -2.90008 h 5.79965 v 2.90008 c 0,0.055 0.0453,0.0997 0.10025,0.0997 h 6.00015 c 0.055,0 0.0997,-0.0447 0.0997,-0.0997 v -2.90008 h 5.80016 v 2.90008 c 0,0.055 0.0447,0.0997 0.0997,0.0997 h 6.00015 c 0.055,0 0.0997,-0.0447 0.0997,-0.0997 v -2.90008 h 5.80016 v 2.90008 c 0,0.055 0.0453,0.0997 0.10026,0.0997 h 5.99963 c 0.055,0 0.10025,-0.0447 0.10025,-0.0997 v -2.90008 h 5.80016 v 2.90008 c 0,0.055 0.0447,0.0997 0.0997,0.0997 h 6.00016 c 0.055,0 0.0997,-0.0447 0.0997,-0.0997 v -2.90008 h 5.80016 v 2.90008 c 0,0.055 0.0447,0.0997 0.0997,0.0997 h 6.00015 c 0.055,0 0.10025,-0.0447 0.10025,-0.0997 v -2.90008 h 6.89984 c 0.055,0 0.10025,-0.0453 0.10025,-0.10025 V 5.9448841 c 0,-0.055 -0.0452,-0.10025 -0.10025,-0.10025 h -6.89984 v -2.90008 c 0,-0.055 -0.0452,-0.0997 -0.10025,-0.0997 h -6.00015 c -0.055,0 -0.0997,0.0447 -0.0997,0.0997 v 2.90008 h -5.80016 v -2.90008 c 0,-0.055 -0.0447,-0.0997 -0.0997,-0.0997 h -6.00016 c -0.055,0 -0.0997,0.0447 -0.0997,0.0997 v 2.90008 h -5.80016 v -2.90008 c 0,-0.055 -0.0452,-0.0997 -0.10025,-0.0997 h -5.99963 c -0.055,0 -0.10026,0.0447 -0.10026,0.0997 v 2.90008 h -5.80016 v -2.90008 c 0,-0.055 -0.0447,-0.0997 -0.0997,-0.0997 h -6.00015 c -0.055,0 -0.0997,0.0447 -0.0997,0.0997 v 2.90008 h -5.80016 v -2.90008 c 0,-0.055 -0.0447,-0.0997 -0.0997,-0.0997 h -6.00015 c -0.055,0 -0.10025,0.0447 -0.10025,0.0997 v 2.90008 h -5.79965 v -2.90008 c 0,-0.055 -0.0453,-0.0997 -0.10025,-0.0997 h -6.00015 c -0.055,0 -0.0997,0.0447 -0.0997,0.0997 v 2.90008 H 3.4499611 c -0.055,0 -0.10025,0.0453 -0.10025,0.10025 z m 3.15588,-10.07329 c -0.003,-0.0123 0.006,-0.0264 0.0439,-0.0264 v -2.90008 -2.90008 h 2.80034 v 5.80016 h -2.80034 c 0,0.0625 -0.039,0.0469 -0.0439,0.0264 z m 0,-12.0003 c -0.003,-0.0123 0.006,-0.0264 0.0439,-0.0264 v -2.90008 -2.89956 h 2.80034 v 5.79964 h -2.80034 c 0,0.0625 -0.039,0.0469 -0.0439,0.0264 z m 0,-11.99978 c -0.003,-0.0123 0.006,-0.0264 0.0439,-0.0264 v -2.90008 -2.90009 h 2.80034 v 5.80017 h -2.80034 c 0,0.0625 -0.039,0.0469 -0.0439,0.0264 z m 0,-12.0003 c -0.003,-0.0123 0.006,-0.0264 0.0439,-0.0264 v -2.89957 -2.90008 h 2.80034 v 5.79965 h -2.80034 c 0,0.0625 -0.039,0.0469 -0.0439,0.0264 z m 0,-11.99979 c -0.003,-0.0123 0.006,-0.0264 0.0439,-0.0264 v -2.90008 -2.90008 h 2.80034 v 5.80016 h -2.80034 c 0,0.0625 -0.039,0.0469 -0.0439,0.0264 z m 24.4961799,25.07341 v -1.99988 h 24.89615 v 1.99988 z m 0,-2.99982 v -1.99988 h 24.89615 v 1.99988 z m 0,-2.99982 v -1.99987 h 24.89563 v 1.99987 z" />
    <path
       id="path34"
       style="fill:none;fill-opacity:0.149038;stroke:#ff0000;stroke-width:0.2;stroke-linecap:round;stroke-linejoin:round;stroke-dasharray:none;stroke-opacity:1"
       d="m 82.786131,90.297326 c 0,-0.055 -0.0447,-0.0997 -0.0997,-0.0997 h -6.90035 v -2.90009 c 0,-0.055 -0.0447,-0.10025 -0.0997,-0.10025 h -6.00015 c -0.055,0 -0.0997,0.0453 -0.0997,0.10025 v 2.90009 h -5.80016 v -2.90009 c 0,-0.055 -0.0452,-0.10025 -0.10025,-0.10025 h -5.99964 c -0.055,0 -0.10025,0.0453 -0.10025,0.10025 v 2.90009 h -5.80016 v -2.90009 c 0,-0.055 -0.0447,-0.10025 -0.0997,-0.10025 h -6.00015 c -0.055,0 -0.0997,0.0453 -0.0997,0.10025 v 2.90009 h -5.80016 v -2.90009 c 0,-0.055 -0.0453,-0.10025 -0.10026,-0.10025 h -5.99963 c -0.055,0 -0.10025,0.0453 -0.10025,0.10025 v 2.90009 h -5.79965 v -2.90009 c 0,-0.055 -0.0452,-0.10025 -0.10025,-0.10025 h -6.00015 c -0.055,0 -0.0997,0.0453 -0.0997,0.10025 v 2.90009 h -5.80016 v -2.90009 c 0,-0.055 -0.0447,-0.10025 -0.0997,-0.10025 H 9.6864609 c -0.055,0 -0.10025,0.0453 -0.10025,0.10025 v 2.90009 H 2.6863713 c -0.055,0 -0.0997,0.0447 -0.0997,0.0997 v 74.000134 c 0,0.055 0.0447,0.0997 0.0997,0.0997 h 6.8998396 v 2.90008 c 0,0.055 0.0452,0.10026 0.10025,0.10026 h 6.0001501 c 0.055,0 0.0997,-0.0453 0.0997,-0.10026 v -2.90008 h 5.80016 v 2.90008 c 0,0.055 0.0447,0.10026 0.0997,0.10026 h 6.00015 c 0.055,0 0.10025,-0.0453 0.10025,-0.10026 v -2.90008 h 5.79965 v 2.90008 c 0,0.055 0.0452,0.10026 0.10025,0.10026 h 5.99963 c 0.055,0 0.10026,-0.0453 0.10026,-0.10026 v -2.90008 h 5.80016 v 2.90008 c 0,0.055 0.0447,0.10026 0.0997,0.10026 h 6.00015 c 0.055,0 0.0997,-0.0453 0.0997,-0.10026 v -2.90008 h 5.80016 v 2.90008 c 0,0.055 0.0452,0.10026 0.10025,0.10026 h 5.99964 c 0.055,0 0.10025,-0.0453 0.10025,-0.10026 v -2.90008 h 5.80016 v 2.90008 c 0,0.055 0.0447,0.10026 0.0997,0.10026 h 6.00015 c 0.055,0 0.0997,-0.0453 0.0997,-0.10026 v -2.90008 h 6.90035 c 0.055,0 0.0997,-0.0447 0.0997,-0.0997 z m -3.15587,10.073804 c 0.003,0.0123 -0.006,0.0264 -0.0439,0.0264 v 2.90008 2.90008 c 0.1,0 0,0.1 0,0 h -2.80035 c 0,0.1 -0.1,0 0,0 v -5.80016 c -0.1,0 0,-0.1 0,0 h 2.80035 c 0,-0.0625 0.039,-0.0469 0.0439,-0.0264 z m 0,11.99978 c 0.003,0.0123 -0.006,0.0264 -0.0439,0.0264 v 2.90009 2.90008 h -2.80035 v -5.80017 h 2.80035 c 0,-0.0625 0.039,-0.0469 0.0439,-0.0264 z m 0,12.00031 c 0.003,0.0123 -0.006,0.0264 -0.0439,0.0264 v 2.90008 2.89956 h -2.80035 v -5.79964 h 2.80035 c 0,-0.0625 0.039,-0.0469 0.0439,-0.0264 z m 0,11.99978 c 0.003,0.0123 -0.006,0.0264 -0.0439,0.0264 v 2.90008 2.90008 h -2.80035 v -5.80016 h 2.80035 c 0,-0.0625 0.039,-0.0469 0.0439,-0.0264 z m 0,12.0003 c 0.003,0.0123 -0.006,0.0264 -0.0439,0.0264 v 2.89957 2.90008 h -2.80035 v -5.79965 h 2.80035 c 0,-0.0625 0.039,-0.0469 0.0439,-0.0264 z m -24.49618,-25.07392 v 1.99988 h -24.89616 v -1.99988 z m 0,2.99982 v 2.00039 h -24.89616 v -2.00039 z m 0,3.00033 v 1.99988 h -24.89564 v -1.99988 z" />
    <path
       d="m 90.447316,250.07023 h 5.9 c 0.1,0 0,-0.1 0,0 v 2.9 c 0,0.055 0.045,0.1 0.1,0.1 h 6.000004 c 0.055,0 0.1,-0.045 0.1,-0.1 v -2.9 c 0,-0.1 -0.1,0 0,0 h 5.8 c 0.1,0 0,-0.1 0,0 v 2.9 c 0,0.055 0.045,0.1 0.1,0.1 h 6 c 0.055,0 0.1,-0.045 0.1,-0.1 v -2.9 c 0,-0.1 -0.1,0 0,0 h 5.8 c 0.1,0 0,-0.1 0,0 v 2.9 c 0,0.055 0.045,0.1 0.1,0.1 h 6 c 0.055,0 0.1,-0.045 0.1,-0.1 v -2.9 c 0,-0.1 -0.1,0 0,0 h 5.8 c 0.1,0 0,-0.1 0,0 v 2.9 c 0,0.055 0.045,0.1 0.1,0.1 h 6 c 0.055,0 0.1,-0.045 0.1,-0.1 v -2.9 c 0,-0.1 -0.1,0 0,0 h 5.8 c 0.1,0 0,-0.1 0,0 v 2.9 c 0,0.055 0.045,0.1 0.1,0.1 h 6 c 0.055,0 0.1,-0.045 0.1,-0.1 v -2.9 c 0,-0.1 -0.1,0 0,0 h 5.8 c 0.1,0 0,-0.1 0,0 v 2.9 c 0,0.055 0.045,0.1 0.1,0.1 h 6 c 0.055,0 0.1,-0.045 0.1,-0.1 v -2.9 c 0,-0.1 -0.1,0 0,0 h 5.8 c 0.1,0 0,-0.1 0,0 v 2.9 c 0,0.055 0.045,0.1 0.1,0.1 h 6 c 0.055,0 0.1,-0.045 0.1,-0.1 v -2.9 c 0,-0.1 -0.1,0 0,0 h 5.8 c 0.1,0 0,-0.1 0,0 v 2.9 c 0,0.055 0.045,0.1 0.1,0.1 h 6 c 0.055,0 0.1,-0.045 0.1,-0.1 v -2.9 c 0,-0.1 -0.1,0 0,0 h 5.8 c 0.1,0 0,-0.1 0,0 v 2.9 c 0,0.055 0.045,0.1 0.1,0.1 h 6 c 0.055,0 0.1,-0.045 0.1,-0.1 v -2.9 c 0,-0.1 -0.1,0 0,0 h 5.9 c 0.055,0 0.1,-0.045 0.1,-0.1 v -9.9 c 0,-0.1 -0.1,0 0,0 h 2.9 c 0.055,0 0.1,-0.045 0.1,-0.1 v -6 c 0,-0.055 -0.045,-0.1 -0.1,-0.1 h -2.9 c -0.1,0 0,0.1 0,0 v -5.8 c 0,-0.1 -0.1,0 0,0 h 2.9 c 0.055,0 0.1,-0.045 0.1,-0.1 v -6 c 0,-0.055 -0.045,-0.1 -0.1,-0.1 h -2.9 c -0.1,0 0,0.1 0,0 v -5.8 c 0,-0.1 -0.1,0 0,0 h 2.9 c 0.055,0 0.1,-0.045 0.1,-0.1 v -6 c 0,-0.055 -0.045,-0.1 -0.1,-0.1 h -2.9 c -0.1,0 0,0.1 0,0 v -5.8 c 0,-0.1 -0.1,0 0,0 h 2.9 c 0.055,0 0.1,-0.045 0.1,-0.1 v -6 c 0,-0.055 -0.045,-0.1 -0.1,-0.1 h -2.9 c -0.1,0 0,0.1 0,0 v -5.8 c 0,-0.1 -0.1,0 0,0 h 2.9 c 0.055,0 0.1,-0.045 0.1,-0.1 v -6 c 0,-0.055 -0.045,-0.1 -0.1,-0.1 h -2.9 c -0.1,0 0,0.1 0,0 v -9.9 c 0,-0.055 -0.045,-0.1 -0.1,-0.1 h -5.9 c -0.1,0 0,0.1 0,0 v -2.9 c 0,-0.055 -0.045,-0.1 -0.1,-0.1 h -6 c -0.055,0 -0.1,0.045 -0.1,0.1 v 2.9 c 0,0.1 0.1,0 0,0 h -5.8 c -0.1,0 0,0.1 0,0 v -2.9 c 0,-0.055 -0.045,-0.1 -0.1,-0.1 h -6 c -0.055,0 -0.1,0.045 -0.1,0.1 v 2.9 c 0,0.1 0.1,0 0,0 h -5.8 c -0.1,0 0,0.1 0,0 v -2.9 c 0,-0.055 -0.045,-0.1 -0.1,-0.1 h -6 c -0.055,0 -0.1,0.045 -0.1,0.1 v 2.9 c 0,0.1 0.1,0 0,0 h -5.8 c -0.1,0 0,0.1 0,0 v -2.9 c 0,-0.055 -0.045,-0.1 -0.1,-0.1 h -6 c -0.055,0 -0.1,0.045 -0.1,0.1 v 2.9 c 0,0.1 0.1,0 0,0 h -5.8 c -0.1,0 0,0.1 0,0 v -2.9 c 0,-0.055 -0.045,-0.1 -0.1,-0.1 h -6 c -0.055,0 -0.1,0.045 -0.1,0.1 v 2.9 c 0,0.1 0.1,0 0,0 h -5.8 c -0.1,0 0,0.1 0,0 v -2.9 c 0,-0.055 -0.045,-0.1 -0.1,-0.1 h -6 c -0.055,0 -0.1,0.045 -0.1,0.1 v 2.9 c 0,0.1 0.1,0 0,0 h -5.8 c -0.1,0 0,0.1 0,0 v -2.9 c 0,-0.055 -0.045,-0.1 -0.1,-0.1 h -6 c -0.055,0 -0.1,0.045 -0.1,0.1 v 2.9 c 0,0.1 0.1,0 0,0 h -5.8 c -0.1,0 0,0.1 0,0 v -2.9 c 0,-0.055 -0.045,-0.1 -0.1,-0.1 h -6 c -0.055,0 -0.1,0.045 -0.1,0.1 v 2.9 c 0,0.1 0.1,0 0,0 h -5.8 c -0.1,0 0,0.1 0,0 v -2.9 c 0,-0.055 -0.045,-0.1 -0.1,-0.1 h -6.000004 c -0.055,0 -0.1,0.045 -0.1,0.1 v 2.9 c 0,0.1 0.1,0 0,0 h -5.9 c -0.055,0 -0.1,0.045 -0.1,0.1 v 9.9 c 0,0.1 0.1,0 0,0 h -2.9 c -0.055,0 -0.1,0.045 -0.1,0.1 v 6 c 0,0.055 0.045,0.1 0.1,0.1 h 2.9 c 0.1,0 0,-0.1 0,0 v 5.8 c 0,0.1 0.1,0 0,0 h -2.9 c -0.055,0 -0.1,0.045 -0.1,0.1 v 6 c 0,0.055 0.045,0.1 0.1,0.1 h 2.9 c 0.1,0 0,-0.1 0,0 v 5.8 c 0,0.1 0.1,0 0,0 h -2.9 c -0.055,0 -0.1,0.045 -0.1,0.1 v 6 c 0,0.055 0.045,0.1 0.1,0.1 h 2.9 c 0.1,0 0,-0.1 0,0 v 5.8 c 0,0.1 0.1,0 0,0 h -2.9 c -0.055,0 -0.1,0.045 -0.1,0.1 v 6 c 0,0.055 0.045,0.1 0.1,0.1 h 2.9 c 0.1,0 0,-0.1 0,0 v 5.8 c 0,0.1 0.1,0 0,0 h -2.9 c -0.055,0 -0.1,0.045 -0.1,0.1 v 6 c 0,0.055 0.045,0.1 0.1,0.1 h 2.9 c 0.1,0 0,-0.1 0,0 v 9.9 c 0,0.055 0.045,0.1 0.1,0.1 z"
       stroke="#000000"
       stroke-width="0.2"
       id="path22"
       style="fill:none;fill-opacity:0.149038;stroke:#ff0000;stroke-width:0.2;stroke-linecap:round;stroke-linejoin:round;stroke-dasharray:none;stroke-opacity:1" />
  </g>
</svg>
