<?xml version="1.0" encoding="UTF-8" standalone="no"?>
<!-- Created with Inkscape (http://www.inkscape.org/) -->

<svg
   width="700mm"
   height="400mm"
   viewBox="0 0 700 400"
   version="1.1"
   id="svg1"
   inkscape:version="1.3 (0e150ed6c4, 2023-07-21)"
   sodipodi:docname="NYNA_ALLv2.svg"
   xmlns:inkscape="http://www.inkscape.org/namespaces/inkscape"
   xmlns:sodipodi="http://sodipodi.sourceforge.net/DTD/sodipodi-0.dtd"
   xmlns="http://www.w3.org/2000/svg"
   xmlns:svg="http://www.w3.org/2000/svg">
  <sodipodi:namedview
     id="namedview1"
     pagecolor="#ffffff"
     bordercolor="#000000"
     borderopacity="0.25"
     inkscape:showpageshadow="2"
     inkscape:pageopacity="0.0"
     inkscape:pagecheckerboard="0"
     inkscape:deskcolor="#d1d1d1"
     inkscape:document-units="mm"
     inkscape:zoom="0.7313903"
     inkscape:cx="1885.4502"
     inkscape:cy="521.60932"
     inkscape:window-width="1680"
     inkscape:window-height="987"
     inkscape:window-x="-8"
     inkscape:window-y="-8"
     inkscape:window-maximized="1"
     inkscape:current-layer="layer1" />
  <defs
     id="defs1" />
  <g
     inkscape:label="Calque 1"
     inkscape:groupmode="layer"
     id="layer1">
    <path
       id="path4-1-1"
       style="fill:none;fill-opacity:0.149038;stroke:#ff0000;stroke-width:0.2;stroke-linecap:round;stroke-linejoin:round;stroke-dasharray:none;stroke-opacity:1"
       d="m 613.99715,188.78018 c 0,-0.055 -0.0447,-0.0997 -0.0997,-0.0997 h -3.00033 -9.89965 v -2.90008 c 0,-0.055 -0.0453,-0.0997 -0.10026,-0.0997 h -6.00015 c -0.055,0 -0.0997,0.0447 -0.0997,0.0997 v 2.90008 h -5.80016 v -2.90008 c 0,-0.055 -0.0447,-0.0997 -0.0997,-0.0997 h -6.00015 c -0.055,0 -0.10025,0.0447 -0.10025,0.0997 v 2.90008 h -5.79965 v -2.90008 c 0,-0.055 -0.0453,-0.0997 -0.10025,-0.0997 h -5.99964 c -0.055,0 -0.10025,0.0447 -0.10025,0.0997 v 2.90008 h -5.80016 v -2.90008 c 0,-0.055 -0.0447,-0.0997 -0.0997,-0.0997 h -6.00015 c -0.055,0 -0.0997,0.0447 -0.0997,0.0997 v 2.90008 h -5.80016 v -2.90008 c 0,-0.055 -0.0452,-0.0997 -0.10026,-0.0997 h -5.99963 c -0.055,0 -0.10025,0.0447 -0.10025,0.0997 v 2.90008 h -5.80017 v -2.90008 c 0,-0.055 -0.0447,-0.0997 -0.0997,-0.0997 h -6.00015 c -0.055,0 -0.0997,0.0447 -0.0997,0.0997 v 2.90008 h -5.80016 v -2.90008 c 0,-0.055 -0.0442,-0.0997 -0.0992,-0.0997 h -6.00015 c -0.055,0 -0.10025,0.0447 -0.10025,0.0997 v 2.90008 h -5.79965 v -2.90008 c 0,-0.055 -0.0453,-0.0997 -0.10025,-0.0997 h -6.00015 c -0.055,0 -0.0997,0.0447 -0.0997,0.0997 v 2.90008 h -5.80016 v -2.90008 c 0,-0.055 -0.0447,-0.0997 -0.0997,-0.0997 h -6.00015 c -0.055,0 -0.0997,0.0447 -0.0997,0.0997 v 2.90008 h -5.80016 v -2.90008 c 0,-0.055 -0.0453,-0.0997 -0.10026,-0.0997 h -5.99963 c -0.055,0 -0.10025,0.0447 -0.10025,0.0997 v 2.90008 h -5.80016 v -2.90008 c 0,-0.055 -0.0447,-0.0997 -0.0997,-0.0997 h -6.00015 c -0.055,0 -0.0997,0.0447 -0.0997,0.0997 v 2.90008 h -5.80016 v -2.90008 c 0,-0.055 -0.0453,-0.0997 -0.10025,-0.0997 h -5.99963 c -0.055,0 -0.10026,0.0447 -0.10026,0.0997 v 2.90008 h -5.79964 v -2.90008 c 0,-0.055 -0.0453,-0.0997 -0.10025,-0.0997 H 450.898 c -0.055,0 -0.0997,0.0447 -0.0997,0.0997 v 2.90008 h -5.80016 v -2.90008 c 0,-0.055 -0.0447,-0.0997 -0.0997,-0.0997 h -6.00015 c -0.055,0 -0.10025,0.0447 -0.10025,0.0997 v 2.90008 h -5.79965 v -2.90008 c 0,-0.055 -0.0452,-0.0997 -0.10025,-0.0997 h -5.99963 c -0.055,0 -0.10026,0.0447 -0.10026,0.0997 v 2.90008 h -9.90017 -2.99981 c -0.055,0 -0.10026,0.0447 -0.10026,0.0997 v 10.00042 c 0,0.055 0.0453,0.0997 0.10026,0.0997 h 2.90008 v 5.80017 h -2.90008 c -0.055,0 -0.10026,0.0447 -0.10026,0.0997 v 6.00015 c 0,0.055 0.0453,0.10026 0.10026,0.10026 h 2.90008 v 5.79964 h -2.90008 c -0.055,0 -0.10026,0.0453 -0.10026,0.10025 v 5.99964 c 0,0.055 0.0453,0.10025 0.10026,0.10025 h 2.90008 v 5.80016 h -2.90008 c -0.055,0 -0.10026,0.0447 -0.10026,0.0997 v 6.00015 c 0,0.055 0.0453,0.0997 0.10026,0.0997 h 2.90008 v 5.80017 h -2.90008 c -0.055,0 -0.10026,0.0453 -0.10026,0.10025 v 5.99963 c 0,0.055 0.0453,0.10026 0.10026,0.10026 h 2.90008 v 5.79964 h -2.90008 c -0.055,0 -0.10026,0.0453 -0.10026,0.10025 v 9.99991 c 0,0.055 0.0453,0.10025 0.10026,0.10025 h 2.99981 9.90017 v 2.90008 c 0,0.055 0.0453,0.0997 0.10026,0.0997 h 5.99963 c 0.055,0 0.10025,-0.0447 0.10025,-0.0997 v -2.90008 h 5.79965 v 2.90008 c 0,0.055 0.0453,0.0997 0.10025,0.0997 h 6.00015 c 0.055,0 0.0997,-0.0447 0.0997,-0.0997 v -2.90008 h 5.80016 v 2.90008 c 0,0.055 0.0447,0.0997 0.0997,0.0997 h 6.00016 c 0.055,0 0.10025,-0.0447 0.10025,-0.0997 v -2.90008 h 5.79964 v 2.90008 c 0,0.055 0.0453,0.0997 0.10026,0.0997 h 5.99963 c 0.055,0 0.10025,-0.0447 0.10025,-0.0997 v -2.90008 h 5.80016 v 2.90008 c 0,0.055 0.0447,0.0997 0.0997,0.0997 h 6.00015 c 0.055,0 0.0997,-0.0447 0.0997,-0.0997 v -2.90008 h 5.80016 v 2.90008 c 0,0.055 0.0453,0.0997 0.10025,0.0997 h 5.99963 c 0.055,0 0.10026,-0.0447 0.10026,-0.0997 v -2.90008 h 5.80016 v 2.90008 c 0,0.055 0.0447,0.0997 0.0997,0.0997 h 6.00015 c 0.055,0 0.0997,-0.0447 0.0997,-0.0997 v -2.90008 h 5.80016 v 2.90008 c 0,0.055 0.0447,0.0997 0.0997,0.0997 h 6.00015 c 0.055,0 0.10025,-0.0447 0.10025,-0.0997 v -2.90008 h 5.79965 v 2.90008 c 0,0.055 0.0453,0.0997 0.10025,0.0997 h 6.00015 c 0.055,0 0.0992,-0.0447 0.0992,-0.0997 v -2.90008 h 5.80016 v 2.90008 c 0,0.055 0.0447,0.0997 0.0997,0.0997 h 6.00015 c 0.055,0 0.0997,-0.0447 0.0997,-0.0997 v -2.90008 h 5.80017 v 2.90008 c 0,0.055 0.0453,0.0997 0.10025,0.0997 h 5.99963 c 0.055,0 0.10026,-0.0447 0.10026,-0.0997 v -2.90008 h 5.80016 v 2.90008 c 0,0.055 0.0447,0.0997 0.0997,0.0997 h 6.00015 c 0.055,0 0.0997,-0.0447 0.0997,-0.0997 v -2.90008 h 5.80016 v 2.90008 c 0,0.055 0.0453,0.0997 0.10025,0.0997 h 5.99964 c 0.055,0 0.10025,-0.0447 0.10025,-0.0997 v -2.90008 h 5.79965 v 2.90008 c 0,0.055 0.0453,0.0997 0.10025,0.0997 h 6.00015 c 0.055,0 0.0997,-0.0447 0.0997,-0.0997 v -2.90008 h 5.80016 v 2.90008 c 0,0.055 0.0447,0.0997 0.0997,0.0997 h 6.00015 c 0.055,0 0.10026,-0.0447 0.10026,-0.0997 v -2.90008 h 9.89965 3.00033 c 0.055,0 0.0997,-0.0453 0.0997,-0.10025 v -9.99991 c 0,-0.055 -0.0447,-0.10025 -0.0997,-0.10025 h -2.90008 v -5.79964 h 2.90008 c 0.055,0 0.0997,-0.0453 0.0997,-0.10026 v -5.99963 c 0,-0.055 -0.0447,-0.10025 -0.0997,-0.10025 h -2.90008 v -5.80017 h 2.90008 c 0.055,0 0.0997,-0.0447 0.0997,-0.0997 v -6.00015 c 0,-0.055 -0.0447,-0.0997 -0.0997,-0.0997 h -2.90008 v -5.80016 h 2.90008 c 0.055,0 0.0997,-0.0453 0.0997,-0.10025 v -5.99964 c 0,-0.055 -0.0447,-0.10025 -0.0997,-0.10025 h -2.90008 v -5.79964 h 2.90008 c 0.055,0 0.0997,-0.0453 0.0997,-0.10026 v -6.00015 c 0,-0.055 -0.0447,-0.0997 -0.0997,-0.0997 h -2.90008 v -5.80017 h 2.90008 c 0.055,0 0.0997,-0.0447 0.0997,-0.0997 z m -8.50025,37.00032 a 1,1 0 0 1 -0.99995,0.99994 1,1 0 0 1 -0.99993,-0.99994 1,1 0 0 1 0.99993,-0.99994 1,1 0 0 1 0.99995,0.99994 z m -3.49953,-5.99963 v 11.99978 h -22.00021 v -11.99978 z m -23.50038,6.00015 a 1,1 0 0 1 -0.99994,0.99994 1,1 0 0 1 -0.99994,-0.99994 1,1 0 0 1 0.99994,-1.00046 1,1 0 0 1 0.99994,1.00046 z m -126.05845,22.94899 a 1,1 0 0 1 -0.99994,0.99993 1,1 0 0 1 -0.99994,-0.99993 1,1 0 0 1 0.99994,-1.00046 1,1 0 0 1 0.99994,1.00046 z m -3.50005,-5.99964 v 11.99979 H 426.9388 v -11.99979 z m -23.49986,6.00015 a 1,1 0 0 1 -0.99994,0.99994 1,1 0 0 1 -0.99993,-0.99994 1,1 0 0 1 0.99993,-1.00045 1,1 0 0 1 0.99994,1.00045 z" />
    <path
       id="path7"
       style="fill:none;fill-opacity:0.149038;stroke:#ff0000;stroke-width:0.2;stroke-linecap:round;stroke-linejoin:round;stroke-dasharray:none;stroke-opacity:1"
       d="m 616.2614,357.52809 c 0,0.055 0.0452,0.0997 0.10025,0.0997 h 2.90009 v 5.8999 c 0,0.055 0.0447,0.10025 0.0997,0.10025 h 9.90017 v 2.90008 c 0,0.055 0.0447,0.0997 0.0997,0.0997 h 6.00015 c 0.055,0 0.0997,-0.0447 0.0997,-0.0997 v -2.90008 h 5.80016 v 2.90008 c 0,0.055 0.0453,0.0997 0.10025,0.0997 h 5.99964 c 0.055,0 0.10024,-0.0447 0.10024,-0.0997 v -2.90008 h 5.80016 v 2.90008 c 0,0.055 0.0447,0.0997 0.0997,0.0997 h 6.00015 c 0.055,0 0.0997,-0.0447 0.0997,-0.0997 v -2.90008 h 5.80016 v 2.90008 c 0,0.055 0.0447,0.0997 0.0997,0.0997 h 6.00015 c 0.055,0 0.10026,-0.0447 0.10026,-0.0997 v -2.90008 h 5.79964 v 2.90008 c 0,0.055 0.0452,0.0997 0.10025,0.0997 h 6.00015 c 0.055,0 0.0997,-0.0447 0.0997,-0.0997 v -2.90008 h 9.90018 c 0.055,0 0.0997,-0.0453 0.0997,-0.10025 v -5.8999 h 2.90008 c 0.055,0 0.10025,-0.0447 0.10025,-0.0997 v -6.00015 c 0,-0.055 -0.0453,-0.0997 -0.10025,-0.0997 h -2.90008 v -5.80016 h 2.90008 c 0.055,0 0.10025,-0.0453 0.10025,-0.10025 v -5.99964 c 0,-0.055 -0.0453,-0.10025 -0.10025,-0.10025 h -2.90008 v -5.80016 h 2.90008 c 0.055,0 0.10025,-0.0447 0.10025,-0.0997 v -6.00015 c 0,-0.055 -0.0453,-0.0997 -0.10025,-0.0997 h -2.90008 v -5.80016 h 2.90008 c 0.055,0 0.10025,-0.0447 0.10025,-0.0997 v -6.00015 c 0,-0.055 -0.0453,-0.10026 -0.10025,-0.10026 h -2.90008 v -5.79964 h 2.90008 c 0.055,0 0.10025,-0.0453 0.10025,-0.10025 v -6.00016 c 0,-0.055 -0.0453,-0.0997 -0.10025,-0.0997 h -2.90008 v -5.80016 h 2.90008 c 0.055,0 0.10025,-0.0447 0.10025,-0.0997 v -6.00015 c 0,-0.055 -0.0453,-0.10025 -0.10025,-0.10025 h -2.90008 v -5.79965 h 2.90008 c 0.055,0 0.10025,-0.0453 0.10025,-0.10025 v -5.99963 c 0,-0.055 -0.0453,-0.10026 -0.10025,-0.10026 h -2.90008 V 273.628 h 2.90008 c 0.055,0 0.10025,-0.0447 0.10025,-0.0997 v -6.00016 c 0,-0.055 -0.0453,-0.0997 -0.10025,-0.0997 h -2.90008 v -5.80016 h 2.90008 c 0.055,0 0.10025,-0.0453 0.10025,-0.10026 v -5.99963 c 0,-0.055 -0.0453,-0.10025 -0.10025,-0.10025 h -2.90008 v -5.79965 h 2.90008 c 0.055,0 0.10025,-0.0453 0.10025,-0.10025 v -6.00015 c 0,-0.055 -0.0453,-0.0997 -0.10025,-0.0997 h -2.90008 v -5.80016 h 2.90008 c 0.055,0 0.10025,-0.0447 0.10025,-0.0997 v -6.00015 c 0,-0.055 -0.0453,-0.10026 -0.10025,-0.10026 h -2.90008 v -5.79964 h 2.90008 c 0.055,0 0.10025,-0.0453 0.10025,-0.10026 v -6.00015 c 0,-0.055 -0.0453,-0.0997 -0.10025,-0.0997 h -2.90008 v -5.80016 h 2.90008 c 0.055,0 0.10025,-0.0447 0.10025,-0.0997 v -6.00015 c 0,-0.055 -0.0453,-0.0997 -0.10025,-0.0997 h -2.90008 v -5.80016 h 2.90008 c 0.055,0 0.10025,-0.0453 0.10025,-0.10025 v -5.99963 c 0,-0.055 -0.0453,-0.10026 -0.10025,-0.10026 h -2.90008 v -5.8999 c 0,-0.055 -0.0447,-0.10025 -0.0997,-0.10025 h -9.90018 v -2.89956 c 0,-0.055 -0.0447,-0.10025 -0.0997,-0.10025 h -6.00015 c -0.055,0 -0.10025,0.0452 -0.10025,0.10025 v 2.89956 h -5.79964 v -2.89956 c 0,-0.055 -0.0453,-0.10025 -0.10026,-0.10025 h -6.00015 c -0.055,0 -0.0997,0.0452 -0.0997,0.10025 v 2.89956 h -5.80016 v -2.89956 c 0,-0.055 -0.0447,-0.10025 -0.0997,-0.10025 h -6.00015 c -0.055,0 -0.0997,0.0452 -0.0997,0.10025 v 2.89956 h -5.80016 v -2.89956 c 0,-0.055 -0.0453,-0.10025 -0.10024,-0.10025 h -5.99964 c -0.055,0 -0.10025,0.0452 -0.10025,0.10025 v 2.89956 h -5.80016 v -2.89956 c 0,-0.055 -0.0447,-0.10025 -0.0997,-0.10025 h -6.00015 c -0.055,0 -0.0997,0.0452 -0.0997,0.10025 v 2.89956 h -9.90017 c -0.055,0 -0.0997,0.0453 -0.0997,0.10025 v 5.8999 h -2.90009 c -0.055,0 -0.10025,0.0453 -0.10025,0.10026 v 5.99963 c 0,0.055 0.0452,0.10025 0.10025,0.10025 h 2.90009 v 5.80016 h -2.90009 c -0.055,0 -0.10025,0.0447 -0.10025,0.0997 v 6.00015 c 0,0.055 0.0452,0.0997 0.10025,0.0997 h 2.90009 v 5.80016 h -2.90009 c -0.055,0 -0.10025,0.0447 -0.10025,0.0997 v 6.00015 c 0,0.055 0.0452,0.10026 0.10025,0.10026 h 2.90009 v 5.79964 h -2.90009 c -0.055,0 -0.10025,0.0453 -0.10025,0.10026 v 6.00015 c 0,0.055 0.0452,0.0997 0.10025,0.0997 h 2.90009 v 5.80016 h -2.90009 c -0.055,0 -0.10025,0.0447 -0.10025,0.0997 v 5.99987 c 0,0.055 0.0452,0.10025 0.10025,0.10025 h 2.90009 v 5.79965 h -2.90009 c -0.055,0 -0.10025,0.0453 -0.10025,0.10025 v 5.99963 c 0,0.055 0.0452,0.10026 0.10025,0.10026 h 2.90009 v 5.80016 h -2.90009 c -0.055,0 -0.10025,0.0447 -0.10025,0.0997 v 6.00016 c 0,0.055 0.0452,0.0997 0.10025,0.0997 h 2.90009 v 5.80016 h -2.90009 c -0.055,0 -0.10025,0.0453 -0.10025,0.10026 v 5.99963 c 0,0.055 0.0452,0.10025 0.10025,0.10025 h 2.90009 v 5.79965 h -2.90009 c -0.055,0 -0.10025,0.0453 -0.10025,0.10025 v 6.00015 c 0,0.055 0.0452,0.0997 0.10025,0.0997 h 2.90009 v 5.80016 h -2.90009 c -0.055,0 -0.10025,0.0447 -0.10025,0.0997 v 6.00016 c 0,0.055 0.0452,0.10025 0.10025,0.10025 h 2.90009 v 5.79964 h -2.90009 c -0.055,0 -0.10025,0.0453 -0.10025,0.10026 v 6.00015 c 0,0.055 0.0452,0.0997 0.10025,0.0997 h 2.90009 v 5.80016 h -2.90009 c -0.055,0 -0.10025,0.0447 -0.10025,0.0997 v 6.00015 c 0,0.055 0.0452,0.0997 0.10025,0.0997 h 2.90009 v 5.80016 h -2.90009 c -0.055,0 -0.10025,0.0453 -0.10025,0.10025 v 5.99964 c 0,0.055 0.0452,0.10025 0.10025,0.10025 h 2.90009 v 5.80016 h -2.90009 c -0.055,0 -0.10025,0.0447 -0.10025,0.0997 z m 5.00021,-66.00011 v -30.00024 h 2.99982 v 30.00024 z" />
    <path
       id="path4-1"
       style="fill:none;fill-opacity:0.149038;stroke:#ff0000;stroke-width:0.2;stroke-linecap:round;stroke-linejoin:round;stroke-dasharray:none;stroke-opacity:1"
       d="m 412.20998,188.78018 c 0,-0.055 -0.0447,-0.0997 -0.0997,-0.0997 h -3.00034 -9.89965 v -2.90008 c 0,-0.055 -0.0453,-0.0997 -0.10025,-0.0997 h -6.00015 c -0.055,0 -0.0997,0.0447 -0.0997,0.0997 v 2.90008 h -5.80016 v -2.90008 c 0,-0.055 -0.0447,-0.0997 -0.0997,-0.0997 h -6.00015 c -0.055,0 -0.10025,0.0447 -0.10025,0.0997 v 2.90008 h -5.79965 v -2.90008 c 0,-0.055 -0.0453,-0.0997 -0.10025,-0.0997 h -5.99963 c -0.055,0 -0.10025,0.0447 -0.10025,0.0997 v 2.90008 h -5.80017 v -2.90008 c 0,-0.055 -0.0447,-0.0997 -0.0997,-0.0997 h -6.00015 c -0.055,0 -0.0997,0.0447 -0.0997,0.0997 v 2.90008 h -5.80016 v -2.90008 c 0,-0.055 -0.0452,-0.0997 -0.10025,-0.0997 h -5.99964 c -0.055,0 -0.10025,0.0447 -0.10025,0.0997 v 2.90008 h -5.80016 v -2.90008 c 0,-0.055 -0.0447,-0.0997 -0.0997,-0.0997 h -6.00015 c -0.055,0 -0.0997,0.0447 -0.0997,0.0997 v 2.90008 h -5.80017 v -2.90008 c 0,-0.055 -0.0447,-0.0997 -0.0997,-0.0997 h -6.00015 c -0.055,0 -0.10025,0.0447 -0.10025,0.0997 v 2.90008 h -5.79965 v -2.90008 c 0,-0.055 -0.0453,-0.0997 -0.10025,-0.0997 h -6.00015 c -0.055,0 -0.0997,0.0447 -0.0997,0.0997 v 2.90008 h -5.80016 v -2.90008 c 0,-0.055 -0.0447,-0.0997 -0.0997,-0.0997 h -6.00015 c -0.055,0 -0.0997,0.0447 -0.0997,0.0997 v 2.90008 h -5.80017 v -2.90008 c 0,-0.055 -0.0453,-0.0997 -0.10025,-0.0997 h -5.99963 c -0.055,0 -0.10025,0.0447 -0.10025,0.0997 v 2.90008 h -5.80017 v -2.90008 c 0,-0.055 -0.0447,-0.0997 -0.0997,-0.0997 h -6.00015 c -0.055,0 -0.0997,0.0447 -0.0997,0.0997 v 2.90008 h -5.80016 v -2.90008 c 0,-0.055 -0.0453,-0.0997 -0.10025,-0.0997 h -5.99964 c -0.055,0 -0.10025,0.0447 -0.10025,0.0997 v 2.90008 h -5.79965 v -2.90008 c 0,-0.055 -0.0453,-0.0997 -0.10025,-0.0997 h -6.00015 c -0.055,0 -0.0997,0.0447 -0.0997,0.0997 v 2.90008 h -5.80017 v -2.90008 c 0,-0.055 -0.0447,-0.0997 -0.0997,-0.0997 h -6.00015 c -0.055,0 -0.10026,0.0447 -0.10026,0.0997 v 2.90008 h -5.79964 v -2.90008 c 0,-0.055 -0.0452,-0.0997 -0.10025,-0.0997 h -5.99964 c -0.055,0 -0.10025,0.0447 -0.10025,0.0997 v 2.90008 h -9.90017 -2.99982 c -0.055,0 -0.10025,0.0447 -0.10025,0.0997 v 10.00042 c 0,0.055 0.0453,0.0997 0.10025,0.0997 h 2.90008 v 5.80017 h -2.90008 c -0.055,0 -0.10025,0.0447 -0.10025,0.0997 v 6.00015 c 0,0.055 0.0453,0.10026 0.10025,0.10026 h 2.90008 v 5.79964 h -2.90008 c -0.055,0 -0.10025,0.0453 -0.10025,0.10025 v 5.99964 c 0,0.055 0.0453,0.10025 0.10025,0.10025 h 2.90008 v 5.80016 h -2.90008 c -0.055,0 -0.10025,0.0447 -0.10025,0.0997 v 6.00015 c 0,0.055 0.0453,0.0997 0.10025,0.0997 h 2.90008 v 5.80017 h -2.90008 c -0.055,0 -0.10025,0.0453 -0.10025,0.10025 v 5.99963 c 0,0.055 0.0453,0.10026 0.10025,0.10026 h 2.90008 v 5.79964 h -2.90008 c -0.055,0 -0.10025,0.0453 -0.10025,0.10025 v 9.99991 c 0,0.055 0.0453,0.10025 0.10025,0.10025 h 2.99982 9.90017 v 2.90008 c 0,0.055 0.0453,0.0997 0.10025,0.0997 h 5.99964 c 0.055,0 0.10025,-0.0447 0.10025,-0.0997 v -2.90008 h 5.79964 v 2.90008 c 0,0.055 0.0453,0.0997 0.10026,0.0997 h 6.00015 c 0.055,0 0.0997,-0.0447 0.0997,-0.0997 v -2.90008 h 5.80017 v 2.90008 c 0,0.055 0.0447,0.0997 0.0997,0.0997 h 6.00015 c 0.055,0 0.10025,-0.0447 0.10025,-0.0997 v -2.90008 h 5.79965 v 2.90008 c 0,0.055 0.0453,0.0997 0.10025,0.0997 h 5.99964 c 0.055,0 0.10025,-0.0447 0.10025,-0.0997 v -2.90008 h 5.80016 v 2.90008 c 0,0.055 0.0447,0.0997 0.0997,0.0997 h 6.00015 c 0.055,0 0.0997,-0.0447 0.0997,-0.0997 v -2.90008 h 5.80017 v 2.90008 c 0,0.055 0.0453,0.0997 0.10025,0.0997 h 5.99963 c 0.055,0 0.10025,-0.0447 0.10025,-0.0997 v -2.90008 h 5.80017 v 2.90008 c 0,0.055 0.0447,0.0997 0.0997,0.0997 h 6.00015 c 0.055,0 0.0997,-0.0447 0.0997,-0.0997 v -2.90008 h 5.80016 v 2.90008 c 0,0.055 0.0447,0.0997 0.0997,0.0997 h 6.00015 c 0.055,0 0.10025,-0.0447 0.10025,-0.0997 v -2.90008 h 5.79965 v 2.90008 c 0,0.055 0.0453,0.0997 0.10025,0.0997 h 6.00015 c 0.055,0 0.0997,-0.0447 0.0997,-0.0997 v -2.90008 h 5.80017 v 2.90008 c 0,0.055 0.0447,0.0997 0.0997,0.0997 h 6.00015 c 0.055,0 0.0997,-0.0447 0.0997,-0.0997 v -2.90008 h 5.80016 v 2.90008 c 0,0.055 0.0453,0.0997 0.10025,0.0997 h 5.99964 c 0.055,0 0.10025,-0.0447 0.10025,-0.0997 v -2.90008 h 5.80016 v 2.90008 c 0,0.055 0.0447,0.0997 0.0997,0.0997 h 6.00015 c 0.055,0 0.0997,-0.0447 0.0997,-0.0997 v -2.90008 h 5.80017 v 2.90008 c 0,0.055 0.0453,0.0997 0.10025,0.0997 h 5.99963 c 0.055,0 0.10025,-0.0447 0.10025,-0.0997 v -2.90008 h 5.79965 v 2.90008 c 0,0.055 0.0453,0.0997 0.10025,0.0997 h 6.00015 c 0.055,0 0.0997,-0.0447 0.0997,-0.0997 v -2.90008 h 5.80016 v 2.90008 c 0,0.055 0.0447,0.0997 0.0997,0.0997 h 6.00015 c 0.055,0 0.10025,-0.0447 0.10025,-0.0997 v -2.90008 h 9.89965 3.00034 c 0.055,0 0.0997,-0.0453 0.0997,-0.10025 v -9.99991 c 0,-0.055 -0.0447,-0.10025 -0.0997,-0.10025 h -2.90008 v -5.79964 h 2.90008 c 0.055,0 0.0997,-0.0453 0.0997,-0.10026 v -5.99963 c 0,-0.055 -0.0447,-0.10025 -0.0997,-0.10025 h -2.90008 v -5.80017 h 2.90008 c 0.055,0 0.0997,-0.0447 0.0997,-0.0997 v -6.00015 c 0,-0.055 -0.0447,-0.0997 -0.0997,-0.0997 h -2.90008 v -5.80016 h 2.90008 c 0.055,0 0.0997,-0.0453 0.0997,-0.10025 v -5.99964 c 0,-0.055 -0.0447,-0.10025 -0.0997,-0.10025 h -2.90008 v -5.79964 h 2.90008 c 0.055,0 0.0997,-0.0453 0.0997,-0.10026 v -6.00015 c 0,-0.055 -0.0447,-0.0997 -0.0997,-0.0997 h -2.90008 v -5.80017 h 2.90008 c 0.055,0 0.0997,-0.0447 0.0997,-0.0997 z m -161.55861,59.94983 a 1,1 0 0 1 -0.99994,0.99993 1,1 0 0 1 -0.99994,-0.99993 1,1 0 0 1 0.99994,-1.00046 1,1 0 0 1 0.99994,1.00046 z m -3.50005,-5.99964 v 11.99979 h -21.99969 v -11.99979 z m -23.49985,6.00015 a 1,1 0 0 1 -0.99994,0.99994 1,1 0 0 1 -0.99994,-0.99994 1,1 0 0 1 0.99994,-1.00045 1,1 0 0 1 0.99994,1.00045 z" />
    <path
       id="path6"
       style="fill:none;fill-opacity:0.21193415;stroke:#ff0000;stroke-width:0.2;stroke-linecap:round;stroke-linejoin:round;stroke-dasharray:none;stroke-opacity:1"
       d="M 629.36107 4.4410726 C 629.30607 4.4410726 629.26185 4.4858083 629.26185 4.5408081 L 629.26185 7.4408895 L 619.36168 7.4408895 C 619.30668 7.4408895 619.26194 7.4861388 619.26194 7.5411418 L 619.26194 13.44104 L 616.36186 13.44104 C 616.30686 13.44104 616.26161 13.485776 616.26161 13.540776 L 616.26161 19.540926 C 616.26161 19.595926 616.30691 19.641178 616.36186 19.641178 L 619.26194 19.641178 L 619.26194 25.440824 L 616.36186 25.440824 C 616.30686 25.440824 616.26161 25.486075 616.26161 25.541077 L 616.26161 31.54071 C 616.26161 31.59571 616.30691 31.640963 616.36186 31.640963 L 619.26194 31.640963 L 619.26194 37.441125 L 616.36186 37.441125 C 616.30686 37.441125 616.26161 37.485861 616.26161 37.540861 L 616.26161 43.541012 C 616.26161 43.596012 616.30691 43.640747 616.36186 43.640747 L 619.26194 43.640747 L 619.26194 49.44091 L 616.36186 49.44091 C 616.30686 49.44091 616.26161 49.48616 616.26161 49.541162 L 616.26161 55.540796 C 616.26161 55.595796 616.30691 55.641048 616.36186 55.641048 L 619.26194 55.641048 L 619.26194 61.440694 L 616.36186 61.440694 C 616.30686 61.440694 616.26161 61.485945 616.26161 61.540946 L 616.26161 67.541097 C 616.26161 67.596097 616.30691 67.640833 616.36186 67.640833 L 619.26194 67.640833 L 619.26194 73.440995 L 616.36186 73.440995 C 616.30686 73.440995 616.26161 73.485731 616.26161 73.540731 L 616.26161 79.540881 C 616.26161 79.595881 616.30691 79.641134 616.36186 79.641134 L 619.26194 79.641134 L 619.26194 85.44078 L 616.36186 85.44078 C 616.30686 85.44078 616.26161 85.486029 616.26161 85.541032 L 616.26161 91.540666 C 616.26161 91.595666 616.30691 91.640918 616.36186 91.640918 L 619.26194 91.640918 L 619.26194 97.441081 L 616.36186 97.441081 C 616.30686 97.441081 616.26161 97.485816 616.26161 97.540816 L 616.26161 103.54097 C 616.26161 103.59597 616.30691 103.6407 616.36186 103.6407 L 619.26194 103.6407 L 619.26194 109.44087 L 616.36186 109.44087 C 616.30686 109.44087 616.26161 109.48616 616.26161 109.54112 L 616.26161 115.54075 C 616.26161 115.59575 616.30691 115.641 616.36186 115.641 L 619.26194 115.641 L 619.26194 121.44117 L 616.36186 121.44117 C 616.30686 121.44117 616.26161 121.4859 616.26161 121.5409 L 616.26161 127.54105 C 616.26161 127.59605 616.30691 127.64079 616.36186 127.64079 L 619.26194 127.64079 L 619.26194 133.44095 L 616.36186 133.44095 C 616.30686 133.44095 616.26161 133.48569 616.26161 133.54069 L 616.26161 139.54084 C 616.26161 139.59584 616.30691 139.64109 616.36186 139.64109 L 619.26194 139.64109 L 619.26194 145.44073 L 616.36186 145.44073 C 616.30686 145.44073 616.26161 145.48603 616.26161 145.54099 L 616.26161 151.54114 C 616.26161 151.59614 616.30691 151.64087 616.36186 151.64087 L 619.26194 151.64087 L 619.26194 157.44104 L 616.36186 157.44104 C 616.30686 157.44104 616.26161 157.48525 616.26161 157.54025 L 616.26161 163.54092 C 616.26161 163.59592 616.30691 163.64117 616.36186 163.64117 L 619.26194 163.64117 L 619.26194 169.44082 L 616.36186 169.44082 C 616.30686 169.44082 616.26161 169.48602 616.26161 169.54107 L 616.26161 175.54071 C 616.26161 175.59571 616.30691 175.64096 616.36186 175.64096 L 619.26194 175.64096 L 619.26194 181.54086 C 619.26194 181.59586 619.30668 181.64111 619.36168 181.64111 L 629.26185 181.64111 L 629.26185 184.54067 C 629.26185 184.59567 629.30607 184.64093 629.36107 184.64093 L 635.36122 184.64093 C 635.41622 184.64093 635.46147 184.59562 635.46147 184.54067 L 635.46147 181.64111 L 641.26112 181.64111 L 641.26112 184.54067 C 641.26112 184.59567 641.30641 184.64093 641.36137 184.64093 L 647.36152 184.64093 C 647.41652 184.64093 647.46125 184.59562 647.46125 184.54067 L 647.46125 181.64111 L 653.26142 181.64111 L 653.26142 184.54067 C 653.26142 184.59567 653.30615 184.64093 653.36115 184.64093 L 659.3613 184.64093 C 659.4163 184.64093 659.46104 184.59562 659.46104 184.54067 L 659.46104 181.64111 L 665.2612 181.64111 L 665.2612 184.54067 C 665.2612 184.59567 665.3065 184.64093 665.36145 184.64093 L 671.36109 184.64093 C 671.41609 184.64093 671.46134 184.59562 671.46134 184.54067 L 671.46134 181.64111 L 677.2615 181.64111 L 677.2615 184.54067 C 677.2615 184.59567 677.30624 184.64093 677.36124 184.64093 L 683.36139 184.64093 C 683.41639 184.64093 683.46112 184.59562 683.46112 184.54067 L 683.46112 181.64111 L 693.3613 181.64111 C 693.4163 181.64111 693.46103 181.59582 693.46103 181.54086 L 693.46103 175.64096 L 696.36111 175.64096 C 696.41611 175.64096 696.46136 175.59567 696.46136 175.54071 L 696.46136 169.54107 C 696.46136 169.48607 696.41616 169.44082 696.36111 169.44082 L 693.46103 169.44082 L 693.46103 163.64117 L 696.36111 163.64117 C 696.41611 163.64117 696.46136 163.59587 696.46136 163.54092 L 696.46136 157.54077 C 696.46136 157.48577 696.41616 157.44104 696.36111 157.44104 L 693.46103 157.44104 L 693.46103 151.64087 L 696.36111 151.64087 C 696.41611 151.64087 696.46136 151.59614 696.46136 151.54114 L 696.46136 145.54099 C 696.46136 145.48599 696.41616 145.44073 696.36111 145.44073 L 693.46103 145.44073 L 693.46103 139.64109 L 696.36111 139.64109 C 696.41611 139.64109 696.46136 139.5958 696.46136 139.54084 L 696.46136 133.54069 C 696.46136 133.48569 696.41616 133.44095 696.36111 133.44095 L 693.46103 133.44095 L 693.46103 127.64079 L 696.36111 127.64079 C 696.41611 127.64079 696.46136 127.59605 696.46136 127.54105 L 696.46136 121.5409 C 696.46136 121.4859 696.41616 121.44117 696.36111 121.44117 L 693.46103 121.44117 L 693.46103 115.641 L 696.36111 115.641 C 696.41611 115.641 696.46136 115.5957 696.46136 115.54075 L 696.46136 109.54112 C 696.46136 109.48612 696.41616 109.44087 696.36111 109.44087 L 693.46103 109.44087 L 693.46103 103.6407 L 696.36111 103.6407 C 696.41611 103.6407 696.46136 103.59597 696.46136 103.54097 L 696.46136 97.540816 C 696.46136 97.485816 696.41616 97.441081 696.36111 97.441081 L 693.46103 97.441081 L 693.46103 91.640918 L 696.36111 91.640918 C 696.41611 91.640918 696.46136 91.595626 696.46136 91.540666 L 696.46136 85.541032 C 696.46136 85.486032 696.41616 85.44078 696.36111 85.44078 L 693.46103 85.44078 L 693.46103 79.641134 L 696.36111 79.641134 C 696.41611 79.641134 696.46136 79.595884 696.46136 79.540881 L 696.46136 73.540731 C 696.46136 73.485731 696.41616 73.440995 696.36111 73.440995 L 693.46103 73.440995 L 693.46103 67.640833 L 696.36111 67.640833 C 696.41611 67.640833 696.46136 67.596097 696.46136 67.541097 L 696.46136 61.540946 C 696.46136 61.485948 696.41616 61.440694 696.36111 61.440694 L 693.46103 61.440694 L 693.46103 55.641048 L 696.36111 55.641048 C 696.41611 55.641048 696.46136 55.595798 696.46136 55.540796 L 696.46136 49.541162 C 696.46136 49.486162 696.41616 49.44091 696.36111 49.44091 L 693.46103 49.44091 L 693.46103 43.640747 L 696.36111 43.640747 C 696.41611 43.640747 696.46136 43.596012 696.46136 43.541012 L 696.46136 37.540861 C 696.46136 37.485861 696.41616 37.441125 696.36111 37.441125 L 693.46103 37.441125 L 693.46103 31.640963 L 696.36111 31.640963 C 696.41611 31.640963 696.46136 31.595713 696.46136 31.54071 L 696.46136 25.541077 C 696.46136 25.486077 696.41616 25.440824 696.36111 25.440824 L 693.46103 25.440824 L 693.46103 19.641178 L 696.36111 19.641178 C 696.41611 19.641178 696.46136 19.595928 696.46136 19.540926 L 696.46136 13.540776 C 696.46136 13.485776 696.41616 13.44104 696.36111 13.44104 L 693.46103 13.44104 L 693.46103 7.5411418 C 693.46103 7.4861418 693.4163 7.4408895 693.3613 7.4408895 L 683.46112 7.4408895 L 683.46112 4.5408081 C 683.46112 4.4858083 683.41639 4.4410726 683.36139 4.4410726 L 677.36124 4.4410726 C 677.30624 4.4410726 677.2615 4.4858083 677.2615 4.5408081 L 677.2615 7.4408895 L 671.46134 7.4408895 L 671.46134 4.5408081 C 671.46134 4.4858083 671.41604 4.4410726 671.36109 4.4410726 L 665.36145 4.4410726 C 665.30645 4.4410726 665.2612 4.4858083 665.2612 4.5408081 L 665.2612 7.4408895 L 659.46104 7.4408895 L 659.46104 4.5408081 C 659.46104 4.4858083 659.4163 4.4410726 659.3613 4.4410726 L 653.36115 4.4410726 C 653.30615 4.4410726 653.26142 4.4858083 653.26142 4.5408081 L 653.26142 7.4408895 L 647.46125 7.4408895 L 647.46125 4.5408081 C 647.46125 4.4858083 647.41652 4.4410726 647.36152 4.4410726 L 641.36137 4.4410726 C 641.30637 4.4410726 641.26112 4.4858083 641.26112 4.5408081 L 641.26112 7.4408895 L 635.46147 7.4408895 L 635.46147 4.5408081 C 635.46147 4.4858083 635.41627 4.4410726 635.36122 4.4410726 L 629.36107 4.4410726 z M 648.86117 34.240804 L 663.86129 34.240804 L 663.86129 37.441125 L 648.86117 37.441125 L 648.86117 34.240804 z M 641.36137 54.540857 L 671.36109 54.540857 L 671.36109 134.54114 L 641.36137 134.54114 L 641.36137 54.540857 z M 648.86117 151.64087 L 663.86129 151.64087 L 663.86129 154.84119 L 648.86117 154.84119 L 648.86117 151.64087 z " />
    <path
       d="m 211.80294,7.5408915 v 5.9999995 c 0,0.055 0.045,0.1 0.1,0.1 h 2.9 c 0.1,0 0,-0.1 0,0 v 5.800001 c 0,0.1 0.1,0 0,0 h -2.9 c -0.055,0 -0.1,0.045 -0.1,0.1 v 6 c 0,0.055 0.045,0.1 0.1,0.1 h 2.9 c 0.1,0 0,-0.1 0,0 v 5.8 c 0,0.1 0.1,0 0,0 h -2.9 c -0.055,0 -0.1,0.045 -0.1,0.1 v 6 c 0,0.055 0.045,0.1 0.1,0.1 h 2.9 c 0.1,0 0,-0.1 0,0 v 5.8 c 0,0.1 0.1,0 0,0 h -2.9 c -0.055,0 -0.1,0.045 -0.1,0.1 v 6 c 0,0.055 0.045,0.1 0.1,0.1 h 2.9 c 0.1,0 0,-0.1 0,0 v 5.8 c 0,0.1 0.1,0 0,0 h -2.9 c -0.055,0 -0.1,0.045 -0.1,0.1 v 6 c 0,0.055 0.045,0.1 0.1,0.1 h 2.9 c 0.1,0 0,-0.1 0,0 v 5.8 c 0,0.1 0.1,0 0,0 h -2.9 c -0.055,0 -0.1,0.045 -0.1,0.1 v 6 c 0,0.055 0.045,0.1 0.1,0.1 h 2.9 c 0.1,0 0,-0.1 0,0 v 5.8 c 0,0.1 0.1,0 0,0 h -2.9 c -0.055,0 -0.1,0.045 -0.1,0.1 v 6 c 0,0.055 0.045,0.1 0.1,0.1 h 2.9 c 0.1,0 0,-0.1 0,0 v 5.8 c 0,0.1 0.1,0 0,0 h -2.9 c -0.055,0 -0.1,0.045 -0.1,0.1 v 6 c 0,0.055 0.045,0.1 0.1,0.1 h 2.9 c 0.1,0 0,-0.1 0,0 v 5.799998 c 0,0.1 0.1,0 0,0 h -2.9 c -0.055,0 -0.1,0.045 -0.1,0.1 v 6 c 0,0.055 0.045,0.1 0.1,0.1 h 2.9 c 0.1,0 0,-0.1 0,0 v 5.8 c 0,0.1 0.1,0 0,0 h -2.9 c -0.055,0 -0.1,0.045 -0.1,0.1 v 6 c 0,0.055 0.045,0.1 0.1,0.1 h 2.9 c 0.1,0 0,-0.1 0,0 v 5.8 c 0,0.1 0.1,0 0,0 h -2.9 c -0.055,0 -0.1,0.045 -0.1,0.1 v 6 c 0,0.055 0.045,0.1 0.1,0.1 h 2.9 c 0.1,0 0,-0.1 0,0 v 5.8 c 0,0.1 0.1,0 0,0 h -2.9 c -0.055,0 -0.1,0.045 -0.1,0.1 v 6 c 0,0.055 0.045,0.1 0.1,0.1 h 2.9 c 0.1,0 0,-0.1 0,0 v 5.8 c 0,0.1 0.1,0 0,0 h -2.9 c -0.055,0 -0.1,0.045 -0.1,0.1 v 6 c 0,0.055 0.045,0.1 0.1,0.1 h 2.9 c 0.1,0 0,-0.1 0,0 v 5.8 c 0,0.1 0.1,0 0,0 h -2.9 c -0.055,0 -0.1,0.045 -0.1,0.1 v 6 c 0,0.055 0.045,0.1 0.1,0.1 h 2.9 c 0.1,0 0,-0.1 0,0 v 5.8 c 0,0.1 0.1,0 0,0 h -2.9 c -0.055,0 -0.1,0.045 -0.1,0.1 v 6 3 c 0,0.055 0.045,0.1 0.1,0.1 h 3 10 c 0.055,0 0.1,-0.045 0.1,-0.1 v -2.9 c 0,-0.1 -0.1,0 0,0 h 5.8 c 0.1,0 0,-0.1 0,0 v 2.9 c 0,0.055 0.045,0.1 0.1,0.1 h 6 c 0.055,0 0.1,-0.045 0.1,-0.1 v -2.9 c 0,-0.1 -0.1,0 0,0 h 5.8 c 0.1,0 0,-0.1 0,0 v 2.9 c 0,0.055 0.045,0.1 0.1,0.1 h 6 c 0.055,0 0.1,-0.045 0.1,-0.1 v -2.9 c 0,-0.1 -0.1,0 0,0 h 5.8 c 0.1,0 0,-0.1 0,0 v 2.9 c 0,0.055 0.045,0.1 0.1,0.1 h 6 c 0.055,0 0.1,-0.045 0.1,-0.1 v -2.9 c 0,-0.1 -0.1,0 0,0 h 5.8 c 0.1,0 0,-0.1 0,0 v 2.9 c 0,0.055 0.045,0.1 0.1,0.1 h 6 c 0.055,0 0.1,-0.045 0.1,-0.1 v -2.9 c 0,-0.1 -0.1,0 0,0 h 5.8 c 0.1,0 0,-0.1 0,0 v 2.9 c 0,0.055 0.045,0.1 0.1,0.1 h 6 c 0.055,0 0.1,-0.045 0.1,-0.1 v -2.9 c 0,-0.1 -0.1,0 0,0 h 5.8 c 0.1,0 0,-0.1 0,0 v 2.9 c 0,0.055 0.045,0.1 0.1,0.1 h 6 c 0.055,0 0.1,-0.045 0.1,-0.1 v -2.9 c 0,-0.1 -0.1,0 0,0 h 5.8 c 0.1,0 0,-0.1 0,0 v 2.9 c 0,0.055 0.045,0.1 0.1,0.1 h 6 c 0.055,0 0.1,-0.045 0.1,-0.1 v -2.9 c 0,-0.1 -0.1,0 0,0 h 5.8 c 0.1,0 0,-0.1 0,0 v 2.9 c 0,0.055 0.045,0.1 0.1,0.1 h 6 c 0.055,0 0.1,-0.045 0.1,-0.1 v -2.9 c 0,-0.1 -0.1,0 0,0 h 5.8 c 0.1,0 0,-0.1 0,0 v 2.9 c 0,0.055 0.045,0.1 0.1,0.1 h 6 c 0.055,0 0.1,-0.045 0.1,-0.1 v -2.9 c 0,-0.1 -0.1,0 0,0 h 5.8 c 0.1,0 0,-0.1 0,0 v 2.9 c 0,0.055 0.045,0.1 0.1,0.1 h 6 c 0.055,0 0.1,-0.045 0.1,-0.1 v -2.9 c 0,-0.1 -0.1,0 0,0 h 5.8 c 0.1,0 0,-0.1 0,0 v 2.9 c 0,0.055 0.045,0.1 0.1,0.1 h 6 c 0.055,0 0.1,-0.045 0.1,-0.1 v -2.9 c 0,-0.1 -0.1,0 0,0 h 5.8 c 0.1,0 0,-0.1 0,0 v 2.9 c 0,0.055 0.045,0.1 0.1,0.1 h 6 c 0.055,0 0.1,-0.045 0.1,-0.1 v -2.9 c 0,-0.1 -0.1,0 0,0 h 5.8 c 0.1,0 0,-0.1 0,0 v 2.9 c 0,0.055 0.045,0.1 0.1,0.1 h 6 c 0.055,0 0.1,-0.045 0.1,-0.1 v -2.9 c 0,-0.1 -0.1,0 0,0 h 5.8 c 0.1,0 0,-0.1 0,0 v 2.9 c 0,0.055 0.045,0.1 0.1,0.1 h 6 c 0.055,0 0.1,-0.045 0.1,-0.1 v -2.9 c 0,-0.1 -0.1,0 0,0 h 5.8 c 0.1,0 0,-0.1 0,0 v 2.9 c 0,0.055 0.045,0.1 0.1,0.1 h 10 3 c 0.055,0 0.1,-0.045 0.1,-0.1 v -3 -6 c 0,-0.055 -0.045,-0.1 -0.1,-0.1 h -2.9 c -0.1,0 0,0.1 0,0 v -5.8 c 0,-0.1 -0.1,0 0,0 h 2.9 c 0.055,0 0.1,-0.045 0.1,-0.1 v -6 c 0,-0.055 -0.045,-0.1 -0.1,-0.1 h -2.9 c -0.1,0 0,0.1 0,0 v -5.8 c 0,-0.1 -0.1,0 0,0 h 2.9 c 0.055,0 0.1,-0.045 0.1,-0.1 v -6 c 0,-0.055 -0.045,-0.1 -0.1,-0.1 h -2.9 c -0.1,0 0,0.1 0,0 v -5.8 c 0,-0.1 -0.1,0 0,0 h 2.9 c 0.055,0 0.1,-0.045 0.1,-0.1 v -6 c 0,-0.055 -0.045,-0.1 -0.1,-0.1 h -2.9 c -0.1,0 0,0.1 0,0 v -5.8 c 0,-0.1 -0.1,0 0,0 h 2.9 c 0.055,0 0.1,-0.045 0.1,-0.1 v -6 c 0,-0.055 -0.045,-0.1 -0.1,-0.1 h -2.9 c -0.1,0 0,0.1 0,0 v -5.8 c 0,-0.1 -0.1,0 0,0 h 2.9 c 0.055,0 0.1,-0.045 0.1,-0.1 v -6 c 0,-0.055 -0.045,-0.1 -0.1,-0.1 h -2.9 c -0.1,0 0,0.1 0,0 v -5.8 c 0,-0.1 -0.1,0 0,0 h 2.9 c 0.055,0 0.1,-0.045 0.1,-0.1 v -6 c 0,-0.055 -0.045,-0.1 -0.1,-0.1 h -2.9 c -0.1,0 0,0.1 0,0 v -5.799998 c 0,-0.1 -0.1,0 0,0 h 2.9 c 0.055,0 0.1,-0.045 0.1,-0.1 v -6 c 0,-0.055 -0.045,-0.1 -0.1,-0.1 h -2.9 c -0.1,0 0,0.1 0,0 v -5.8 c 0,-0.1 -0.1,0 0,0 h 2.9 c 0.055,0 0.1,-0.045 0.1,-0.1 v -6 c 0,-0.055 -0.045,-0.1 -0.1,-0.1 h -2.9 c -0.1,0 0,0.1 0,0 v -5.8 c 0,-0.1 -0.1,0 0,0 h 2.9 c 0.055,0 0.1,-0.045 0.1,-0.1 v -6 c 0,-0.055 -0.045,-0.1 -0.1,-0.1 h -2.9 c -0.1,0 0,0.1 0,0 v -5.8 c 0,-0.1 -0.1,0 0,0 h 2.9 c 0.055,0 0.1,-0.045 0.1,-0.1 v -6 c 0,-0.055 -0.045,-0.1 -0.1,-0.1 h -2.9 c -0.1,0 0,0.1 0,0 v -5.8 c 0,-0.1 -0.1,0 0,0 h 2.9 c 0.055,0 0.1,-0.045 0.1,-0.1 v -6 c 0,-0.055 -0.045,-0.1 -0.1,-0.1 h -2.9 c -0.1,0 0,0.1 0,0 v -5.8 c 0,-0.1 -0.1,0 0,0 h 2.9 c 0.055,0 0.1,-0.045 0.1,-0.1 v -6 c 0,-0.055 -0.045,-0.1 -0.1,-0.1 h -2.9 c -0.1,0 0,0.1 0,0 v -5.8 c 0,-0.1 -0.1,0 0,0 h 2.9 c 0.055,0 0.1,-0.045 0.1,-0.1 v -6 c 0,-0.055 -0.045,-0.1 -0.1,-0.1 h -2.9 c -0.1,0 0,0.1 0,0 v -5.800001 c 0,-0.1 -0.1,0 0,0 h 2.9 c 0.055,0 0.1,-0.045 0.1,-0.1 v -5.9999995 -3 c 0,-0.055 -0.045,-0.1 -0.1,-0.1 h -3 -10 c -0.055,0 -0.1,0.045 -0.1,0.1 v 2.9 c 0,0.1 0.1,0 0,0 h -5.8 c -0.1,0 0,0.1 0,0 v -2.9 c 0,-0.055 -0.045,-0.1 -0.1,-0.1 h -6 c -0.055,0 -0.1,0.045 -0.1,0.1 v 2.9 c 0,0.1 0.1,0 0,0 h -5.8 c -0.1,0 0,0.1 0,0 v -2.9 c 0,-0.055 -0.045,-0.1 -0.1,-0.1 h -6 c -0.055,0 -0.1,0.045 -0.1,0.1 v 2.9 c 0,0.1 0.1,0 0,0 h -5.8 c -0.1,0 0,0.1 0,0 v -2.9 c 0,-0.055 -0.045,-0.1 -0.1,-0.1 h -6 c -0.055,0 -0.1,0.045 -0.1,0.1 v 2.9 c 0,0.1 0.1,0 0,0 h -5.8 c -0.1,0 0,0.1 0,0 v -2.9 c 0,-0.055 -0.045,-0.1 -0.1,-0.1 h -6 c -0.055,0 -0.1,0.045 -0.1,0.1 v 2.9 c 0,0.1 0.1,0 0,0 h -5.8 c -0.1,0 0,0.1 0,0 v -2.9 c 0,-0.055 -0.045,-0.1 -0.1,-0.1 h -6 c -0.055,0 -0.1,0.045 -0.1,0.1 v 2.9 c 0,0.1 0.1,0 0,0 h -5.8 c -0.1,0 0,0.1 0,0 v -2.9 c 0,-0.055 -0.045,-0.1 -0.1,-0.1 h -6 c -0.055,0 -0.1,0.045 -0.1,0.1 v 2.9 c 0,0.1 0.1,0 0,0 h -5.8 c -0.1,0 0,0.1 0,0 v -2.9 c 0,-0.055 -0.045,-0.1 -0.1,-0.1 h -6 c -0.055,0 -0.1,0.045 -0.1,0.1 v 2.9 c 0,0.1 0.1,0 0,0 h -5.8 c -0.1,0 0,0.1 0,0 v -2.9 c 0,-0.055 -0.045,-0.1 -0.1,-0.1 h -6 c -0.055,0 -0.1,0.045 -0.1,0.1 v 2.9 c 0,0.1 0.1,0 0,0 h -5.8 c -0.1,0 0,0.1 0,0 v -2.9 c 0,-0.055 -0.045,-0.1 -0.1,-0.1 h -6 c -0.055,0 -0.1,0.045 -0.1,0.1 v 2.9 c 0,0.1 0.1,0 0,0 h -5.8 c -0.1,0 0,0.1 0,0 v -2.9 c 0,-0.055 -0.045,-0.1 -0.1,-0.1 h -6 c -0.055,0 -0.1,0.045 -0.1,0.1 v 2.9 c 0,0.1 0.1,0 0,0 h -5.8 c -0.1,0 0,0.1 0,0 v -2.9 c 0,-0.055 -0.045,-0.1 -0.1,-0.1 h -6 c -0.055,0 -0.1,0.045 -0.1,0.1 v 2.9 c 0,0.1 0.1,0 0,0 h -5.8 c -0.1,0 0,0.1 0,0 v -2.9 c 0,-0.055 -0.045,-0.1 -0.1,-0.1 h -6 c -0.055,0 -0.1,0.045 -0.1,0.1 v 2.9 c 0,0.1 0.1,0 0,0 h -5.8 c -0.1,0 0,0.1 0,0 v -2.9 c 0,-0.055 -0.045,-0.1 -0.1,-0.1 h -6 c -0.055,0 -0.1,0.045 -0.1,0.1 v 2.9 c 0,0.1 0.1,0 0,0 h -5.8 c -0.1,0 0,0.1 0,0 v -2.9 c 0,-0.055 -0.045,-0.1 -0.1,-0.1 h -6 c -0.055,0 -0.1,0.045 -0.1,0.1 v 2.9 c 0,0.1 0.1,0 0,0 h -5.8 c -0.1,0 0,0.1 0,0 v -2.9 c 0,-0.055 -0.045,-0.1 -0.1,-0.1 h -10 -3 c -0.055,0 -0.1,0.045 -0.1,0.1 v 3"
       stroke="#000000"
       stroke-width="0.2"
       id="path2"
       style="fill:none;fill-opacity:0.149038;stroke:#ff0000;stroke-width:0.2;stroke-linecap:round;stroke-linejoin:round;stroke-dasharray:none;stroke-opacity:1" />
    <path
       id="path5"
       style="fill:none;fill-opacity:0.149038;stroke:#ff0000;stroke-width:0.2;stroke-linecap:round;stroke-linejoin:round;stroke-dasharray:none;stroke-opacity:1"
       d="m 614.46276,4.9030295 c 0,-0.055 -0.0448,-0.100252 -0.0997,-0.100252 h -2.99982 -10.00042 c -0.055,0 -0.0997,0.04525 -0.0997,0.100252 v 2.899564 h -5.80016 v -2.899564 c 0,-0.055 -0.0447,-0.100252 -0.0997,-0.100252 h -6.00016 c -0.055,0 -0.10025,0.04525 -0.10025,0.100252 v 2.899564 h -5.79964 v -2.899564 c -6e-5,-0.055 -0.0452,-0.100252 -0.10026,-0.100252 h -5.99963 c -0.055,0 -0.10025,0.04525 -0.10025,0.100252 v 2.899564 h -5.80016 v -2.899564 c 0,-0.055 -0.0447,-0.100252 -0.0997,-0.100252 h -6.00015 c -0.055,0 -0.0997,0.04525 -0.0997,0.100252 v 2.899564 h -5.80016 v -2.899564 c -7e-5,-0.055 -0.0452,-0.100252 -0.10025,-0.100252 h -5.99964 c -0.055,0 -0.10025,0.04525 -0.10025,0.100252 v 2.899564 h -5.79964 v -2.899564 c 0,-0.055 -0.0453,-0.100252 -0.10026,-0.100252 h -6.00015 c -0.055,0 -0.0997,0.04525 -0.0997,0.100252 v 2.899564 h -5.80016 v -2.899564 c -4e-5,-0.055 -0.0447,-0.100252 -0.0997,-0.100252 h -6.00015 c -0.055,0 -0.10025,0.04525 -0.10025,0.100252 v 2.899564 h -5.79965 v -2.899564 c 0,-0.055 -0.0453,-0.100252 -0.10025,-0.100252 h -5.99964 c -0.055,0 -0.10025,0.04525 -0.10025,0.100252 v 2.899564 h -5.80016 v -2.899564 c 0,-0.055 -0.0447,-0.100252 -0.0997,-0.100252 h -6.00015 c -0.055,0 -0.0997,0.04525 -0.0997,0.100252 v 2.899564 h -5.80016 v -2.899564 c -7e-5,-0.055 -0.0453,-0.100252 -0.10026,-0.100252 h -5.99967 c -0.055,0 -0.10025,0.04525 -0.10025,0.100252 v 2.899564 h -5.80017 v -2.899564 c 0,-0.055 -0.0447,-0.100252 -0.0997,-0.100252 h -6.00015 c -0.055,0 -0.0997,0.04525 -0.0997,0.100252 v 2.899564 h -5.80016 v -2.899564 c 0,-0.055 -0.0447,-0.100252 -0.0997,-0.100252 h -6.00015 c -0.055,0 -0.10025,0.04525 -0.10025,0.100252 v 2.899564 h -5.79964 v -2.899564 c -9e-5,-0.055 -0.0452,-0.100252 -0.10026,-0.100252 h -6.00015 c -0.055,0 -0.0997,0.04525 -0.0997,0.100252 v 2.899564 h -5.80017 v -2.899564 c -4e-5,-0.055 -0.0447,-0.100252 -0.0997,-0.100252 h -6.00016 c -0.055,0 -0.10025,0.04525 -0.10025,0.100252 v 2.899564 h -5.79965 v -2.899564 c 0,-0.055 -0.0453,-0.100252 -0.10025,-0.100252 h -5.99964 c -0.055,0 -0.10025,0.04525 -0.10025,0.100252 v 2.899564 h -5.80016 v -2.899564 c 0,-0.055 -0.0447,-0.100252 -0.0997,-0.100252 h -9.9999 -3.00034 c -0.055,0 -0.0997,0.04525 -0.0997,0.100252 v 2.999817 6.0001495 c 0,0.055 0.0447,0.09974 0.0997,0.09974 h 2.90009 v 5.800163 h -2.90009 c -0.055,0 -0.0997,0.04473 -0.0997,0.09973 v 6.00015 c 0,0.055 0.0447,0.100252 0.0997,0.100252 h 2.90009 v 5.799646 h -2.90009 c -0.055,0 -0.0997,0.04526 -0.0997,0.100252 v 5.999634 c 0,0.055 0.0447,0.100253 0.0997,0.100253 h 2.90009 v 5.800163 h -2.90009 c -0.055,0 -0.0997,0.04474 -0.0997,0.09974 v 6.000151 c 0,0.055 0.0447,0.09974 0.0997,0.09974 h 2.90009 v 5.800162 h -2.90009 c -0.055,0 -0.0997,0.04525 -0.0997,0.100253 v 5.999632 c 0,0.055 0.0447,0.100254 0.0997,0.100254 h 2.90009 v 5.799646 h -2.90009 c -0.055,0 -0.0997,0.04525 -0.0997,0.100252 v 6.000151 c 0,0.055 0.0447,0.09974 0.0997,0.09974 h 2.90009 v 5.800162 h -2.90009 c -0.055,0 -0.0997,0.04474 -0.0997,0.09973 v 6.000149 c 0,0.055 0.0447,0.100259 0.0997,0.100259 h 2.90009 v 5.799641 h -2.90009 c -0.055,0 -0.0997,0.0452 -0.0997,0.100259 v 6.00015 c 0,0.055 0.0447,0.0997 0.0997,0.0997 h 2.90009 v 5.80016 h -2.90009 c -0.055,0 -0.0997,0.0442 -0.0997,0.0992 v 6.00015 c 0,0.055 0.0447,0.0997 0.0997,0.0997 h 2.90009 v 5.80016 h -2.90009 c -0.055,0 -0.0997,0.0452 -0.0997,0.10025 v 5.99964 c 0,0.055 0.0447,0.10025 0.0997,0.10025 h 2.90009 v 5.80016 h -2.90009 c -0.055,0 -0.0997,0.0447 -0.0997,0.0997 v 6.00015 c 0,0.055 0.0447,0.0997 0.0997,0.0997 h 2.90009 v 5.80017 h -2.90009 c -0.055,0 -0.0997,0.0447 -0.0997,0.0997 v 6.00015 c 0,0.055 0.0447,0.10026 0.0997,0.10026 h 2.90009 v 5.79964 h -2.90009 c -0.055,0 -0.0997,0.0453 -0.0997,0.10025 v 6.00015 c 0,0.055 0.0447,0.0997 0.0997,0.0997 h 2.90009 v 5.80016 h -2.90009 c -0.055,0 -0.0997,0.0447 -0.0997,0.0997 v 6.00015 c 0,0.055 0.0447,0.10025 0.0997,0.10025 h 2.90009 v 5.79965 h -2.90009 c -0.055,0 -0.0997,0.0453 -0.0997,0.10025 v 5.99963 3.00034 c 0,0.055 0.0447,0.0997 0.0997,0.0997 h 3.00034 9.9999 c 0.055,0 0.0997,-0.0447 0.0997,-0.0997 v -2.90008 h 5.80016 v 2.90008 c 0,0.055 0.0453,0.0997 0.10025,0.0997 h 5.99964 c 0.055,0 0.10025,-0.0447 0.10025,-0.0997 v -2.90008 h 5.79965 v 2.90008 c 0,0.055 0.0453,0.0997 0.10025,0.0997 h 6.00015 c 0.055,0 0.0997,-0.0447 0.0997,-0.0997 v -2.90008 h 5.80017 v 2.90008 c 0,0.055 0.0447,0.0997 0.0997,0.0997 h 6.00015 c 0.055,0 0.10026,-0.0447 0.10026,-0.0997 v -2.90008 h 5.79964 v 2.90008 c 0,0.055 0.0453,0.0997 0.10025,0.0997 h 6.00014 c 0.055,0 0.0997,-0.0447 0.0997,-0.0997 v -2.90008 h 5.80016 v 2.90008 c 0,0.055 0.0447,0.0997 0.0997,0.0997 h 6.00015 c 0.055,0 0.0997,-0.0447 0.0997,-0.0997 v -2.90008 h 5.80017 v 2.90008 c 0,0.055 0.0453,0.0997 0.10025,0.0997 h 5.99963 c 0.055,0 0.10026,-0.0447 0.10026,-0.0997 v -2.90008 h 5.80016 v 2.90008 c 0,0.055 0.0447,0.0997 0.0997,0.0997 h 6.00015 c 0.055,0 0.0997,-0.0447 0.0997,-0.0997 v -2.90008 h 5.80016 v 2.90008 c 0,0.055 0.0453,0.0997 0.10025,0.0997 h 5.99964 c 0.055,0 0.10025,-0.0447 0.10025,-0.0997 v -2.90008 h 5.79965 v 2.90008 c 0,0.055 0.0453,0.0997 0.10025,0.0997 h 6.00015 c 0.055,0 0.0997,-0.0447 0.0997,-0.0997 v -2.90008 h 5.80016 v 2.90008 c 0,0.055 0.0442,0.0997 0.0992,0.0997 h 6.00015 c 0.055,0 0.10025,-0.0447 0.10025,-0.0997 v -2.90008 h 5.79965 v 2.90008 c 0,0.055 0.0453,0.0997 0.10025,0.0997 h 5.99963 c 0.055,0 0.10024,-0.0447 0.10024,-0.0997 v -2.90008 h 5.80018 v 2.90008 c 0,0.055 0.0447,0.0997 0.0997,0.0997 h 6.00015 c 0.055,0 0.0997,-0.0447 0.0997,-0.0997 v -2.90008 h 5.80016 v 2.90008 c 0,0.055 0.0452,0.0997 0.10025,0.0997 h 5.99963 c 0.055,0 0.10025,-0.0447 0.10025,-0.0997 v -2.90008 h 5.79965 v 2.90008 c 0,0.055 0.0452,0.0997 0.10026,0.0997 h 6.00015 c 0.055,0 0.0997,-0.0447 0.0997,-0.0997 v -2.90008 h 5.80016 v 2.90008 c 0,0.055 0.0447,0.0997 0.0997,0.0997 h 10.00095 2.99981 c 0.055,0 0.0997,-0.0447 0.0997,-0.0997 v -3.00034 -5.99963 c 0,-0.055 -0.0448,-0.10025 -0.0997,-0.10025 h -2.90008 v -5.79965 h 2.90008 c 0.055,0 0.0997,-0.0453 0.0997,-0.10025 v -6.00015 c 0,-0.055 -0.0448,-0.0992 -0.0997,-0.0992 h -2.90008 v -5.80016 h 2.90008 c 0.055,0 0.0997,-0.0447 0.0997,-0.0997 v -6.00015 c 0,-0.055 -0.0448,-0.10025 -0.0997,-0.10025 h -2.90008 v -5.79965 h 2.90008 c 0.055,0 0.0997,-0.0453 0.0997,-0.10025 v -6.00015 c 0,-0.055 -0.0448,-0.0997 -0.0997,-0.0997 h -2.90008 v -5.80016 h 2.90008 c 0.055,0 0.0997,-0.0447 0.0997,-0.0997 v -6.00015 c 0,-0.055 -0.0448,-0.0997 -0.0997,-0.0997 h -2.90008 v -5.80016 h 2.90008 c 0.055,0 0.0997,-0.0452 0.0997,-0.10026 v -5.99963 c 0,-0.055 -0.0448,-0.10025 -0.0997,-0.10025 h -2.90008 v -5.80016 h 2.90008 c 0.055,0 0.0997,-0.0447 0.0997,-0.0997 v -6.00015 c 0,-0.055 -0.0448,-0.0997 -0.0997,-0.0997 h -2.90008 v -5.800158 h 2.90008 c 0.055,0 0.0997,-0.0447 0.0997,-0.0997 v -6.00017 c 0,-0.055 -0.0448,-0.10026 -0.0997,-0.10026 h -2.90008 v -5.799639 h 2.90008 c 0.055,0 0.0997,-0.0453 0.0997,-0.100261 v -6.000146 c 0,-0.055 -0.0448,-0.09973 -0.0997,-0.09973 h -2.90008 v -5.800163 h 2.90008 c 0.055,0 0.0997,-0.04474 0.0997,-0.09974 v -6.00015 c 0,-0.055 -0.0448,-0.100252 -0.0997,-0.100252 h -2.90008 v -5.799646 h 2.90008 c 0.055,0 0.0997,-0.04525 0.0997,-0.100253 v -5.999634 c 0,-0.055 -0.0448,-0.100252 -0.0997,-0.100252 h -2.90008 v -5.800162 h 2.90008 c 0.055,0 0.0997,-0.04474 0.0997,-0.09974 v -6.00015 c 0,-0.055 -0.0448,-0.09974 -0.0997,-0.09974 h -2.90008 V 38.00281 h 2.90008 c 0.055,0 0.0997,-0.04525 0.0997,-0.100253 v -5.999625 c 0,-0.05499 -0.0448,-0.100253 -0.0997,-0.100253 h -2.90008 v -5.799646 h 2.90008 c 0.055,0 0.0997,-0.04525 0.0997,-0.100252 V 19.90263 c 0,-0.055 -0.0448,-0.09973 -0.0997,-0.09973 h -2.90008 v -5.800163 h 2.90008 c 0.055,0 0.0997,-0.04474 0.0997,-0.09974 V 7.9028475 Z M 509.36271,108.80263 a 1.9,1.9 0 0 1 -1.90014,1.90014 1.9,1.9 0 0 1 -1.89963,-1.90014 1.9,1.9 0 0 1 1.89963,-1.90014 1.9,1.9 0 0 1 1.90014,1.90014 z m -5.2e-4,48.69987 a 1.9,1.9 0 0 1 -1.89962,1.90014 1.9,1.9 0 0 1 -1.90015,-1.90014 1.9,1.9 0 0 1 1.90015,-1.90014 1.9,1.9 0 0 1 1.89962,1.90014 z m -62.19982,-43.19995 a 1.9,1.9 0 0 1 -1.89962,1.90014 1.9,1.9 0 0 1 -1.90015,-1.90014 1.9,1.9 0 0 1 1.90015,-1.90014 1.9,1.9 0 0 1 1.89962,1.90014 z m 0,38.1 a 1.9,1.9 0 0 1 -1.89962,1.90014 1.9,1.9 0 0 1 -1.90015,-1.90014 1.9,1.9 0 0 1 1.90015,-1.90014 1.9,1.9 0 0 1 1.89962,1.90014 z" />
    <path
       id="path1"
       style="fill:none;stroke:#ff0000;stroke-width:0.2;stroke-dasharray:none;stroke-opacity:1"
       d="m 241.4358,293.19074 c -0.0134,1.83421 1.6859,3.39334 3.77648,3.40832 l 25.05622,0.17941 c 1.02455,0.007 1.84939,0.74446 1.84295,1.64314 -0.006,0.88794 -0.83163,1.60379 -1.84341,1.59655 l -19.4903,-0.13956 c -1.94743,-0.0139 -3.67276,1.15182 -3.91018,2.84787 -0.0185,0.13247 -0.0281,0.32651 -0.0291,0.45608 -0.0134,1.83423 1.68578,3.40937 3.77636,3.42435 l 28.29213,0.2026 c 1.04955,0.008 1.74603,0.67122 1.74037,1.46048 -0.003,0.36334 -0.1532,0.68566 -0.48717,0.99131 l -4.28567,3.90249 c -0.73629,0.63675 -1.10817,1.46808 -1.11422,2.31443 -0.006,0.84632 0.3538,1.68913 1.08092,2.33633 1.45391,1.29445 3.84839,1.3085 5.32099,0.0351 l 21.23113,-13.90586 c 0.002,-0.002 0.005,-0.002 0.008,-0.003 l 1.034,-0.0613 c 0.63319,0.13895 1.28811,0.21696 1.96009,0.22178 l 79.99801,0.57267 c 5.53984,0.0397 10.03394,-4.71614 10.07652,-10.66338 l 0.0538,-7.51459 c 0.0426,-5.94724 -4.38293,-10.76744 -9.92277,-10.80711 l -79.99771,-0.57286 c -1.09439,-0.008 -2.14522,0.17789 -3.13175,0.51659 l -0.0403,-0.005 c -0.23785,-0.0289 -0.45633,-0.0123 -0.65746,-0.12771 -6.61736,-3.79002 -17.58012,-5.0394 -29.46098,-5.12447 l -13.91145,-0.0996 c -2.0904,-0.0147 -3.81097,1.37961 -3.82443,3.21333 v 5.2e-4 c -8.7e-4,0.12985 0.007,0.33786 0.023,0.47043 0.21283,1.699 1.92056,3.0312 3.86798,3.04517 l 12.04079,0.0863 c 0.96946,0.007 1.84731,0.45611 1.84125,1.30665 l -2.5e-4,0.0274 c -0.007,0.92035 -0.95941,1.91192 -2.00839,1.90441 l -19.42261,-0.13908 c -1.94745,-0.0139 -3.67233,1.09111 -3.90973,2.78689 -0.0185,0.13248 -0.0289,0.357 -0.0298,0.48659 -0.0134,1.83421 1.68608,3.43934 3.77667,3.45431 l 19.60708,0.1404 c 1.01063,0.007 1.82555,0.60974 1.81919,1.49619 -0.006,0.89965 -0.84258,1.50141 -1.86799,1.49405 L 245.3764,289.8708 c -1.94772,-0.014 -3.6738,1.18386 -3.91092,2.8799 -0.0189,0.13244 -0.0286,0.31022 -0.0296,0.44008 z m 146.56144,-2.99118 a 1.5,1.5 0 0 1 1.51032,-1.48941 1.5,1.5 0 0 1 1.48939,1.51086 1.5,1.5 0 0 1 -1.51089,1.48884 1.5,1.5 0 0 1 -1.48887,-1.51036 z"
       inkscape:transform-center-x="70.980702"
       inkscape:transform-center-y="4.4507412" />
    <path
       id="path1-5"
       style="fill:none;stroke:#ff0000;stroke-width:0.2;stroke-dasharray:none;stroke-opacity:1"
       d="m 82.833737,285.82523 c -0.0134,1.83421 1.6859,3.39334 3.77648,3.40832 l 25.056223,0.17941 c 1.02455,0.007 1.84939,0.74446 1.84295,1.64314 -0.006,0.88794 -0.83163,1.60379 -1.84341,1.59655 l -19.490303,-0.13956 c -1.94743,-0.0139 -3.67276,1.15182 -3.91018,2.84787 -0.0185,0.13247 -0.0281,0.32651 -0.0291,0.45608 -0.0134,1.83423 1.68578,3.40937 3.77636,3.42435 l 28.292133,0.2026 c 1.04955,0.008 1.74603,0.67122 1.74037,1.46048 -0.003,0.36334 -0.1532,0.68566 -0.48717,0.99131 l -4.28567,3.90249 c -0.73629,0.63675 -1.10817,1.46808 -1.11422,2.31443 -0.006,0.84632 0.3538,1.68913 1.08092,2.33633 1.45391,1.29445 3.84839,1.3085 5.32099,0.0351 l 21.23113,-13.90586 c 0.002,-0.002 0.005,-0.002 0.008,-0.003 l 1.034,-0.0613 c 0.63319,0.13895 1.28811,0.21696 1.96009,0.22178 l 79.998,0.57267 c 5.53984,0.0397 10.03395,-4.71614 10.07653,-10.66338 l 0.0538,-7.51459 c 0.0426,-5.94724 -4.38294,-10.76744 -9.92278,-10.80711 l -79.9977,-0.57286 c -1.09439,-0.008 -2.14522,0.17789 -3.13175,0.51659 l -0.0403,-0.005 c -0.23785,-0.0289 -0.45633,-0.0123 -0.65746,-0.12771 -6.61736,-3.79002 -17.58012,-5.0394 -29.46098,-5.12447 l -13.911453,-0.0996 c -2.0904,-0.0147 -3.81097,1.37961 -3.82443,3.21333 v 5.2e-4 c -8.7e-4,0.12985 0.007,0.33786 0.023,0.47043 0.21283,1.699 1.92056,3.0312 3.86798,3.04517 l 12.040793,0.0863 c 0.96946,0.007 1.84731,0.45611 1.84125,1.30665 l -2.5e-4,0.0274 c -0.007,0.92035 -0.95941,1.91192 -2.00839,1.90441 l -19.422613,-0.13908 c -1.94745,-0.0139 -3.67232,1.09111 -3.90973,2.78689 -0.0185,0.13248 -0.0289,0.357 -0.0298,0.48659 -0.0134,1.83421 1.68608,3.43934 3.77667,3.45431 l 19.607083,0.1404 c 1.01063,0.007 1.82555,0.60974 1.81919,1.49619 -0.006,0.89965 -0.84258,1.50141 -1.86799,1.49405 l -24.937663,-0.17856 c -1.94772,-0.014 -3.6738,1.18386 -3.91092,2.8799 -0.0189,0.13244 -0.0286,0.31022 -0.0296,0.44008 z m 146.561433,-2.99118 a 1.5,1.5 0 0 1 1.51032,-1.48941 1.5,1.5 0 0 1 1.48939,1.51086 1.5,1.5 0 0 1 -1.51089,1.48884 1.5,1.5 0 0 1 -1.48887,-1.51036 z"
       inkscape:transform-center-x="70.980695"
       inkscape:transform-center-y="4.4507415" />
    <path
       id="path18"
       style="fill:none;fill-opacity:1;stroke:#ff0000;stroke-width:0.2;stroke-dasharray:none;stroke-opacity:1"
       d="m 83.091696,214.06694 a 40,40 0 0 0 -40.00014,-39.99963 40,40 0 0 0 -39.99962,39.99963 40,40 0 0 0 39.99962,40.00014 40,40 0 0 0 40.00014,-40.00014 z m -37.39978,0 a 2.5999999,2.5999999 0 0 1 -2.60036,2.60036 2.5999999,2.5999999 0 0 1 -2.59984,-2.60036 2.5999999,2.5999999 0 0 1 2.59984,-2.59984 2.5999999,2.5999999 0 0 1 2.60036,2.59984 z" />
    <path
       id="path18-3"
       style="fill:none;fill-opacity:1;stroke:#ff0000;stroke-width:0.2;stroke-dasharray:none;stroke-opacity:1"
       d="m 83.091696,295.44482 a 40,40 0 0 0 -40.00014,-39.99963 40,40 0 0 0 -39.99962,39.99963 40,40 0 0 0 39.99962,40.00014 40,40 0 0 0 40.00014,-40.00014 z m -37.39978,0 a 2.5999999,2.5999999 0 0 1 -2.60036,2.60036 2.5999999,2.5999999 0 0 1 -2.59984,-2.60036 2.5999999,2.5999999 0 0 1 2.59984,-2.59984 2.5999999,2.5999999 0 0 1 2.60036,2.59984 z" />
    <path
       id="path21"
       style="fill:none;fill-opacity:0.149038;stroke:#ff0000;stroke-width:0.2;stroke-linecap:round;stroke-linejoin:round;stroke-dasharray:none;stroke-opacity:1"
       d="m 87.291527,88.968172 c -0.055,0 -0.0997,0.0452 -0.0997,0.10025 v 7.00009 c 0,0.055 0.0447,0.0997 0.0997,0.0997 h 2.90008 v 5.800158 h -2.90008 c -0.055,0 -0.0997,0.0447 -0.0997,0.0997 v 6.00015 c 0,0.055 0.0447,0.0997 0.0997,0.0997 h 2.90008 v 5.80016 h -2.90008 c -0.055,0 -0.0997,0.0453 -0.0997,0.10026 v 5.99963 c 0,0.055 0.0447,0.10025 0.0997,0.10025 h 2.90008 v 5.80017 h -2.90008 c -0.055,0 -0.0997,0.0447 -0.0997,0.0997 v 6.00015 c 0,0.055 0.0447,0.0997 0.0997,0.0997 h 2.90008 v 5.80034 h -2.90008 c -0.055,0 -0.0997,0.0452 -0.0997,0.10025 v 5.99964 c 0,0.055 0.0447,0.10025 0.0997,0.10025 h 2.90008 v 5.79964 h -2.90008 c -0.055,0 -0.0997,0.0453 -0.0997,0.10026 v 6.00015 c 0,0.055 0.0447,0.0997 0.0997,0.0997 h 2.90008 v 5.80017 h -2.90008 c -0.055,0 -0.0997,0.0447 -0.0997,0.0997 v 7.00009 c 0,0.055 0.0447,0.10025 0.0997,0.10025 h 3.00033 113.999763 3.00034 c 0.055,0 0.0997,-0.0452 0.0997,-0.10025 v -7.00009 c 0,-0.055 -0.0447,-0.0997 -0.0997,-0.0997 h -2.90009 v -5.80017 h 2.90009 c 0.055,0 0.0997,-0.0447 0.0997,-0.0997 v -6.00015 c 0,-0.055 -0.0447,-0.10026 -0.0997,-0.10026 h -2.90009 v -5.79964 h 2.90009 c 0.055,0 0.0997,-0.0453 0.0997,-0.10025 v -5.99964 c 0,-0.055 -0.0447,-0.10025 -0.0997,-0.10025 h -2.90009 v -5.80016 h 2.90009 c 0.055,0 0.0997,-0.0447 0.0997,-0.0997 v -6.00015 c 0,-0.055 -0.0447,-0.0997 -0.0997,-0.0997 h -2.90009 v -5.80017 h 2.90009 c 0.055,0 0.0997,-0.0453 0.0997,-0.10025 v -5.99963 c 0,-0.055 -0.0447,-0.10026 -0.0997,-0.10026 h -2.90009 v -5.80016 h 2.90009 c 0.055,0 0.0997,-0.0447 0.0997,-0.0997 v -6.00015 c 0,-0.055 -0.0447,-0.0997 -0.0997,-0.0997 h -2.90009 v -5.800158 h 2.90009 c 0.055,0 0.0997,-0.0447 0.0997,-0.0997 v -7.00009 c 0,-0.055 -0.0447,-0.10025 -0.0997,-0.10025 H 204.29162 90.291857 Z m 9.07386,3.1564 c 0.0123,-0.003 0.0264,0.006 0.0264,0.0439 h 2.90008 2.900083 v 2.79983 h -5.800163 v -2.79983 c -0.0625,0 -0.0469,-0.039 -0.0264,-0.0439 z m 11.999793,0 c 0.0123,-0.003 0.0264,0.006 0.0264,0.0439 h 2.90008 2.90009 v 2.79983 h -5.80017 v -2.79983 c -0.0625,0 -0.0469,-0.039 -0.0264,-0.0439 z m 12.0003,0 c 0.0123,-0.003 0.0264,0.006 0.0264,0.0439 h 2.90009 2.89956 v 2.79983 h -5.79965 v -2.79983 c -0.0625,0 -0.0469,-0.039 -0.0264,-0.0439 z m 11.99978,0 c 0.0123,-0.003 0.0264,0.006 0.0264,0.0439 h 2.90008 2.90008 v 2.79983 h -5.80016 v -2.79983 c -0.0625,0 -0.0469,-0.039 -0.0264,-0.0439 z m 12.0003,0 c 0.0123,-0.003 0.0264,0.006 0.0264,0.0439 h 2.89956 2.90009 v 2.79983 h -5.79965 v -2.79983 c -0.0625,0 -0.0469,-0.039 -0.0264,-0.0439 z m 11.99979,0 c 0.0123,-0.003 0.0263,0.006 0.0263,0.0439 h 2.90009 2.90008 v 2.79983 h -5.80017 v -2.79983 c -0.0625,0 -0.0469,-0.039 -0.0263,-0.0439 z m 11.99978,0 c 0.0123,-0.003 0.0264,0.006 0.0264,0.0439 h 2.90008 2.90008 v 2.79983 h -5.80016 v -2.79983 c -0.0625,0 -0.0469,-0.039 -0.0264,-0.0439 z m 12.0003,0 c 0.0123,-0.003 0.0264,0.006 0.0264,0.0439 h 2.90008 2.90008 v 2.79983 h -5.80016 v -2.79983 c -0.0625,0 -0.0469,-0.039 -0.0264,-0.0439 z m 11.99979,0 c 0.0123,-0.003 0.0264,0.006 0.0264,0.0439 h 2.90008 2.90009 c 0,-0.1 0.1,0 0,0 v 2.79983 c 0.1,0 0,0.1 0,0 h -5.80017 c 0,0.1 -0.1,0 0,0 v -2.79983 c -0.0625,0 -0.0469,-0.039 -0.0264,-0.0439 z" />
    <path
       id="path11"
       style="fill:none;fill-opacity:0.149038;stroke:#ff0000;stroke-width:0.2;stroke-linecap:round;stroke-linejoin:round;stroke-dasharray:none;stroke-opacity:1"
       d="m 86.720455,4.1321009 c -0.055,0 -0.0997,0.0453 -0.0997,0.10025 v 6.9995701 c 0,0.055 0.0447,0.10025 0.0997,0.10025 h 2.90008 v 5.80017 h -2.90008 c -0.055,0 -0.0997,0.0447 -0.0997,0.0997 v 6.00015 c 0,0.055 0.0447,0.0997 0.0997,0.0997 h 2.90008 v 5.80016 h -2.90008 c -0.055,0 -0.0997,0.0453 -0.0997,0.10025 v 5.99964 c 0,0.055 0.0447,0.10025 0.0997,0.10025 h 2.90008 v 5.79965 h -2.90008 c -0.055,0 -0.0997,0.0453 -0.0997,0.10025 v 6.00015 c 0,0.055 0.0447,0.0997 0.0997,0.0997 h 2.90008 v 5.80016 h -2.90008 c -0.055,0 -0.0997,0.0447 -0.0997,0.0997 v 6.00015 c 0,0.055 0.0447,0.10025 0.0997,0.10025 h 2.90008 v 5.79965 h -2.90008 c -0.055,0 -0.0997,0.0453 -0.0997,0.10025 v 5.99964 c 0,0.055 0.0447,0.10025 0.0997,0.10025 h 2.90008 v 5.80016 h -2.90008 c -0.055,0 -0.0997,0.0447 -0.0997,0.0997 v 7.00009 c 0,0.055 0.0447,0.10025 0.0997,0.10025 h 3.00033 113.999775 3.00034 c 0.055,0 0.0997,-0.0452 0.0997,-0.10025 v -7.00009 c 0,-0.055 -0.0447,-0.0997 -0.0997,-0.0997 h -2.90009 v -5.80016 h 2.90009 c 0.055,0 0.0997,-0.0453 0.0997,-0.10025 v -5.99964 c 0,-0.055 -0.0447,-0.10025 -0.0997,-0.10025 h -2.90009 v -5.79964 h 2.90009 c 0.055,0 0.0997,-0.0453 0.0997,-0.10026 v -6.00015 c 0,-0.055 -0.0447,-0.0997 -0.0997,-0.0997 h -2.90009 v -5.80016 h 2.90009 c 0.055,0 0.0997,-0.0447 0.0997,-0.0997 v -6.00015 c 0,-0.055 -0.0447,-0.10025 -0.0997,-0.10025 h -2.90009 v -5.79964 h 2.90009 c 0.055,0 0.0997,-0.0453 0.0997,-0.10025 v -5.99964 c 0,-0.055 -0.0447,-0.10025 -0.0997,-0.10025 h -2.90009 v -5.80016 h 2.90009 c 0.055,0 0.0997,-0.0447 0.0997,-0.0997 v -6.00015 c 0,-0.055 -0.0447,-0.0997 -0.0997,-0.0997 h -2.90009 v -5.80017 h 2.90009 c 0.055,0 0.0997,-0.0453 0.0997,-0.10025 V 4.2323509 c 0,-0.055 -0.0447,-0.10025 -0.0997,-0.10025 H 203.72056 89.720785 Z m 9.07386,3.15588 c 0.0123,-0.003 0.0264,0.006 0.0264,0.0439 h 2.90008 2.900065 V 10.132221 H 95.820715 V 7.3318809 c -0.0625,0 -0.0469,-0.039 -0.0264,-0.0439 z m 11.999775,0 c 0.0123,-0.003 0.0264,0.006 0.0264,0.0439 h 2.90009 2.90009 v 2.8003401 h -5.80018 V 7.3318809 c -0.0625,0 -0.0469,-0.039 -0.0264,-0.0439 z m 12.00031,0 c 0.0123,-0.003 0.0264,0.006 0.0264,0.0439 h 2.90009 2.89956 V 10.132221 H 119.8208 V 7.3318809 c -0.0625,0 -0.0469,-0.039 -0.0264,-0.0439 z m 11.99978,0 c 0.0123,-0.003 0.0264,0.006 0.0264,0.0439 h 2.90008 2.90008 v 2.8003401 h -5.80016 V 7.3318809 c -0.0625,0 -0.0469,-0.039 -0.0264,-0.0439 z m 12.00032,0 c 0.0123,-0.003 0.0264,0.006 0.0264,0.0439 h 2.89956 2.90009 V 10.132221 H 143.8209 V 7.3318809 c -0.0625,0 -0.0469,-0.039 -0.0264,-0.0439 z m 11.99979,0 c 0.0123,-0.003 0.0263,0.006 0.0263,0.0439 h 2.90009 2.90008 v 2.8003401 h -5.80017 V 7.3318809 c -0.0625,0 -0.0469,-0.039 -0.0263,-0.0439 z m 11.99978,0 c 0.0123,-0.003 0.0264,0.006 0.0264,0.0439 h 2.90008 2.90008 v 2.8003401 h -5.80016 V 7.3318809 c -0.0625,0 -0.0469,-0.039 -0.0264,-0.0439 z m 12.0003,0 c 0.0123,-0.003 0.0264,0.006 0.0264,0.0439 h 2.90008 2.90008 v 2.8003401 h -5.80016 V 7.3318809 c -0.0625,0 -0.0469,-0.039 -0.0264,-0.0439 z m 11.99979,0 c 0.0123,-0.003 0.0264,0.006 0.0264,0.0439 h 2.90008 2.90009 v 2.8003401 h -5.80017 V 7.3318809 c -0.0625,0 -0.0469,-0.039 -0.0264,-0.0439 z M 111.26469,21.735161 h 5.00021 v 5.00021 h -5.00021 z m 65.91176,0 h 5.00021 v 5.00021 h -5.00021 z m -66.47039,22.42912 h 72.02922 v 24.6817 h -72.02922 z" />
    <path
       d="m 90.447316,250.07023 h 5.9 c 0.1,0 0,-0.1 0,0 v 2.9 c 0,0.055 0.045,0.1 0.1,0.1 h 6.000004 c 0.055,0 0.1,-0.045 0.1,-0.1 v -2.9 c 0,-0.1 -0.1,0 0,0 h 5.8 c 0.1,0 0,-0.1 0,0 v 2.9 c 0,0.055 0.045,0.1 0.1,0.1 h 6 c 0.055,0 0.1,-0.045 0.1,-0.1 v -2.9 c 0,-0.1 -0.1,0 0,0 h 5.8 c 0.1,0 0,-0.1 0,0 v 2.9 c 0,0.055 0.045,0.1 0.1,0.1 h 6 c 0.055,0 0.1,-0.045 0.1,-0.1 v -2.9 c 0,-0.1 -0.1,0 0,0 h 5.8 c 0.1,0 0,-0.1 0,0 v 2.9 c 0,0.055 0.045,0.1 0.1,0.1 h 6 c 0.055,0 0.1,-0.045 0.1,-0.1 v -2.9 c 0,-0.1 -0.1,0 0,0 h 5.8 c 0.1,0 0,-0.1 0,0 v 2.9 c 0,0.055 0.045,0.1 0.1,0.1 h 6 c 0.055,0 0.1,-0.045 0.1,-0.1 v -2.9 c 0,-0.1 -0.1,0 0,0 h 5.8 c 0.1,0 0,-0.1 0,0 v 2.9 c 0,0.055 0.045,0.1 0.1,0.1 h 6 c 0.055,0 0.1,-0.045 0.1,-0.1 v -2.9 c 0,-0.1 -0.1,0 0,0 h 5.8 c 0.1,0 0,-0.1 0,0 v 2.9 c 0,0.055 0.045,0.1 0.1,0.1 h 6 c 0.055,0 0.1,-0.045 0.1,-0.1 v -2.9 c 0,-0.1 -0.1,0 0,0 h 5.8 c 0.1,0 0,-0.1 0,0 v 2.9 c 0,0.055 0.045,0.1 0.1,0.1 h 6 c 0.055,0 0.1,-0.045 0.1,-0.1 v -2.9 c 0,-0.1 -0.1,0 0,0 h 5.8 c 0.1,0 0,-0.1 0,0 v 2.9 c 0,0.055 0.045,0.1 0.1,0.1 h 6 c 0.055,0 0.1,-0.045 0.1,-0.1 v -2.9 c 0,-0.1 -0.1,0 0,0 h 5.9 c 0.055,0 0.1,-0.045 0.1,-0.1 v -9.9 c 0,-0.1 -0.1,0 0,0 h 2.9 c 0.055,0 0.1,-0.045 0.1,-0.1 v -6 c 0,-0.055 -0.045,-0.1 -0.1,-0.1 h -2.9 c -0.1,0 0,0.1 0,0 v -5.8 c 0,-0.1 -0.1,0 0,0 h 2.9 c 0.055,0 0.1,-0.045 0.1,-0.1 v -6 c 0,-0.055 -0.045,-0.1 -0.1,-0.1 h -2.9 c -0.1,0 0,0.1 0,0 v -5.8 c 0,-0.1 -0.1,0 0,0 h 2.9 c 0.055,0 0.1,-0.045 0.1,-0.1 v -6 c 0,-0.055 -0.045,-0.1 -0.1,-0.1 h -2.9 c -0.1,0 0,0.1 0,0 v -5.8 c 0,-0.1 -0.1,0 0,0 h 2.9 c 0.055,0 0.1,-0.045 0.1,-0.1 v -6 c 0,-0.055 -0.045,-0.1 -0.1,-0.1 h -2.9 c -0.1,0 0,0.1 0,0 v -5.8 c 0,-0.1 -0.1,0 0,0 h 2.9 c 0.055,0 0.1,-0.045 0.1,-0.1 v -6 c 0,-0.055 -0.045,-0.1 -0.1,-0.1 h -2.9 c -0.1,0 0,0.1 0,0 v -9.9 c 0,-0.055 -0.045,-0.1 -0.1,-0.1 h -5.9 c -0.1,0 0,0.1 0,0 v -2.9 c 0,-0.055 -0.045,-0.1 -0.1,-0.1 h -6 c -0.055,0 -0.1,0.045 -0.1,0.1 v 2.9 c 0,0.1 0.1,0 0,0 h -5.8 c -0.1,0 0,0.1 0,0 v -2.9 c 0,-0.055 -0.045,-0.1 -0.1,-0.1 h -6 c -0.055,0 -0.1,0.045 -0.1,0.1 v 2.9 c 0,0.1 0.1,0 0,0 h -5.8 c -0.1,0 0,0.1 0,0 v -2.9 c 0,-0.055 -0.045,-0.1 -0.1,-0.1 h -6 c -0.055,0 -0.1,0.045 -0.1,0.1 v 2.9 c 0,0.1 0.1,0 0,0 h -5.8 c -0.1,0 0,0.1 0,0 v -2.9 c 0,-0.055 -0.045,-0.1 -0.1,-0.1 h -6 c -0.055,0 -0.1,0.045 -0.1,0.1 v 2.9 c 0,0.1 0.1,0 0,0 h -5.8 c -0.1,0 0,0.1 0,0 v -2.9 c 0,-0.055 -0.045,-0.1 -0.1,-0.1 h -6 c -0.055,0 -0.1,0.045 -0.1,0.1 v 2.9 c 0,0.1 0.1,0 0,0 h -5.8 c -0.1,0 0,0.1 0,0 v -2.9 c 0,-0.055 -0.045,-0.1 -0.1,-0.1 h -6 c -0.055,0 -0.1,0.045 -0.1,0.1 v 2.9 c 0,0.1 0.1,0 0,0 h -5.8 c -0.1,0 0,0.1 0,0 v -2.9 c 0,-0.055 -0.045,-0.1 -0.1,-0.1 h -6 c -0.055,0 -0.1,0.045 -0.1,0.1 v 2.9 c 0,0.1 0.1,0 0,0 h -5.8 c -0.1,0 0,0.1 0,0 v -2.9 c 0,-0.055 -0.045,-0.1 -0.1,-0.1 h -6 c -0.055,0 -0.1,0.045 -0.1,0.1 v 2.9 c 0,0.1 0.1,0 0,0 h -5.8 c -0.1,0 0,0.1 0,0 v -2.9 c 0,-0.055 -0.045,-0.1 -0.1,-0.1 h -6.000004 c -0.055,0 -0.1,0.045 -0.1,0.1 v 2.9 c 0,0.1 0.1,0 0,0 h -5.9 c -0.055,0 -0.1,0.045 -0.1,0.1 v 9.9 c 0,0.1 0.1,0 0,0 h -2.9 c -0.055,0 -0.1,0.045 -0.1,0.1 v 6 c 0,0.055 0.045,0.1 0.1,0.1 h 2.9 c 0.1,0 0,-0.1 0,0 v 5.8 c 0,0.1 0.1,0 0,0 h -2.9 c -0.055,0 -0.1,0.045 -0.1,0.1 v 6 c 0,0.055 0.045,0.1 0.1,0.1 h 2.9 c 0.1,0 0,-0.1 0,0 v 5.8 c 0,0.1 0.1,0 0,0 h -2.9 c -0.055,0 -0.1,0.045 -0.1,0.1 v 6 c 0,0.055 0.045,0.1 0.1,0.1 h 2.9 c 0.1,0 0,-0.1 0,0 v 5.8 c 0,0.1 0.1,0 0,0 h -2.9 c -0.055,0 -0.1,0.045 -0.1,0.1 v 6 c 0,0.055 0.045,0.1 0.1,0.1 h 2.9 c 0.1,0 0,-0.1 0,0 v 5.8 c 0,0.1 0.1,0 0,0 h -2.9 c -0.055,0 -0.1,0.045 -0.1,0.1 v 6 c 0,0.055 0.045,0.1 0.1,0.1 h 2.9 c 0.1,0 0,-0.1 0,0 v 9.9 c 0,0.055 0.045,0.1 0.1,0.1 z"
       stroke="#000000"
       stroke-width="0.2"
       id="path22"
       style="fill:none;fill-opacity:0.149038;stroke:#ff0000;stroke-width:0.2;stroke-linecap:round;stroke-linejoin:round;stroke-dasharray:none;stroke-opacity:1" />
    <path
       id="path28"
       style="fill:none;fill-opacity:1;stroke:#ff0000;stroke-width:0.2;stroke-linecap:round;stroke-linejoin:round;stroke-dasharray:none;stroke-opacity:1"
       d="m 6.2480829,3.073462 c -0.055,0 -0.100252,0.0453 -0.100252,0.100252 v 6.899838 h -2.900082 c -0.055,0 -0.09974,0.04474 -0.09974,0.09974 v 6.000151 c 0,0.055 0.04474,0.100252 0.09974,0.100252 h 2.900082 v 5.799646 h -2.900082 c -0.055,0 -0.09974,0.0453 -0.09974,0.100252 v 6.000151 c 0,0.055 0.04474,0.09973 0.09974,0.09973 h 2.900082 v 5.800163 h -2.900082 c -0.055,0 -0.09974,0.04474 -0.09974,0.09974 v 6.000143 c 0,0.055 0.04474,0.0997 0.09974,0.0997 h 2.900082 v 5.80016 h -2.900082 c -0.055,0 -0.09974,0.0453 -0.09974,0.10025 v 5.99964 c 0,0.055 0.04474,0.10025 0.09974,0.10025 h 2.900082 v 5.80016 h -2.900082 c -0.055,0 -0.09974,0.0447 -0.09974,0.0997 v 6.00015 c 0,0.055 0.04474,0.0997 0.09974,0.0997 h 2.900082 v 5.80017 h -2.900082 c -0.055,0 -0.09974,0.0447 -0.09974,0.0997 v 6.00015 c 0,0.055 0.04474,0.10026 0.09974,0.10026 h 2.900082 v 6.89983 c 0,0.055 0.0453,0.10025 0.100252,0.10025 H 35.747573 v 2.99982 h 15.000121 v -2.99982 h 29.50001 c 0.055,0 0.10025,-0.0452 0.10025,-0.10025 v -6.89983 h 2.90008 c 0.055,0 0.0997,-0.0452 0.0997,-0.10026 V 70.1731 c 0,-0.055 -0.0447,-0.0997 -0.0997,-0.0997 h -2.90008 v -5.80017 h 2.90008 c 0.055,0 0.0997,-0.0447 0.0997,-0.0997 v -6.00015 c 0,-0.055 -0.0447,-0.0997 -0.0997,-0.0997 h -2.90008 v -5.80016 h 2.90008 c 0.055,0 0.0997,-0.0452 0.0997,-0.10025 v -5.99964 c 0,-0.055 -0.0447,-0.10025 -0.0997,-0.10025 h -2.90008 v -5.80016 h 2.90008 c 0.055,0 0.0997,-0.0447 0.0997,-0.0997 v -6.000143 c 0,-0.055 -0.0447,-0.09974 -0.0997,-0.09974 h -2.90008 v -5.800163 h 2.90008 c 0.055,0 0.0997,-0.04473 0.0997,-0.09973 v -6.000151 c 0,-0.055 -0.0447,-0.100252 -0.0997,-0.100252 h -2.90008 V 16.27369 h 2.90008 c 0.055,0 0.0997,-0.0453 0.0997,-0.100252 v -6.000151 c 0,-0.055 -0.0447,-0.09974 -0.0997,-0.09974 h -2.90008 V 3.173709 c 0,-0.055 -0.0453,-0.100252 -0.10025,-0.100252 z m 10.0732861,3.15588 c 0.0123,-0.003 0.02635,0.006 0.02635,0.04393 H 19.2478 22.147882 V 9.073618 H 16.347724 V 6.273272 c -0.0625,0 -0.04685,-0.03903 -0.02635,-0.04393 z m 12.000301,0 c 0.0123,-0.003 0.02636,0.006 0.02636,0.04393 h 2.900082 2.899564 V 9.073618 H 28.34803 V 6.273272 c -0.0625,0 -0.04686,-0.03903 -0.02636,-0.04393 z m 11.999785,0 c 0.0123,-0.003 0.02635,0.006 0.02635,0.04393 h 2.900082 2.900081 V 9.073618 H 40.347805 V 6.273272 c -0.0625,0 -0.04685,-0.03903 -0.02635,-0.04393 z m 12.000299,0 c 0.0123,-0.003 0.0264,0.006 0.0264,0.04393 h 2.89956 2.90008 v 2.800346 h -5.79964 V 6.273272 c -0.0625,0 -0.0469,-0.03903 -0.0264,-0.04393 z m 11.99979,0 c 0.0123,-0.003 0.0263,0.006 0.0263,0.04393 h 2.90008 2.90008 v 2.800346 h -5.80016 V 6.273272 c -0.0625,0 -0.0468,-0.03903 -0.0263,-0.04393 z M 39.248135,30.725521 h 1.999878 V 55.62168 h -1.999878 z m 2.999817,0 H 44.24783 V 55.62168 h -1.999878 z m 2.999817,0 h 1.999878 V 55.62116 h -1.999878 z" />
    <path
       id="path28-5"
       style="fill:none;fill-opacity:1;stroke:#ff0000;stroke-width:0.2;stroke-linecap:round;stroke-linejoin:round;stroke-dasharray:none;stroke-opacity:1"
       d="m 7.1688238,88.206259 c -0.055,0 -0.100252,0.0453 -0.100252,0.100252 v 6.899838 H 4.1684897 c -0.055,0 -0.09974,0.04474 -0.09974,0.09974 v 6.000161 c 0,0.055 0.04474,0.10025 0.09974,0.10025 h 2.9000821 v 5.79967 H 4.1684897 c -0.055,0 -0.09974,0.0453 -0.09974,0.10026 v 6.00015 c 0,0.055 0.04474,0.0997 0.09974,0.0997 h 2.9000821 v 5.80016 H 4.1684897 c -0.055,0 -0.09974,0.0447 -0.09974,0.0997 v 6.00014 c 0,0.055 0.04474,0.0997 0.09974,0.0997 h 2.9000821 v 5.80016 H 4.1684897 c -0.055,0 -0.09974,0.0453 -0.09974,0.10025 v 5.99964 c 0,0.055 0.04474,0.10025 0.09974,0.10025 h 2.9000821 v 5.80016 H 4.1684897 c -0.055,0 -0.09974,0.0447 -0.09974,0.0997 v 6.00015 c 0,0.055 0.04474,0.0997 0.09974,0.0997 h 2.9000821 v 5.80017 H 4.1684897 c -0.055,0 -0.09974,0.0447 -0.09974,0.0997 v 6.00015 c 0,0.055 0.04474,0.10026 0.09974,0.10026 h 2.9000821 v 6.89983 c 0,0.055 0.0453,0.10025 0.100252,0.10025 H 36.668312 v 2.99982 h 15.000121 v -2.99982 h 29.50001 c 0.055,0 0.10025,-0.0452 0.10025,-0.10025 v -6.89983 h 2.90008 c 0.055,0 0.0997,-0.0452 0.0997,-0.10026 v -6.00015 c 0,-0.055 -0.0447,-0.0997 -0.0997,-0.0997 h -2.90008 v -5.80017 h 2.90008 c 0.055,0 0.0997,-0.0447 0.0997,-0.0997 v -6.00015 c 0,-0.055 -0.0447,-0.0997 -0.0997,-0.0997 h -2.90008 v -5.80016 h 2.90008 c 0.055,0 0.0997,-0.0452 0.0997,-0.10025 v -5.99964 c 0,-0.055 -0.0447,-0.10025 -0.0997,-0.10025 h -2.90008 v -5.80016 h 2.90008 c 0.055,0 0.0997,-0.0447 0.0997,-0.0997 v -6.00014 c 0,-0.055 -0.0447,-0.0997 -0.0997,-0.0997 h -2.90008 v -5.80016 h 2.90008 c 0.055,0 0.0997,-0.0447 0.0997,-0.0997 v -6.00015 c 0,-0.055 -0.0447,-0.10026 -0.0997,-0.10026 h -2.90008 v -5.79968 h 2.90008 c 0.055,0 0.0997,-0.0453 0.0997,-0.10025 v -6.000156 c 0,-0.055 -0.0447,-0.09974 -0.0997,-0.09974 h -2.90008 v -6.899838 c 0,-0.055 -0.0453,-0.100252 -0.10025,-0.100252 z m 10.0732842,3.15588 c 0.0123,-0.003 0.02635,0.006 0.02635,0.04393 h 2.900081 2.900082 v 2.800346 h -5.800158 v -2.800346 c -0.0625,0 -0.04685,-0.03903 -0.02635,-0.04393 z m 12.000301,0 c 0.0123,-0.003 0.02636,0.006 0.02636,0.04393 h 2.900082 2.899564 v 2.800346 h -5.799646 v -2.800346 c -0.0625,0 -0.04686,-0.03903 -0.02636,-0.04393 z m 11.999785,0 c 0.0123,-0.003 0.02635,0.006 0.02635,0.04393 h 2.900082 2.900081 v 2.800346 h -5.800163 v -2.800346 c -0.0625,0 -0.04685,-0.03903 -0.02635,-0.04393 z m 12.000299,0 c 0.0123,-0.003 0.0264,0.006 0.0264,0.04393 h 2.89956 2.90008 v 2.800346 h -5.79964 v -2.800346 c -0.0625,0 -0.0469,-0.03903 -0.0264,-0.04393 z m 11.99979,0 c 0.0123,-0.003 0.0263,0.006 0.0263,0.04393 h 2.90008 2.90008 v 2.800346 h -5.80016 v -2.800346 c -0.0625,0 -0.0468,-0.03903 -0.0263,-0.04393 z M 40.168874,115.85835 h 1.999878 v 24.89616 h -1.999878 z m 2.999817,0 h 1.999878 v 24.89616 h -1.999878 z m 2.999817,0 h 1.999878 v 24.89564 h -1.999878 z" />
    <g
       id="g2"
       transform="translate(401.10833,268.2875)">
      <rect
         style="fill:none;fill-opacity:0.211934;stroke:#ff0000;stroke-width:0.2;stroke-linecap:round;stroke-linejoin:bevel;stroke-opacity:1"
         id="rect1"
         width="30"
         height="30"
         x="0.1"
         y="0.1" />
      <rect
         style="fill:none;fill-opacity:0.211934;stroke:#ff0000;stroke-width:0.2;stroke-linecap:round;stroke-linejoin:bevel;stroke-opacity:1"
         id="rect2"
         width="3"
         height="3"
         x="19.1"
         y="13.6" />
      <rect
         style="fill:none;fill-opacity:0.211934;stroke:#ff0000;stroke-width:0.2;stroke-linecap:round;stroke-linejoin:bevel;stroke-opacity:1"
         id="rect2-5"
         width="3"
         height="3"
         x="7.5083323"
         y="13.6" />
    </g>
    <rect
       style="fill:none;fill-opacity:0.211934;stroke:#ff0000;stroke-width:0.2;stroke-linecap:round;stroke-linejoin:bevel;stroke-opacity:1"
       id="rect3"
       width="3"
       height="5"
       x="438.2626"
       y="267.22559" />
    <rect
       style="fill:none;fill-opacity:0.211934;stroke:#ff0000;stroke-width:0.2;stroke-linecap:round;stroke-linejoin:bevel;stroke-opacity:1"
       id="rect3-8"
       width="3"
       height="5"
       x="433.23547"
       y="267.22559" />
    <rect
       style="fill:none;fill-opacity:0.211934;stroke:#ff0000;stroke-width:0.2;stroke-linecap:round;stroke-linejoin:bevel;stroke-opacity:1"
       id="rect4"
       width="8.1999998"
       height="8.1999998"
       x="652.26147"
       y="164.57111" />
  </g>
</svg>
